<svg xmlns="http://www.w3.org/2000/svg" width="83.16" height="80.036" viewBox="0 0 83.16 80.036">
  <path id="devices" d="M78.893,51.168V29.754a6.026,6.026,0,0,0-5.8-6.217H5.8A6.026,6.026,0,0,0,0,29.754V73.378a6.026,6.026,0,0,0,5.8,6.217H24.87l-2.183,2.52H19.416a1.447,1.447,0,0,0,0,2.887H38.15V98.925a3.535,3.535,0,0,0,3.4,3.648H56.026a3.535,3.535,0,0,0,3.4-3.648V95.993h18.12a4.794,4.794,0,0,0,4.612-4.947V55.9a4.925,4.925,0,0,0-3.267-4.732Zm.574,4.732v.394H48.5V55.9a2,2,0,0,1,1.921-2.06H77.548A2,2,0,0,1,79.467,55.9ZM56.026,68.1H48.5V59.181H79.467V87.764H59.428V71.744a3.535,3.535,0,0,0-3.4-3.648Zm.709,5.545H40.843v-1.9a.737.737,0,0,1,.709-.761H56.026a.737.737,0,0,1,.709.761v1.9ZM76.2,31.2V50.953H50.423A4.794,4.794,0,0,0,45.81,55.9V68.1H41.552a3.535,3.535,0,0,0-3.4,3.643H2.693V31.2H76.2ZM40.843,76.529H56.735V94.141H40.843ZM5.8,26.424h67.3a3.1,3.1,0,0,1,2.794,1.886H3A3.1,3.1,0,0,1,5.8,26.424Zm-2.877,48.2H38.15v2.081H5.8A3.119,3.119,0,0,1,2.921,74.627Zm23.441,7.488,2.183-2.52h9.6v2.52ZM56.026,99.686H41.552a.737.737,0,0,1-.709-.761v-1.9H56.735v1.9A.737.737,0,0,1,56.026,99.686Zm21.522-6.58H59.428V90.652H79.467v.395A2,2,0,0,1,77.548,93.106Z" transform="translate(0.5 -23.037)" fill="#575757" stroke="#f8f8f8" stroke-width="1"/>
</svg>
