<svg xmlns="http://www.w3.org/2000/svg" width="171.518" height="159.016" viewBox="0 0 171.518 159.016">
  <path id="Tracé_1088" data-name="Tracé 1088" d="M85.759,159.016A116.948,116.948,0,0,1,66.342,157.4a111.186,111.186,0,0,1-18.084-4.633,104.187,104.187,0,0,1-16.365-7.331,95.523,95.523,0,0,1-14.259-9.709A86.383,86.383,0,0,1,6.958,125.262H62.539l-.182.15.075.062,23.613-19.487,23.738,19.59.2-.165-.182-.15h54.759a86.384,86.384,0,0,1-10.676,10.466,95.506,95.506,0,0,1-14.259,9.709,104.178,104.178,0,0,1-16.365,7.331,111.182,111.182,0,0,1-18.084,4.633A116.945,116.945,0,0,1,85.759,159.016ZM171.518,43.242H0a78.241,78.241,0,0,1,5.87-8.188A85.742,85.742,0,0,1,17.634,23.287a95.548,95.548,0,0,1,14.259-9.709A104.183,104.183,0,0,1,48.258,6.248,111.309,111.309,0,0,1,66.342,1.615a117.539,117.539,0,0,1,38.833,0,111.3,111.3,0,0,1,18.084,4.633,104.177,104.177,0,0,1,16.365,7.331,95.557,95.557,0,0,1,14.259,9.709,85.74,85.74,0,0,1,11.764,11.767,78.22,78.22,0,0,1,5.869,8.187Z" transform="translate(171.518 159.016) rotate(180)" fill="#48ac8f" opacity="0.196"/>
</svg>
