<svg xmlns="http://www.w3.org/2000/svg" width="341.87" height="169.166" viewBox="0 0 341.87 169.166">
  <path id="Map" d="M173.248-142.287c-.336-.169-.881.153-.8.38.055.155.281.352.982.535s.785.661,1.08.676.322-.268.252-.648.35-.816.393-.886-.182-.183-.758-.056S173.585-142.118,173.248-142.287Zm-4.616-1.8c-.127.549.07,1.24.393.915s.478-.168.66-.408.028-1.126.154-1.548-.562-.62-.87-.353-.563-.046-.687.169C168.126-145.047,168.758-144.639,168.632-144.09Zm92.87,43.518c.224.365.5.028.5-.226S261.283-100.929,261.5-100.572Zm7.407,5.237c.562-.422-.926-.253-.954-.592s-1.123-.028-1.655-.253.59-.422.954-.648-.224-.31-1.122-.028-1.937-.619-1.965-.226-1.627-.169-2.02-.45-1.908-.648-2.218-.113-.576.055-.448.563c.084.338.448.141.7.141s.141.478.5.534,1.573.395,1.683.141,1.235,0,1.8.45a3.769,3.769,0,0,0,2.357.395c.505-.085,1.066.337,1.263.055S268.348-94.913,268.91-95.336Zm-8.951-5.041c0-.2.14-.281.393-.225s.225-.535.028-.592-.308-.76-.785-.76-.393.394-.112.422.448.253.364.45-.2-.2-.589-.168-.14-.48-.589-.507-.365-.845-.843-.845-.5-.394-.2-.676-.477-.535-.477-.873-.505-.141-.505-.422-.225-.141-.477-.479-.365-.028-.589-.281-.533-.395-.729-.31-.646-.367-.815-.817c-.133-.359-1.43-.957-1.6-1.437s-.616-.676-1.374-.647-1.057-.744-1.235-.366c-.225.479.814,1.548,1.291,1.83s.73,1.3,1.291,1.351.617,1.83,1.039,1.914,1.319,1.465,1.459,2.2,1.066,1.1,1.376,1.633,1.542,1.267,1.711,1.492.336.732.477.479.73,0,1.011.029.364-1.014.336-1.408A5.894,5.894,0,0,1,259.958-100.377Zm-7.914-3.8c.337-.337-.534-1.036-.589-.76S251.708-103.839,252.045-104.178Zm1.234,2.2c.2-.169-.271-.98-.448-.534C252.775-102.375,253.083-101.812,253.279-101.981Zm18.915,7.687c.168.253.645.253.842.422s.9.535.9.056S272.006-94.576,272.194-94.294Zm-9.149-8.56c.2.31.815.366.815.957s.532,1.521.9,1.267.646.113.758.366.982-.2,1.263-.141,1.15.226,1.207.563.842-.028,1.375-.225.225-1.8.73-2.112a1.45,1.45,0,0,0,.561-1.464c-.056-.563,1.234-.591,1.431-.816s-.281-.592-.645-.76-.057-.535-.309-.761-.674-.817-.309-.845-.252-.535.056-.7c.042-.023.09-.047.14-.072.332-.165.808-.381.59-.576-.253-.225.758-.028.869-.366s-.393-.619-.645-.563-.843.028-.843-.226-.533-.732-.869-.732-.73.676-.758.958-.561.253-.505.647c.022.155-.078.222-.206.263-.2.063-.468.062-.468.215,0,.248-.425-.092-.654-.109s-.748.785-.861,1.32-.617.366-1.375.422-.449.845-.617,1.211c-.154.335-.986-.27-1.406-.356a.429.429,0,0,0-.109-.01c-.364.028-.968.995-.617,1.323C262.96-103.783,262.849-103.164,263.045-102.854Zm17.342-2.365c-.448.618.146,2.149.505,2.083.31-.055-.252-.816.365-.76s.337-.31.337-.7-.562-.055-.562-.253S280.836-105.839,280.386-105.218Zm-7.745,5.1c.421.029.365.648.281,1.014s-.254,1.236.113,1.1c.449-.169.729-.732.477-.929s-.225-1.437-.113-1.746.87-.084.617.395.478.422.478.958.42.253.869.113.365-.395.056-.733.225-.816-.2-1.1-.7-.7-.309-.788,1.572-.761,1.431-1.042-1.8.055-1.937.563-1.319-.056-1.178-.93,2.47-1.013,3.143-.7,1.4-.507,1.655-.985-.532.084-1.01.395-1.74-.029-2.385-.254-.618.395-1.151.479-.421,1.267-.674,1.408-.252,1.013-.758,1.83S272.221-100.151,272.642-100.123Zm9.541-.112c.589,0,.9.422,1.207.422s.084-.732-.646-.958-1.975-.033-1.852.338C281-100.095,281.594-100.235,282.183-100.235Zm-2.076.169c.224-.395-1.281-.832-1.151-.311C279.068-99.925,279.882-99.672,280.107-100.066ZM277.874-94.3c.049-.059.092-.115.128-.162a.444.444,0,0,1,.1-.086c.028-.02.06-.042.1-.063a19.826,19.826,0,0,0,2-.921c.084-.226-.842.055-1.4.028-.379-.018-.531.295-.813.519-.026.02-.054.039-.082.058a.9.9,0,0,1-.308.13,1.032,1.032,0,0,1-.127.021l-.018,0a.977.977,0,0,0-.3.076c-.543.226-.829.877-.453,1.079S277.573-93.939,277.874-94.3Zm-7.954-1.26c-.281-.2-.628.267-.449.507a1.207,1.207,0,0,0,1.375.226c.7-.337,1.178-.028,1.347-.395s-1.292-.7-1.4-.449S270.2-95.364,269.921-95.561Zm6.819-.056c-.758-.112-1.263.451-2.021.169s-1.891.006-1.768.253c.112.226.784.253,1.543.282a12.068,12.068,0,0,0,1.936-.422C276.935-95.364,277.5-95.505,276.74-95.618ZM102.064-113.474c.195-.082.17-.367-.049-.554s-.908.1-.7.2-.1.33.024.447S101.869-113.394,102.064-113.474ZM85.475-128.039c0,.382.316.422.324.642s.321.508.381.383c.105-.22-.227-.423-.259-.586s.1-.382-.1-.715S85.475-128.422,85.475-128.039ZM315.464-83.558c.055.338,2.413,2.14,2.75,1.914S315.406-83.909,315.464-83.558Zm-50.006-109.2c.281.366,1.684.168,1.711-.282s-1.038-.395-1.15-.169S265.3-192.969,265.459-192.758Zm-5.4,34.1c0,.592-1.937.887-2.1.634-.147-.222,1.431-.3,1.81-1.141s1.816-1.279,2.525-2.407c.505-.8.927-2.027,1.221-1.943s-.252,2.66-1.051,3.379S260.056-159.252,260.056-158.661Zm1.26,41.283a2.659,2.659,0,0,1-.019-.3c0-.007,0-.013,0-.02A2.814,2.814,0,0,0,261.317-117.378Zm-5.116-8.115a.515.515,0,0,0,.059-.03c-.009,0-.016.015-.025.019A.252.252,0,0,1,256.2-125.493Zm-1,.805c.013,0,.02.014.032.019-.018-.006-.03-.025-.052-.02C255.189-124.692,255.193-124.688,255.2-124.688Zm-8.108-6.241.01,0-.062.029Zm-3.424-.105a.263.263,0,0,1,.051-.039.228.228,0,0,0-.062.057C243.662-131.021,243.664-131.029,243.669-131.034Zm-.18-24.081a.427.427,0,0,0,.068,0,.352.352,0,0,1-.044,0Zm-.6-.216a.616.616,0,0,0,.068.063.751.751,0,0,1-.059-.05S242.9-155.328,242.892-155.332Zm-5.828,21.984a.2.2,0,0,0,.057-.1.115.115,0,0,1-.018.058A.394.394,0,0,1,237.063-133.348Zm-5.672-17.936c-.7.76-.2,1.155-.5,1.211-.332.06-.505-1.155-.113-1.549a3.263,3.263,0,0,1,2.441-.366,10.916,10.916,0,0,0,2.386-.112c.2.055-.2.45-.982.45S232.093-152.044,231.391-151.284Zm3.931,13.809c.011-.054.021-.113.031-.172,0,.02-.006.041-.009.061C235.336-137.546,235.329-137.512,235.322-137.475Zm-.8-1.582c.006.006.007.014.012.019-.013-.015-.026-.031-.04-.045A.37.37,0,0,1,234.524-139.057Zm-.607-.1c0,.01,0,.009-.009.022Zm-2.574-1.833a1.117,1.117,0,0,0-.237-.076A1.151,1.151,0,0,1,231.343-140.987Zm.165.105s.01,0,.013.008c.065-.016.122-.027.173-.036-.05.009-.109.021-.172.037A.152.152,0,0,0,231.508-140.882Zm-.946-2.758s-.147.021-.341.043C230.412-143.618,230.559-143.639,230.562-143.639Zm-.068,2.289c-.123-.074-.426.154-.725.409C230.067-141.2,230.371-141.424,230.494-141.35Zm-1.474.831-.056.019Zm-1.756-3.9a1.877,1.877,0,0,1-.261-.008A2.045,2.045,0,0,0,227.264-144.42Zm.038-1.706a.531.531,0,0,0-.106-.021.576.576,0,0,1,.092.012C227.294-146.134,227.3-146.128,227.3-146.127Zm-9.933-5.783c-.1-.244,1.557.03,1.315.361C218.572-151.395,217.462-151.683,217.37-151.909Zm1.226,12.688a.282.282,0,0,1,.052-.017.336.336,0,0,0-.069.033C218.585-139.208,218.589-139.219,218.6-139.221Zm-.393,6.275a1.137,1.137,0,0,1-.135-.153A1.137,1.137,0,0,0,218.2-132.947Zm-.533-16.2c-.7.507-1.374.422-1.15-.2s.253-1.351-.112-1.351-.112,1.3-.393,1.379c-.249.075-.345-.94-.137-1.473a.789.789,0,0,1,.08-.161c.309-.45.723-.078.869.029.123.089.056-.478.393-.45s-.028.563.225.563c.2,0,.646.7.5,1.249A.713.713,0,0,1,217.669-149.144Zm-4.3,3.211-.01.008Zm-2.149.928c-.336-.113-.758-.395-.869,0s-.253.816.2.788.365.282.056.592.478-.056.533.226.309.31.2.76a5.96,5.96,0,0,0,0,1.275,1.244,1.244,0,0,1-.029.5,4.269,4.269,0,0,1-2.049.45c-.813.029-.869-1.041-1.74-1.041a1.217,1.217,0,0,1-1.148-1.125.8.8,0,0,1,.166-.565c.477-.591.842-1.521.561-2.027a11.769,11.769,0,0,0-.848-1.1c-.532-.655-1.105-1.38-1.088-1.662.029-.478.224-.788-.365-1.294s.057-.845.478-1.38c.376-.478,1.174-.687,1.681-1.027a1.514,1.514,0,0,0,.171-.128,2.5,2.5,0,0,1,1.993-.648c.645.169,1.178-.112,1.459.282s0,1.127.112,1.408-.505.311-.926.253-1.291.169-1.179.422.421.846-.139.535-.786.31-.477.31.729.366.729.619.028.816.309.732.281.422.674.395.758.113.449.478.2,1.38.309,1.155c.071-.141.008-.448.119-.645.066-.116.192-.192.443-.171.674.055.364.845.729.873s.786.592.449.563S211.552-144.892,211.215-145Zm-6.189,1.374a3.766,3.766,0,0,1-.644.385A3.706,3.706,0,0,0,205.026-143.631Zm-.816-2.81-.016-.008c-.053-.03-.106-.062-.158-.094C204.094-146.507,204.152-146.473,204.21-146.441Zm5.123,24.22-.057.018.125-.038Zm-6.354-23.518c.019.034.042.07.067.107-.021-.032-.043-.065-.06-.094C202.983-145.731,202.982-145.735,202.98-145.739Zm-.342,1.751a.008.008,0,0,1,0,0S202.637-143.989,202.638-143.988Zm-.252-.215a.282.282,0,0,0-.089,0A.283.283,0,0,1,202.385-144.2Zm-1.2-1.413a.534.534,0,0,1,.029.057.788.788,0,0,0-.07-.12A.7.7,0,0,1,201.183-145.617Zm-3.539,9.9c-.127,0-.238.009-.436.013C197.408-135.712,197.516-135.723,197.644-135.722Zm-5.626,31.788c.371.093.649.235.627.348-.042.232-.674.127-.674.612,0,.033,0,.065,0,.1a1.007,1.007,0,0,1-.458.9c-.273.127.379.528.064.592s-1.031-.3-1.537-.085c-.339.142-.269-.71-.006-1.458.176-.5.435-.949.721-1.033A2.631,2.631,0,0,1,192.018-103.934Zm1.112,13.778c-.247.359-.947-.76-1.031-1.457s.4-1.034.105-1.69c-.246-.546-.4-1.073-.224-1.234a.2.2,0,0,1,.139-.054c.321,0,.7,1.219.682,1.929a1,1,0,0,1-.051.33c-.182.477.38,1.558.407,2.014A.256.256,0,0,1,193.129-90.156Zm-1.789-4.383c.012.019.026.048.038.07a1.714,1.714,0,0,0-.1-.164A1.026,1.026,0,0,1,191.34-94.538Zm-.282,4.273.008,0-.018,0Zm3.524-27.406c0-.013-.006-.028-.007-.042,0,.011,0,.024.005.034A.017.017,0,0,0,194.583-117.672Zm5.484,1.836,0,0,.015-.024ZM189.389-81.972a.093.093,0,0,1,.036.031.113.113,0,0,0-.055-.037ZM188.6-96.088c-.216-.356-.432-.83-.693-.972-.463-.253-.652-3.442-.42-3.527.03-.011.059.023.088.089a6.575,6.575,0,0,1,.236.99,4.56,4.56,0,0,0,.58,1.814c.484.444.4.951.505,1.246s.526.634.232.761C188.941-95.607,188.772-95.811,188.6-96.088Zm-1.2,13.748a.354.354,0,0,0-.31-.373.353.353,0,0,1,.31.372s0,0,0,0A.008.008,0,0,0,187.405-82.34Zm1.31-19.177h0l.012,0Zm-3.106-7.887.22.549.015.038ZM181.87-86.616l.108-.02-.163.032Zm-.142-27.791.115.14C181.8-114.324,181.754-114.375,181.727-114.407Zm-5.95,8a.706.706,0,0,0-.059.092A.778.778,0,0,1,175.778-106.409Zm-1.07-19.856-.753.409,1.6-.87Zm.419,15.2a.416.416,0,0,0,.085.1.384.384,0,0,1-.083-.1S175.128-111.065,175.127-111.066Zm-1.279-5.386a.269.269,0,0,0,.1.026.452.452,0,0,1-.055-.006C173.876-116.434,173.865-116.446,173.849-116.452ZM172.4-105.961c.237.01.5.019.749.027l-.118,0Zm-.438-20.766h0Zm-.518,20.779-.234.067.409-.117Zm-1.707-27.742c.039-.026.078-.056.118-.084l-.165.119Zm-6.765,18.362a.56.56,0,0,0,0,.056s0-.007,0-.01S162.976-115.311,162.974-115.327Zm-1.725.966a.437.437,0,0,0,.157-.009.419.419,0,0,1-.151.01Zm-.93-.011a.224.224,0,0,1,.217-.111.2.2,0,0,0-.113.02A.272.272,0,0,0,160.319-114.372Zm-.066.112a1.077,1.077,0,0,1,.06-.1A.91.91,0,0,0,160.252-114.26Zm-2.465,1.1a.12.12,0,0,0,.044,0s-.006.006-.011.006A.154.154,0,0,1,157.787-113.161Zm-2.567-.645a.622.622,0,0,1,.155.051.569.569,0,0,0-.176-.051Zm-2.421.182a.339.339,0,0,0,.1.055.32.32,0,0,1-.089-.048Zm-.266,2.722c0-.008.012-.012.016-.02a.26.26,0,0,0-.017.032S152.533-110.9,152.533-110.9Zm-1.968-.836a.265.265,0,0,0-.033-.105.234.234,0,0,1,.03.067A.262.262,0,0,1,150.565-111.737Zm-.941-3.891c0,.063,0,.1,0,.1S149.622-115.57,149.625-115.628Zm-.909-2.346a.765.765,0,0,1,.031.076c-.011-.029-.024-.057-.041-.091A.137.137,0,0,1,148.716-117.974Zm41.473-41.238a.51.51,0,0,0,.037.068s0,0-.007-.006S190.2-159.193,190.188-159.212Zm-3.242-5.233a.265.265,0,0,0,.059.1.2.2,0,0,1-.048-.07A.326.326,0,0,1,186.946-164.445ZM186-154.4c-.109.028-.232.063-.35.1C185.768-154.34,185.889-154.375,186-154.4Zm.192-11.914s0-.005,0-.009a.217.217,0,0,0,.009.022S186.194-166.312,186.192-166.316Zm-3.625,4.837s0,.006,0,.009a.176.176,0,0,1-.006.084A.171.171,0,0,0,182.567-161.479Zm-.733,7.561c0-.006-.008-.011-.012-.018s.01.005.012.008S181.834-153.921,181.835-153.918Zm-.006-8c-.018,0-.028-.018-.035-.043a.182.182,0,0,1,0-.024C181.8-161.945,181.806-161.913,181.828-161.913Zm-.359,12.776a.184.184,0,0,0,.078-.1v.006A.189.189,0,0,1,181.47-149.137Zm.01-5.022c-.007-.006-.016-.007-.022-.013s-.012-.016-.019-.022Zm-.054,7.061s0,0,0,0a.122.122,0,0,0,.022.077.107.107,0,0,1-.021-.066A.022.022,0,0,1,181.426-147.1Zm.006-.116c0,.014,0,.025,0,.037a.232.232,0,0,1,0-.025S181.432-147.21,181.432-147.214Zm-1.148,1.825h.007a.369.369,0,0,1,.045,0c-.024,0-.05,0-.07,0Zm-.1.027a.114.114,0,0,1,.036-.016.021.021,0,0,1,.008,0h.007c-.039.008-.066.021-.071.045A.05.05,0,0,1,180.185-145.362Zm-.573-1.667c.106.071.183.127.183.127l-.055-.04Zm-.051-.035c-.062-.042-.129-.086-.2-.13C179.432-147.15,179.5-147.105,179.561-147.064Zm.147-4.433c-.023.018-.044.037-.048.058a.091.091,0,0,1,.026-.042A.134.134,0,0,1,179.708-151.5Zm-.821,4.1a.123.123,0,0,1,.03-.007c-.02,0-.044.019-.067.031C178.863-147.38,178.876-147.395,178.888-147.4Zm-.789-8.367a.483.483,0,0,0,.129.119.468.468,0,0,1-.125-.113Zm-2.206,3.747c.036-.03.062-.055.062-.055l-.021.019Zm-.165-.41s.011.013.016.017-.015-.018-.019-.02Zm-1.077-5.071a.517.517,0,0,0,.05-.1A.452.452,0,0,1,174.651-157.5Zm-1.873,5.349.084.009-.043,0C172.8-152.146,172.792-152.149,172.778-152.151Zm-3.051-.976s0,0,0-.008a.423.423,0,0,0-.021.118A.488.488,0,0,1,169.727-153.127Zm-2.012-.153a.6.6,0,0,0,.023-.088c0,.018,0,.041-.008.056S167.718-153.291,167.714-153.28Zm-.5,2.11c-.076.242.006.387.108.449-.105-.064-.189-.212-.105-.465C167.22-151.179,167.221-151.177,167.219-151.17Zm-.545-4.394.01,0c-.02-.006-.046-.008-.067-.014C166.634-155.569,166.657-155.568,166.674-155.564Zm-.286-.889a.117.117,0,0,1-.008.011S166.386-156.449,166.388-156.453Zm-.34.819h.033a1.21,1.21,0,0,0-.185.013A1.007,1.007,0,0,1,166.047-155.634Zm21.946-28.517.009-.007a.881.881,0,0,0-.066.079A.813.813,0,0,1,187.994-184.151Zm-7.844.476c.031.02.056.043.085.065a1.61,1.61,0,0,0-.177-.122C180.091-183.714,180.121-183.695,180.15-183.675ZM339.6-177.54c.154-.2.477-.127.505-.3s.2-.534.492-.52c-.169-.352-1.067-.929-1.292-1.254s-1.3-.479-1.3-.31c-.519-.408-1.655-.436-1.67-.239s.267.212.435.437-.224.351-.14.6-.421-.127-.6-.267-.1-.69-.043-.972-.322-.226-.365-.507-1.3-.859-1.837-1.084-1.221-.422-1.4-.7-1.136-.309-1.5-.69a6.38,6.38,0,0,0-2.652-1.1c-.687-.042-.533-.422-.87-.366a13.492,13.492,0,0,1-2.231-.084c-.449-.07-.547.268-.87.141s-1.992-.733-2.188-.507-.113.549-.309.605,0,.338.463.76.182.747-.239.93a1.286,1.286,0,0,1-1.3-.494c-.211-.323-.785-.182-.926-.6.73-.014,1.109-.212,1.151-.521s-.758-.521-1.194-.493-.674.633-1.122.887a4.289,4.289,0,0,1-2.372-.268,8.3,8.3,0,0,0-2.862.169c-.252.169-.069.83-.2.887s-.252-.761-.252-.915-.295-.268-.73-.268c-.322-.38-.674-.563-.336-.8s-.617-.985-1.543-1.351a8.071,8.071,0,0,0-3.592.014,10.738,10.738,0,0,1-2.217.127c-.533.015-.1-.211-.252-.464s-1.067-.563-1.194-.352a2.656,2.656,0,0,0-1.557-.549c.295-.31.968-.226.673-.676s-2.821-.592-3.058-.507-.015.408-.562.929-1.08.169-1.011-.084.745-.212.745-.465-.927-.113-1.066-.324.2-.352.532-.254.926.155.954,0-.35-.182-.912-.281a12.565,12.565,0,0,0-2.638-.352c-.715.07-1.038-.267-1.43-.3s-.394.212-.211.436-.379.366-.842.3-1.136.253-.87.592.533-.1.758.014-.589.352-.252.507.281.478.295.647-.562.253-.771,0-.505-.029-.9-.056c.155.267.295.535-.266.592s-.421-.521-.758-.451-1.066-.267-1.46-.253-.575.325-1.094.366a1.959,1.959,0,0,1-1.431-.549c-.785.282-.8.9-1.053.944s-.35.591-.6.731-.266-.211-.589-.182-1.361-.985-1.417-1.281-.7-.86-.87-.972c.589.2.856.2,1.066.084s.182-.633-.183-.648c.141-.436-.463-.985-.238-1.041-.491-.38-.813-.634-.828-.789s-1.318-.212-1.263.014c-.28-.211-.813-.154-1.431-.324s-.631-.605-.842-.633-.14.6-.448.464a.356.356,0,0,0-.478.493c.168.366.015.422-.014.717-.926-.084-.926.353-1.712.155s-1.137.014-1.276-.239c-.435.141-1.642.056-1.74-.253s.211-.366.393-.45-.2-.211-.856-.169-1.081-.337-1.755-.268a21.623,21.623,0,0,0-2.385.311c-.211.1.2.479-.127.507s-.1-.619-.154-.929a2.347,2.347,0,0,1-1.459.028,2.592,2.592,0,0,0-1.095-.563c-.547-.141-1.221.451-1.065.619s.561.043.575.154c.029.232-1.164.141-1.164.338s-1.109.465-1.446.507c-.922.116-1.122.113-1.557.48s-.1-.325.238-.662.687-.2.884-.465.5-.239,1.039-.325.5-.394.758-.507.87-.351.981-.605a3.486,3.486,0,0,1,1.628-.662c.253.015.309-.507.449-.507a7.541,7.541,0,0,0,1.15-.45.743.743,0,0,0,.435-.577c.014-.183-.379-.155-.421-.324.771-.281.477-.676.239-.606s.126-.211-.085-.464-.631.155-.617-.113a1.093,1.093,0,0,0-.2-.775c-.168-.168-.477.3-.827.029s-1.376-.437-1.376-.324-.491-.169-.588-.056a2.439,2.439,0,0,1-1.165.028c-.252-.07-.6.1-.617.352s-1.01.154-1.193.112.688-.76.688-.886-1.474.029-1.558-.112-.8-.184-1.123-.169c.576-.141.842-.395,1.165-.451-.029-.563-.365-.464-.688-.563a4.94,4.94,0,0,0-1-.253,8.843,8.843,0,0,0-1.248.267c-.66.127-.716.633-1.052.789s-.926.775-.645.83.139.227.182.409-.211.226-.534.169-1.458-.042-1.444.2.66.351.617.478-.492-.014-.715-.14-.731-.056-.829.183-.491.183-.617.127-.407.113-.617.043.421-.381.267-.535-.829-.014-.9.239-.478-.183-.631-.1a6.166,6.166,0,0,1-.618.31c-.295.127-.8-.14-.912.085s.562.295.576.394-1.529.084-1.572.239-.562.155-1.193.169-.379.324-.884.422-.729.113-.9.366a.487.487,0,0,1-.73.1c-.127.155-.365.409-.519.352-.1.212.029.421-.1.577s-.674-.182-.814-.042.267.324.519.295a.367.367,0,0,1,.421.324c.028.183-.589-.113-.716.043.632.281.435.38.674.591.19.221-.082.282-.055.45-.267-.084-1.011-.141-1.165.043-.631-.014-1.165.2-1.853.226a15.758,15.758,0,0,0-2.455.212c-.351.127-.646.618-.322.943s.014.464.014.676.842.647,1.291.69.814.591.547.929-1.08-.1-1.613-.52a4.2,4.2,0,0,0-2.175-.563c-.407.028-.168-.366-.687-.353s-.954.48-.6.48c.211.31.492.267.912.45s-.35.436-.785.141a.736.736,0,0,0-1.025.212c-.126.225.505.873,1.263.985s.505.351.856.478c-.379.3-.856-.084-1.234-.281s-1.4.085-1.613-.141.141-.449-.056-.618-.028-.549.225-.944a.9.9,0,0,0-.406-1.182c-.365-.113-.337.267-.253.38a1.173,1.173,0,0,1-.238,1c-.281.352-1.137.352-1.137.592s-.575.422-.379.592a7.5,7.5,0,0,1,1.08,1.309c.113.267-.687,1.112-.561,1.6s-.113.718.042.958.505.028.73.127.59-.141,1.109-.239,1.473.451,1.823.619.169.45.352.732-.421.282-.436.7,1.052.606,1.095.732-.758.028-1.066-.085-.337-.52-.435-.6.211-.422.238-.691-.35-.422-.477-.605-.35-.45-.6-.394a4.2,4.2,0,0,0-1.459.394c-.281.253.042.972.2,1.324s-.815.844-.786,1.126-.295.409-.715.634-.884.394-.87.76-.561.169-.856,0-.674.1-1.095.084-.42-.366-.758-.24a.328.328,0,0,1-.463-.408.888.888,0,0,0,1.052.07c.281-.154.14.2.547.226.8-.155.814-.253.716-.409s.225-.267.42-.352c.221-.094.113-.408.295-.507.449-.323.533-.619.716-.619s.281-.3.168-.451.07-.577.252-.633c-.14-.479-.758-.9-.715-1.168s-.113-.76-.029-.972a2.436,2.436,0,0,0-.014-.9,5.678,5.678,0,0,1,.239-1c.084-.464-.491-.958-.771-1.084s-.1-.38.308-.717.435-1.394.408-1.62-.857-.421-1.179-.394a12.694,12.694,0,0,1-1.809-.085c-.295-.056-.394.253-.534.535a6.569,6.569,0,0,0-.631,1.352c-.182.634-.926.831-1.263.971s-.547.605-.393.831c.687.211.519.8.42.887s.183.3-.055.45-.463.48-.323.648.828.253,1.123.422.182.479.407.775.463.113.575.295-.406.916-.589.944-.926-.746-1.15-.915-1.094-.436-1.529-.662a8.252,8.252,0,0,1-1.262-.52,2.612,2.612,0,0,0-1.755-.465c-.869.014-1.431-.2-1.726-.155s-.182-.295-.7-.52-.857-.535-1.151-.38-.182.718.267.788.225.311.7.282.617.141.6.436a1.152,1.152,0,0,0,.435.788c.21.2.084.52-.295.52s-.814.057-.645.324c-.87.056-.646-.211-.492-.366s-.337-.352-.576-.436-1.192.619-1.459.732-.926-.169-1.6,0-.631.7-.884.648-1,.069-1.277-.1c.533-.239.631-.338.463-.535s.225-.507.211-.648-1.108.226-1.291.38.014.437-.182.535a3.261,3.261,0,0,0-2.6.395c-.31.352-.912.366-.912.563s-.745.183-1.039.324-.1.718-.211,1-1.263.2-1.613.211-.478-.676-.758-.718-.113-.436-.029-.6.309-.029.66-.253.7.112.842-.043-.533-.564-.576-.915-.785-.451-1.207-.338a1.806,1.806,0,0,1-1.178-.127c.6.479.379.816.449,1.028a1.64,1.64,0,0,1-.365,1.056c-.253.366-.07.352.309.338s.351.479.351.844-.295.465-.295.733c-.505.1-.632-.071-.687-.3s-.631-.1-.954-.184-.449.057-.6.3a1.282,1.282,0,0,1-.842.367c-.265.031-.66.493-.912.662s-.295.492.056.83.421.563.394.746-.982.127-1.136-.07a1.428,1.428,0,0,0-.982-.226c-.211.043-.785-.633-1.08-.647s-.478.351-.576.534.14.239.281.549.659.324.926.324.168.409.084.577-.576.3-.715.113-.73,0-.744-.226a.79.79,0,0,0-.87-.493c-.434.07-.518-.211-.491-.549s-.238-.534-.224-.69-.2-.465.028-.619.056-.395.07-.605-.379-.535-.73-.535-.28-.352-.575-.422a1.844,1.844,0,0,1-.926-.774,8.566,8.566,0,0,0,1.74.535c.66.084.926.394,1.655.52s1.165.211,2.218.366a4.264,4.264,0,0,0,2.751-1.211c.295-.3-.085-.9-.085-1.127s-.477-.253-.547-.421a.923.923,0,0,0-.786-.479c-.407,0-.463-.465-.786-.436s-.547-.141-1.389-.7a4.675,4.675,0,0,0-2.217-.873c-.631-.267-.954-.239-1.179-.07s-.449-.155-.869-.056-.646-.183-.533-.31.729-.014.7-.225-.252,0-.631-.254-.59-.084-.674.127a2.338,2.338,0,0,1-.64-.073c-.226-.142-.655-.161-.707.031-.408-.253-1.01-.422-1.039-.521.7.169.857.084,1.109-.154s.6-.043.645-.253-.406-.353-.491-.48a.8.8,0,0,0-.716-.239c-.309.056-.322-.07-.505-.239s-.743.113-.743.507c-.1-.127-.393-.38-.112-.451s.126-.492-.394-.534-.715.394-.589.534-.351.747-.562.747.028-.52.014-.8-.21-.127-.6.324-.687.859-.912.9-.2-.409.169-.605.379-.732.616-.732c-.463-.45-.518-.056-.631.056s-.687-.2-.674-.084c-.028.577-.237.76-.379.507s-.491-.056-.659.225-.394.267-.225.367a.325.325,0,0,1-.1.549c-.252.07-.154-.691-.35-.62.462-.366.729-.76.7-.859a1.456,1.456,0,0,1-1.109.239c-.35-.014-.336.409.056.633a2.7,2.7,0,0,0-.982.212c-.211.1.505.352.534.479-.534.043-.927-.127-.954-.366a5.884,5.884,0,0,1-.085.8.536.536,0,0,0-.855-.239c-.282.168.042-.31-.071-.549s-.365,0-.66.056c-.084.465-.112.746-.35.7-.281.451-.617.465-.646.268s-.505-.141-.645.084-.534.395-.492.648.351-.127.6-.043c.267.465.238.774.042.592-.533.351-.744.014-.912-.2s-.337.395-.519.253.364-.577.225-.788-.239.127-.561.45-.758.31-.6.464-.323.24-.407.507-.743.366-1.164.648c.562-.239.646-.085,1.025-.324s.785-.436.926-.337c.743-.338.968-.282,1.15-.127s-.309.281-.084.507c-.267-.042-.548-.212-.646-.029s-.267.38-.449.395-.379.352-.379.69a8.546,8.546,0,0,1-1.221,1.492c-.393.381-.028.465-.154.7s-.589.029-.743.127.084.69-.127.874,0,.436,0,.647-.547-.127-.589.084-.519.155-.66.212.281.394.534.591c-.352-.1-.7.268-1.136.465s-.253.592-.59.605-.239.549-.463.717-.169-.394-.52-.408-.322.239-.112.534-.322.071-.519.324-.758.127-.912.337.42.212.505.381-.505.084-.814.014-.224.395-.505.337-.631.239-.434.437a.682.682,0,0,0-.786.52c-.07.239.379.366.365.479.14.409-.042.633-.21.7s-.169.24,0,.451-.3.253-.071.577a.776.776,0,0,0,1.165-.1c-.084.281-.379.436-.323.69-.365-.409-.9-.043-.7.183s-.069.352-.069.563c.687-.31.94-.253,1.038-.014s-.238.056-.238.38-.211.042-.394.3.716.718,1,.788.547.381,1.108.3a4.895,4.895,0,0,0,1.768-1.309c.141-.183.45.029.66-.141s.084-.606.239-.69.237.464.379.52.219.151.224.432a1.218,1.218,0,0,0,.421,1.046c.309.253.07.634.337.985s.182.606.476.86.323.394.2.717.253.239.267.436-.084.605.014.8.295,0,.744-.014.337-.295.351-.563a.854.854,0,0,1,1.08-.38c.322.14.491-.1.547-.436.435.211.73-.381.87-.761-.66.422-.477-.31-.35-.605a8.4,8.4,0,0,0,.154-1.351.651.651,0,0,1,.533-.577c.406-.085.94-.592.856-.8s.561-.563.561-.775-.674-.859-.9-1-.715-.029-.674-.183a4.708,4.708,0,0,0-.112-1.07c-.056-.31.35-.633.35-.929s-.014-.633.252-.732.1-.351.449-.436.281-.592.66-.746.406-.282.9-.52a4.366,4.366,0,0,0,1.459-1.1c.141-.3-.5-.606-.1-.916s.07-.662.365-.774a1.513,1.513,0,0,0,.617-.493c.211-.226.491-.014,1-.1a3.373,3.373,0,0,1,1.277.338c.379.169.322.436.337.732-.365.211-.576.337-.688.76a1.518,1.518,0,0,1-.968.958c-.322.028-.295.365-.561.436s-.519.225-.505.52-.392.324-.66.324-.21.478-.42.6-.168.3.029.549.028.479.1.662a1.245,1.245,0,0,1,.169,1.07c-.211.465-.435,1.043-.253.986s.6.38.884.352.309.394.576.309.266.254,1.039.226,2.328-.677,2.946-.677a3.511,3.511,0,0,0,.85-.1,3.966,3.966,0,0,1,.455-.58,3.936,3.936,0,0,0-.453.579c.621-.255.775.294,1,.478s.674.014.828.182a3.9,3.9,0,0,0-1.361.436c-.377.127-.34.261-.467.367-.615.211-1.5-.183-2-.085s-1.529.1-1.768.352-.842.324-.575.549,0,.337.2.605.295.38.562.324.477.084.2.38-.084.516-.1.958-.505.366-.772.366-.7-.8-.842-.985-.59.226-.913.421-.154.578-.379.761a.664.664,0,0,0-.14.9.96.96,0,0,1-.069,1.083,1.335,1.335,0,0,0,.2.409c.126.226-.505.253-.309.52-.449-.281-1.123-.141-1.094.042-.14.365-.314.493-.576.493-.407,0-.435-.409-.449-.591s-1.641.155-2.077.591-1.445.267-1.473.508a2.511,2.511,0,0,0-.911-.212c-.366,0,.224-.366.083-.549s-.5.338-.842.226-.772.395-1.065.619-.716-.043-.492-.366c-.674-.043-1.081-.2-1.039-.507-.179-.422-.456-.585-.435-.732.687.267,1.123.3,1.165.084.026-.129-.07-.731-.336-.591-.534-.2-.239-.422-.169-.648s.533-.14.6-.324-.309-.38-.449-.451a.525.525,0,0,1-.029-.661.792.792,0,0,0,.1-.817c-.139-.141-.646,0-.687.38s-.449.212-.562.3.224.253.042.422-.252-.253-.547-.281-.323.45-.477.69a1.877,1.877,0,0,0,0,1.084c.056.337.463.549.364.83-.045.131.046.278.145.421.112.165.232.325.164.451-.127.24.07.465.252.816s-.393.155-.408.381-.532-.014-.7-.1-.73-.028-.715.113a7.832,7.832,0,0,1-1.221.324c-.421.085-.547.494-.394.662-.491-.2-.911-.043-.883.253s-.464.409-.435.775-.449.7-.758.886a2.676,2.676,0,0,1-.782.36c-.552.007-.846.275-.789.838s-.407.619-.983.662-.379.493-.617.676a1.14,1.14,0,0,1-1.193-.409c-.112-.309-.87,0-.547.366s.309.873.127,1.013-.576-.225-.828-.042-.267-.169-.576-.281-.435.14-.926.1-.772.239-.589.451-.028.408.112.591.786.154,1.263.408.589.042.828.227.295.069.309.422a.927.927,0,0,0,.744.816c.463.127.113.436.252.746s-.21.76-.14,1.141a3.029,3.029,0,0,1-.449,1.717c-.341.067-1.159-.235-1.7-.169-.575.071-2.413-.084-3.129-.027s-.758-.3-1.15-.3-.225.478-.786.492-.617.367-.211.691c.233.185.2.574.171.931a1.276,1.276,0,0,0,.026.646,3.78,3.78,0,0,1-.59,2.28c-.365.422-.014.535.366.831s.126,1.365.126,1.619.337.183.73.183a5.024,5.024,0,0,0,.758-.15c.9.22,1.124,1.2,1.655,1.135a.723.723,0,0,1,.772-.337c.225,0,.336-.324.87-.338s.87-.056,1.207-.043.6-.1.688-.337a.9.9,0,0,1,.744-.507c.379-.056.322-.451.35-.676s.66-.564.7-.733-.365-.816.014-1.394.785-.6.785-.929c0-.3.393-.408.87-.464s.631-.381,1.038-.549a.634.634,0,0,0,.394-.8.845.845,0,0,1,.728-1.189,3.9,3.9,0,0,1,1.741.38c.266.169.631.127,1.094-.365a1.257,1.257,0,0,1,.6-.389c.752-.287.626-.555,1.116-.7a1.445,1.445,0,0,1,1.333.563c.2.3.253.324.295.564a1.828,1.828,0,0,0,.9,1.154c.674.437.941.929,1.291,1.112s.7.141.912.395a2.2,2.2,0,0,0,.828.549c.336.155.351.52.673.563s.113.324.309.563a.943.943,0,0,1,.042,1.028c-.211.282-.1.761.042.761s.435-.507.477-.788.323-.268.547-.563-.336-.367-.434-.747.421-.717.911-.409.688.521.716.043-1.515-1.112-1.879-1.337-.127-.592-.7-.564-1.263-.69-1.473-1.521-1.109-.873-1.333-1.365.211-.549.015-.958c-.11-.227.133-.427.418-.542a.98.98,0,0,1,.606-.077c.195.476.183.69.336.69.252,0,.716-.029.73.309a3.75,3.75,0,0,0,.842,1.338c.223.254.73.2.758.409s.393.408.814.436a3.837,3.837,0,0,1,.886.528,4.979,4.979,0,0,0,.672.5c.418.224.563.364.308.619a1.284,1.284,0,0,0-.028,1.408c.28.228.36.68.632.81a.817.817,0,0,1,.546.838c-.042.352.449.479.674.226s.856.14.856.31-.645-.183-1.01.084.281.52.2.8a.544.544,0,0,0,.491.662c.323-.014.687.52.884.422s-.238-.845-.168-.958.463.2.659-.028-.139-.395-.434-.381a1.807,1.807,0,0,0,1.024-.267c.168-.028.211-.633-.309-.774s-.449.38-.786.028.309-.212.309-.507-.519-.718-.773-1.07.351-.52.492-.267.519.212.758.113-.252-.549.182-.718.435.127.576.183.266-.352.716-.352a1.152,1.152,0,0,1,.64.306,1.019,1.019,0,0,0,.552.272c.394,0,.547-.422.884-.549s1.094.043,1.277-.127-.478-.38-.715-.578a.965.965,0,0,1-.235-.495c-.286-.251-.523-.9-.327-.941s.449-.718.758-.816a1.035,1.035,0,0,0,.2-.7c.014-.3.183-.746.478-.775s.533-.028.491-.52.056-.461.449-.76.449-.887.814-.958a2.128,2.128,0,0,1,1.052-.155c.533.084-.266.422.1.619s1.488-.055,1.543.226-1.291.564-1.262.7.715.281.954.435-.07.592.042.733.477.028.772-.184.533-.141.912-.394,1.164-.028,1.263-.182-.225-.311-.954-.254a.7.7,0,0,1-.772-.775,2.107,2.107,0,0,1,1.193-.76,3.525,3.525,0,0,0,1.207-.366,3.715,3.715,0,0,1,.772-.217c.454-.088.918-.123.968-.022.084.169-.982.62-1.179.69s.379.366.365.535-.617.212-.562.549-.2.409-.518.409c-.1.253-.113.676.492.83a4.25,4.25,0,0,1,1.768,1.281c.8.518,1.6.433,1.712,1.014.126.676.5.408.364.985a2.539,2.539,0,0,1-1.978.915,6.7,6.7,0,0,0-1.656.042c-.547,0-.7-.395-1.123-.366s-.42-.381-.842-.381-.1-.211-1.416-.38a3.926,3.926,0,0,0-2.877.887c-.42.366-1.936.014-2.076.113s.028.534-.478.732-1.613,0-1.992.168-.518.732-.2.7c.295.408.66.8.477.972a.435.435,0,0,0,.029.661c.225.169.266.479,0,.521s.463.352.477.493.617.211.617.38a1.142,1.142,0,0,1,1.066.746c.182.282,1.221.085,1.221-.225s.309-.395.772-.352,1.067.676,1.292.76.687-.169.981-.169.716-.464.884-.563.463.324.73.183.561-.3.729-.2-.407.535-.252.761c-.018.5-.086.677.014.8.149.186-.03.4-.074.7a6,6,0,0,1-.714,1.553,1.774,1.774,0,0,0-.152.446,5.945,5.945,0,0,1-.749,1.694c-.219.262-.682-.019-1.116.093a1.612,1.612,0,0,1-1.194-.253,2.709,2.709,0,0,0-1.978.324c-.182.268-.645.268-1.066.1a5.645,5.645,0,0,0-1.739-.493,2.792,2.792,0,0,1-1.433-.344c-.1-.234-.476-.248-1.3-.374s-.52-.69-1.446-.746-2.1.69-2.119,1.083.435.831.127,1.24a1,1,0,0,1-1.46.014,2.691,2.691,0,0,0-1.753-.633c-.576,0-.983-.367-.941-.676s-.14-.451-.617-.549-.884-.494-1.726-.352a1.541,1.541,0,0,1-1.094-.229c-.227-.147-.365-.319-.365-.4,0-.183-.252-.493-.393-.324s-.674.029-.744-.324.35-.338.744-.662a.826.826,0,0,0,.028-1.281c-.421-.338-.127-.52.168-.83-.281-.2-.532-.155-.575-.493s-.954-.395-1.3-.071a2.831,2.831,0,0,1-1.4-.028,5.624,5.624,0,0,0-.968.1c-.309.014-1.066.507-1.319.267s-2.835.183-3.564.211-1.039.789-1.474.789a2.444,2.444,0,0,0-1.487.775,3.514,3.514,0,0,1-1.46-.1c-.492-.014-1.249.24-1.613-.169s-.617-.534-.884-.408-.758,1.534-1.038,1.942a2.155,2.155,0,0,1-1.445.69c-.379,0-.421.577-.716.816s-.182.62-.533.9-.182,1.14,0,1.45-.645,1.28-1.122,1.562-.632.817-1.39.943a1.288,1.288,0,0,0-.687.338,2.247,2.247,0,0,0-.52.874c-.168.449-1.221,1.111-1.263,1.745s-1.025,1.619-1.67,2.97a2.671,2.671,0,0,0-.279.9c-.054.613.319.83.531,1.075.295.337-.224.929.211,1.534s-.1,1.535-.309,1.873a2.293,2.293,0,0,0-.162.828,1.709,1.709,0,0,1-.217.763c-.308.465.127,1.141.351,1.351a2.16,2.16,0,0,1-.067.753.531.531,0,0,0,.108.444c.336.415.368.566.857.7.547.155-.042.437.407.718.433.342.4.635.786.915a3.2,3.2,0,0,1,1.068,1.169c.363,1.125.573,1.28.9,1.547a9.144,9.144,0,0,0,.759.511c.4.251.858.543,1.233.826a12.493,12.493,0,0,0,2.217,1.394,17.855,17.855,0,0,0,3.032-.578,4.082,4.082,0,0,1,1.841.108c.382.111.634.239.711.259a8.949,8.949,0,0,0,1.838-.747c.382-.191.807-.312,1.1-.467a1.664,1.664,0,0,1,.724-.335,3.523,3.523,0,0,1,.634-.057c.3,0,.484-.4.65-.206.179.235.978.277,1.426.375a1.4,1.4,0,0,1,.9.972,1.239,1.239,0,0,0,.505.816c.21.113.729-.211.967-.211a3.365,3.365,0,0,0,1.263-.14c.276.069.409.322.547.52.2.282.575.07.73.155a1.4,1.4,0,0,1,.266.929c-.053.176-.285.623-.179.845a.418.418,0,0,1-.213.647c.1.389.07.509-.006.63-.288.327.133.5.2.679s-.533.127-.52.395a.781.781,0,0,1-.379.605c-.168.127.45.662.464.845s.154.351.687.873c.509.5.266.624.939,1.173a2.969,2.969,0,0,1,.913,1.084,4.7,4.7,0,0,1,.337,1.051,14.249,14.249,0,0,0,.856,2.084c.127.268-.154.507-.154,1s.533,1.394.589,2a1.845,1.845,0,0,1-.673,1.38,3.507,3.507,0,0,0-.687,1.829c0,.549-.505,1.084-.492,1.338a8.121,8.121,0,0,1-.126,1.281,2.308,2.308,0,0,0,.533,1.281,7.354,7.354,0,0,1,.926,1.943c.211.69.814,1.463.968,1.986s-.112,1.266.042,1.6a6.412,6.412,0,0,1,.337,1.492c.084.577.126,1.8.646,2.309a4.261,4.261,0,0,1,.589.76,6.648,6.648,0,0,1,.716,1.521c.225.746.771,1.45.911,1.886s.295.845,0,.887-.295.3.014.775.042.76.31.816a1.8,1.8,0,0,1,.9.647.39.39,0,0,0,.618-.042c.154-.226.631-.3,1.122-.3s.394-.211.87-.352a2.58,2.58,0,0,1,1.459-.014,1,1,0,0,0,.913-.113c.2-.127.575.2.6-.127s.421-.267.786-.267a4.593,4.593,0,0,0,1.951-1.24A17.889,17.889,0,0,0,189.1-74.3a7.172,7.172,0,0,1,1.36-1.521,3.354,3.354,0,0,0,.447-1.568c.023-.192.037-.36.044-.474.028-.45-.281-.084-.379-.366s.687-.8,1.487-1.1,1.109-.465,1.193-.747-.014-1.07.1-1.38-.07-.492-.168-1.2-.352-.816-.463-1.211-.085-.7.153-.718.238-.127.435-.507.421-.225.8-.507.393-.634,1-1.1,1.263-.45,1.853-.8,1.6-1.732,1.5-1.986a6.534,6.534,0,0,1-.239-1.858c.056-.465-.084-1.69-.084-2.28-.03-.578-.645-.336-.674-.9s-.364-.578-.35-.972.042-.746-.1-.789-.055-.38.169-.717-.407-.381-.505-.8a4.535,4.535,0,0,1,.419-1.447,20.016,20.016,0,0,1,.929-2.072c.21-.324.42-.267.6-.493s.238.113.519-.338c.452-.614,1.451-1.571,2.189-2.351a4.968,4.968,0,0,1,1.655-1.266,11.312,11.312,0,0,0,2.358-2.323,5.422,5.422,0,0,0,1.095-1.76,4.1,4.1,0,0,1,.856-1.478,5.271,5.271,0,0,0,.883-1.887c-.014-.338.281-1.057.323-1.661s-.463-.662-.618-.324-1.36.564-2.133.578a2.236,2.236,0,0,0-1.515.351c-.281.268-.982-.069-1.234.226s-1.249.548-1.572-.128a1.2,1.2,0,0,0-.487-.543c-.236-.138-.452-.161-.509-.217-.1-.1.281-.38.547-.437s.14-.365-.084-.563a10.626,10.626,0,0,1-1.136-1.253,2.476,2.476,0,0,0-1.5-1.042c-.336,0-.393-.578-.6-.605s-.687-.859-.7-1.394a2.131,2.131,0,0,0-.532-1.058,2.156,2.156,0,0,0-.59-.546c-.337-.154-.562-.746-.562-1.492a8.453,8.453,0,0,0-.211-1.577,1.8,1.8,0,0,0-.828-.986.993.993,0,0,1-.529-.715c.067-.833-.242-.805-.438-1.439s-.983-1.576-1.011-1.942-.463-.577-.449-.972-.211-.436-.645-1.057a2.524,2.524,0,0,1-.435-1.745c.126-.042.491.915.631,1.225s.617,1.254.955,1.254.463-1.422.576-1.352c.089.24-.009,1.062.182,1.126.211.07.322.45.772.944a7.789,7.789,0,0,1,1.375,2.139,1.338,1.338,0,0,0,.73,1.056c.561.381.561.845.856,1.07s.225.493.238,1.057a2.018,2.018,0,0,0,.772,1.6,2.407,2.407,0,0,1,1.094,1.253,4.408,4.408,0,0,0,.869,1.45c.323.324.141.492.323.732a2.618,2.618,0,0,1,.312.553.91.91,0,0,1,.08.587,2.152,2.152,0,0,0,.281,1.521c.294.436.182,1.239.322,1.394a2.32,2.32,0,0,0,1.726-.2,1.985,1.985,0,0,1,1.221-.38,1.687,1.687,0,0,0,1.038-.507c.127-.169.7-.183.941-.154s.477-.239.743-.507a7.7,7.7,0,0,1,2.007-.662c.9-.282.7-.7.912-.958.176-.212.423-.151.811-.307a4.757,4.757,0,0,1,1.784-.383c.407-.113.014-.451.365-.747s.856-.069,1.038-.168.31-.746.618-.873.645-.043.6-.311.028-1.225.322-1.281.758-.366.771-.535a10.89,10.89,0,0,1,.786-1.111c.182-.31.2-.479-.07-.521s-.687-.788-.8-1-.927-.071-1.587-.592a1.831,1.831,0,0,1-.511-1.011c-.139-.587-.16-1.177-.26-1.185-.169-.014-.857.732-1.137,1.281a1.806,1.806,0,0,1-1.8.845,1.18,1.18,0,0,0-1.124.3,1.043,1.043,0,0,1-.593-.665c.2-.574.313-1.377-.093-1.49s-.632.7-.632.93c-.254-.116-.747-.818-.576-1.014.211-.239-.111-.746-.42-1.028s-.94-.8-.968-1.126a1.817,1.817,0,0,0-.119-.4,9.709,9.709,0,0,1-.456-1.2.879.879,0,0,1,.5-.383c.483-.04.469-.321.665-.153s.463-.014.66-.028.729,1,.968,1.492.224.662.547.873.687.1,1.15.578a4.174,4.174,0,0,0,2.16.83c.505.029.884-.549,1.53-.422s.491.958.729,1.254,2.863.493,3.312.619a5.357,5.357,0,0,0,.994.086,5.613,5.613,0,0,0,1.769-.128.638.638,0,0,1,.73-.113,2.268,2.268,0,0,0,1.529-.014c.461-.257.744,0,.758.226s.225.324.435.52.056.422.2.648.42.183.828.366c.434.318.553.719,1.024.9.547.211,1.039-.352,1.039.056s-1.291.324-1.319.45,1.332,1.774,2.021,1.647,1.192-.873,1-.986.113-.576.295-.492.029.816.238.985.14.478,0,.873.14,1.168.183,1.606.336,1.07.435,1.717a10.068,10.068,0,0,0,.883,2.549c.379.718.674,2.126.926,2.463a4.61,4.61,0,0,1,.9,2,2.9,2.9,0,0,0,.927,1.689c.238.169.758-.2.883-.592s.842-.548.884-.886.112-.605.364-.647.253-.31.253-.676a2.057,2.057,0,0,1,.281-1.211,2.058,2.058,0,0,0,.14-1.548,1.684,1.684,0,0,1,.069-1.2c.14-.352.084-.761.351-.789a1.562,1.562,0,0,0,.941-.648,9.766,9.766,0,0,1,1.444-1.154,9.4,9.4,0,0,0,1.53-1.549c.28-.464,1.08-.619,1.445-1s.224-.577.295-.985,1.248-.577,1.7-.577c.5-.074.625-.2.87-.2.308,0,.729-.042.758-.366s.379-.563.575-.465a2.312,2.312,0,0,1,.505,1.3,1.287,1.287,0,0,0,.148.481,1.978,1.978,0,0,0,.89.941c.548.226.913,1.338,1.081,1.928a2.1,2.1,0,0,1-.14,1.535c-.2.337.07.352.393.52s.687.226.926-.113.73-.577.8-.957.295.183.492.38a1.756,1.756,0,0,1,.379,1.056c.042.479.084,1.675.491,2.056a1.728,1.728,0,0,1,.365,1.506c-.112.3.211.8.126,1.127-.134.668-.232,1.312-.322,1.661-.112.436-.2.816.056.845s.758.6,1.248,1.225a2.22,2.22,0,0,1,.285.471,3.725,3.725,0,0,1,.262,1.459c.015.562.843,1.463.968,1.829s.365.479.912.874,1.614,1.027,1.824.929-.322-1.028-.631-1.351-.028-1.2-.014-1.831-.589-.563-.729-1-.379-.184-.463-.465a1.752,1.752,0,0,0-1.165-.775c-.477-.043-.7-.761-.66-1.083s-.35-.606-.35-.887-.281-.3-.6-.45.069-1.112.112-1.521.715-1.577.519-1.943.687-.647.8-.239.153.605.715.577.561.409,1.01.536c.424.187.284.634.322.886s.394.112.589.1-.127.31.043.507.66-.169.758.07a1.338,1.338,0,0,0,.5.464c.225.141-.28.381-.266.831s.35.563.477.38a2.8,2.8,0,0,1,.856-.662c.211-.07,0-.38.225-.366s.154-.324.252-.507.252-.113.589-.1a2.953,2.953,0,0,0,1.291-.62c.477-.309.561-.38.743-1.266a6.185,6.185,0,0,0-.224-2.21c-.014-.268-.66-1.507-.9-1.493s-1.333-1.112-1.53-1.3-.139-.493-.42-.732a1.585,1.585,0,0,1-.238-1.3c.07-.437.688-.535.674-.831s.056-.549.364-.563a1.034,1.034,0,0,0,.744-.493c.262-.159.589-.009.66-.225.646.238.785.281,1.066.028s.421.253.253.395-.056.576.21.83.309-.154.253-.409.449-.507,1.332-.8a4.679,4.679,0,0,0,1.853-1.084c.014-.14.631.254.926.029a4.54,4.54,0,0,1,1.642-.268c.281-.014.266-.253.561-.492s.225-.353.561-.451a.756.756,0,0,0,.547-.578c0-.168.632-.225.646-.408s.477-.239.477-.464.281-.184.407-.353-.1-.661.127-.731-.084-.338-.127-.465.421-.155.659-.31a.965.965,0,0,0,.435-.662c.043-.267.435-.507.617-.578s.253-.449.2-.774a.885.885,0,0,1,.561-.943c-.575.028-.771-.521-.94-.311-.029-.267.449-.618.66-.69s-.309-.535-.576-.52-.561-.619-.842-.619c.856.14,1.234.282,1.375.14s-.547-.7-.8-.9-.015-.464-.168-.577a4.155,4.155,0,0,1-.6-1.155c-.112-.324-.7-.38-.842-.592s.015-.7.449-.887.253-.549.449-.507.365-.043.519-.367.421-.127.576-.295.842-.155,1.08-.324-.225-.69-.548-.606a.858.858,0,0,1-.926-.38c-.225-.337-.813.62-1.263.831s-.743-.38-.589-.76-.351-.367-.982-.338-.393-1.127-.014-1.182.94.351,1.179-.352.575-.155,1.108-.775,1.15-1,1.613-.633-.491.944-.645,1.3.14.465-.14.732.112.337.659-.014a11.726,11.726,0,0,1,1.755-.985,1.829,1.829,0,0,1,1.543.479c.267.337-.309.717-.562,1.027s.155.324.169.578.351.464.478.239.336-.141.729-.141c.332.308.311.614.518.633a.208.208,0,1,1-.055.409c-.323-.07-.323.436-.042.874s-.534.929-.309,1.154.042.494.14.634a2.332,2.332,0,0,0,1.81-.592c.519-.535.66-.464.926-.394s.534-.2.393-.409a2.485,2.485,0,0,1-.252-1.38c.025-.376-.487-1.057-.982-1.6a5.841,5.841,0,0,0-.842-.793c-.322-.2-.126-.747.266-.845a11.213,11.213,0,0,0,1.657-1.014c.295-.168.1-.717.336-1.155a5.058,5.058,0,0,1,1.056-1.027,2.905,2.905,0,0,1,1.02-.606c.352,0,.7.6,1.095.618a5.907,5.907,0,0,0,2.189-1.379,12.429,12.429,0,0,1,1.543-1.718,7.823,7.823,0,0,0,1.39-1.872,15.8,15.8,0,0,1,1.01-1.351,5.307,5.307,0,0,0,.59-.972,17.387,17.387,0,0,0,.406-2.507c.1-.112.041-.408.183-.591s.069-.436.35-.676a.486.486,0,0,0,.154-.634c-.07-.182.014-.591-.056-.717.281-.38,0-.634-.238-.746s-.547-.211-.575-.479a.79.79,0,0,0-.745-.563c-.308.028-.883-.169-.813.028a2.338,2.338,0,0,0-.59.69c-.238-.226-.631-.24-.576-.521-.35-.2-.35.239-.616.3s-.183-.76-.113-.971-.492.014-1.081-.029-.434-.45.042-.7.394-.493.631-.592.857-.507,1.221-.718a1.062,1.062,0,0,0,.52-.69c.084-.239.758-.535,1.36-1.027a3.664,3.664,0,0,0,1.039-1.07c.14-.3,1.038-.662,1.052-.887s1.066-.788,1.782-.929a3.494,3.494,0,0,1,2.062.253,3.052,3.052,0,0,1,1.375-.028c.477.056.59-.226.912-.127s.59.154.786-.226,1.124-.31,1.333-.154.379.365.716.141.336.3.659.338c-.448.267-.8.435-.477.619s.7-.169.955-.141a1.473,1.473,0,0,0,.995-.169c.351-.225.45.184.674-.014a1.654,1.654,0,0,1,.983-.239c-.8-.3-.786-.52-.449-1.1a5.4,5.4,0,0,1,1.389-1.239c.406-.351.7-.182.7-.409s.2-.858.505-.872a3.459,3.459,0,0,0,1.558-.141c.477-.267.434.2.631.268s.463-.409.687-.268-.337.479-.463.887.295.253.533.367-.309.281-.252.394.532.113,1.15-.507a2.025,2.025,0,0,1,1.571-.745c.394.043.168-.352.2-.929s1.234-.747,1.628-.578a.983.983,0,0,0-.73.943c.014.479-.337.633-.154.817s-.267.225-.281.422,0,.351-.281.436-1.22.182-1.248.549-.533.409-.773.858-1.15.718-1.753,1.619-1.558.9-1.558,1.071-.66.154-.883.182.21.578-.323,1.155a3.22,3.22,0,0,0-.87,2.182,15.06,15.06,0,0,0,.52,3.52c.238.409.1,1.408.294,1.619s.127.563.253.69.645-.563,1-.859.238-.394.477-.549.14-.8.211-.972.505-.253.645-.435.505-.071.7-.141-.015-.534-.084-.8.575-.634.911-.873.758.154,1.136-.2-.027-.76-.168-.943.379-1.07.673-1.155.449.211.73-.043-.252-.661-.449-.633-.266-.718.2-1.069.28-.422-.029-.508-.365.029-.6.043-.477-.493-.112-.985.715-.436.8-.845a4.725,4.725,0,0,1,.716-1.2c.126-.211.631,0,.828-.042.6-.043,1-.746,1.318-.746s.113.52.2.83.266-.084.884-.507a3.228,3.228,0,0,1,2.371-.183c.407.2.477.662.7.605.342-.085.056-.465.393-.563a5.861,5.861,0,0,0,1.375-.775c.45-.323.323-.084.562-.38s.477-.169.547-.366a2.837,2.837,0,0,1,1.6-.718c.884-.2,2.035-.788,1.978-.972.421.1.758.029,1.221.127s.674.282,1.039-.084-.042-.493-.028-.774-.632-.578-.548-.874-.477-1.084-.645-.929-.562-.127-.562-.352c-.561-.154-1.01-.239-1.094-.493s.519-.436.94-.267.294.338.5.465a1.538,1.538,0,0,0,1.08-.071c.295-.141,1.123-.409,1.263-.647s-.014-.352.267-.493.069-.436-.169-.563a.241.241,0,0,1,.07-.465c.519-.324.547-.183.856-.338s.014.239-.127.508.295.492.337.647.645.212.981.029a1.692,1.692,0,0,1,1.488.492,1.208,1.208,0,0,0,.674.817c.449.226.856.127.94.338a.405.405,0,0,0,.505.267c.758-.113.856.155,1.095-.056s-.52-.352-.421-.521c.674.1.407-.31.561-.351s.029-.887-.14-.944A6.2,6.2,0,0,0,339.6-177.54ZM294.586-153.9c.225.451-.365,2.444-.168,2.675.336.395.112-.535.617-.619s.5.563.814.7.112-.9-.168-.845-.505-.676-.646-1.126.281-.985.281-1.548.7-.535,1.123-.113.477.14.309-.169-.7-2.561-1.011-3.379.449-1.6-.112-2.027-.337-1.3-.617-1.126,0,.929-.449.985-.029.478-.2,1.042a3.144,3.144,0,0,0,.308,1.886C294.895-157.057,294.362-154.353,294.586-153.9Zm-80.229-51.442c-.561,0-.854.318-.561.563a2.431,2.431,0,0,0,2.076-.169c.253-.337.9-.056,1.011-.394s-1.908-.479-1.824-.253S214.919-205.345,214.357-205.345Zm88.816,11.206c.028-.281-1.179-.7-1.544-.479s-.645-.366-1.094-.225-1.066.112-1.292-.282-.981.619-.645.647c.674.057,1.01.7,2.3.789S303.145-193.857,303.173-194.139Zm-12.319.31c.224.226,1.066-.113,1.4-.226s.365.507.9.169,1.066-.169,1.684-.169-.113-.76-.085-1.1.73-.112.505.169.337.929,1.234.873.225-.619.674-.816.393-.422-.252-.816-1.488-.141-2.049-.395c-.6-.27-1.318-.282-1.346.338s-1.207-.676-1.824-.874-2.528,1.759-1.6,2.225A2.487,2.487,0,0,1,290.854-193.829Zm-80.594-11.263c.253.084,1.179.31,1.179-.141S209.978-205.186,210.261-205.092Zm-2.217,21.315c.365-.056-.225-.45-.842-.619s-1.5.454-.926.985C207.034-182.706,207.68-183.721,208.044-183.777Zm48.35-16.725c.843.029,3.2-.648,3.284-1.1s-.869-.422-1.234-.816-1.179-.056-1.376.281-.42.029.113-.507-.533-.958-.561-.619-1.01.056-1.01.366-.365.451-.337.76-.674-.168-.7.535-1.088,1.115-.674,1.352C254.291-200.023,255.552-200.53,256.394-200.5Zm-40.549-6.983c.45.056,1.038.028.814-.253s-1.852-.169-1.684.056-1.319.141-1.292.225c.057.169.562.338,1.235.338S215.4-207.541,215.845-207.485Zm-9.4,1.266c.113-.281-1.207-.365-1.683-.112s-1.594.05-1.459.366a1.087,1.087,0,0,0,1.543.056C205.491-206.5,206.333-205.936,206.444-206.218Zm8.951-.365c.084-.592-.9-.113-1.627-.422s-1.16-.287-.674.141c.224.2-1.25.351-1.011.592C212.619-205.739,215.312-205.992,215.4-206.584Zm77.423,14.247c.336.114.9.056.9-.366S292.187-192.548,292.819-192.337Zm-80.762.958c.056.422-.87.14-.842.422s-.141.479-.674.479.253.337.309.647-.533.084-.561.564-1.039,0-1.178.618.5.535.954.564-.168.45.168.7.59.169.365-.31,1.178.169.758.535.674.648,1.207.676,2.425.443,2.469,0c.029-.281-.7-.535-1.29-1.155s-1.011-1.632-.337-2.055.084-.62.758-1.1.281-.929.842-.986-.055-.563.505-.647a.756.756,0,0,0,.589-.929c-.084-.226.589.029.9-.31s1.039-.113,1.263-.592,3.452-1.577,5.276-2,3.087-1.182,2.441-1.689-2.469.2-2.919.563-1.094.113-1.543.366a2.212,2.212,0,0,1-1.879.169c-.478-.31-1.039.366-1.4.337s-.785.366-1.178.338-1.18.31-1.235.535-.73.168-.73.45a.524.524,0,0,1-.814.281c-.28-.253-.617.282-.223.648s-.73.395-.534.619-.42.366-.28.619-.394.338-.814.422-.646.648-.112.676S212-191.8,212.057-191.379Zm82.67-.648c-.87-.141-1.679.578-1.572.733.253.366,2.3.563,2.806.45S295.6-191.886,294.726-192.027Zm-89.432-13.149c.168.337,1.571.366,1.571.084s.73-.029.758-.282.337-.534,1.123-.591.786-.338.056-.677-1.711.2-1.318.48-1.095.2-1.291.478S205.131-205.5,205.294-205.176Zm42.542.535c-.561,0-1.044.19-.674.337.281.113.252.422.842.563s1.179-.337,1.123-.676,2.048-.647,2.609-.788-.364-.732.253-.788.364-.338-.394-.451-.448-.76-.7-.985-.393.281-1.375.479-1.46.45-1.066.647,0,.676-.42.648-.505.422.027.647S248.4-204.641,247.836-204.641Zm-1.768-2.2c.169.141,1.15.253,1.263-.169S245.579-207.245,246.067-206.837Zm2.835,3.463c.225.2.42.14.7.2s.421.761.926.648,1.88.563,2.694.563.9-.676.645-.7-.028-.422.421-1.07-1.4-1.126-1.4-.619-.533-.113-.7-.422-2.637.253-2.637.563S248.644-203.6,248.9-203.374Zm82.36,16.754c.449.31,1.544-.141,1.992-.226s.225-.647-1.038-.816-2.9.767-2.3,1.07C330.477-186.311,330.813-186.93,331.262-186.62ZM235.516-190.2c.449.225.785.141.729-.311S235.16-190.375,235.516-190.2Zm-16.079-16.445c-.056-.253-1.628-.309-1.544-.027s-1.087.588-.729.872c.673.535,2.5-.084,2.693-.337S219.493-206.387,219.437-206.641Zm2.946-.449c-.561-.113-.645.337-.926.309s-1.341.178-1.123.422c.253.282,1.038.141,1.572.085C222.971-206.387,222.945-206.978,222.383-207.09Zm6.4,16.133c.113-.2-.393-.422-1.038-.422s-.736.712-.42.761A2.506,2.506,0,0,0,228.782-190.957Zm101.7,103.463c0-.36-1.34.4-.99.528C329.719-86.882,330.477-87.136,330.477-87.494Zm-1.2,1.351c.021-.613-1.413-.006-1.094.3C328.54-85.51,329.255-85.531,329.277-86.143ZM327.32-65.215a.542.542,0,0,1-.568-.57c0-.316-.084-.781-.421-.76s.105.359-.02.528-.211-.19-.379-.19-.359-.232-.359-.654-.357-.38-.357-.865-.758-.866-1.178-.866.084.76.294,1.013.674.486.653.677a1.112,1.112,0,0,0,.568.76c.252.084-.148.824-.148,1.415s-.463.485-.779.865.8.761,1.263,1.141-.4,1.314-.273,1.521c.063.105.379.253.863.127s.715-1.183,1.052-1.478.126-.761.295-.993.4-.212.631-.212.105-.569.4-.569.147-.4.315-.845-.736-.275-.926.042S327.677-65.215,327.32-65.215Zm-8.229,10.348c-.274-.337-.706.323-.358.422C318.88-54.4,319.364-54.529,319.091-54.868Zm4.966-6.631c-.315.148-.526-.7-.926-.38s-.042.443-.484.824-.252.507-.779,1.33-2.336,1.288-2.609,1.731-1.178.8-1.2,1.141-.573.58-.253,1.034c.253.359.59.105.863.38s.547.043.674.275,1.052.233,1.747-.4.358-.929.631-1.1.316-.676.484-.992a.963.963,0,0,1,1.052-.655c.758,0,.357-.147.315-.507s.632-.422.632-.886.926-.887.736-1.246.168-.57-.127-.782S324.373-61.646,324.057-61.5ZM304.969-76.576c-.148.105-.148-1.057-.042-1.584s.042-.464-.231-.19-.568-.529-.632-.74-.379-.8-.737-.718-.126-.507-.463-.444-.4-.485-.336-.992-.232-.105-.379-.317-.316-.043-.548.043-.294-.444-.231-.654-.042-.465-.357-.7a.658.658,0,0,1-.316-.7c.021-.275-1.789-1.2-2.189-1.289s-.063-.507-.232-.654a2.044,2.044,0,0,1-.231-1.161c0-.465-.589-.613-.568-.993s-.168-.74-.127-1.162-.61-.528-.631-.76-.379-.021-.736.021-.337-.465-.295-.95a2.186,2.186,0,0,0-.443-1.521c-.294-.232-.315-1.034-.463-1.161s-.631.422-.61.7a.95.95,0,0,1-.232.761c-.189.168.127.824-.126,1.056s-.021,1.161-.084,1.69a3.4,3.4,0,0,1-.295,1.457c-.253.359-.295.929-.8,1.119s-1.179-.212-1.158-.486-.547-.443-.842-.4-.463-.38-.926-.739-.82.084-.968-.338-.295-.485-.631-.718-.232-.232.084-.464.252-.528.084-.8.189-.212.611-.444,0-.507.315-.633.127-.4-.211-.465-.231.337-.357.38-.252-.528-.358-.507-.505.57-.715.3a4.573,4.573,0,0,0-1.853-.57c-.463-.064-.61-.654-.884-.549s.043.3.359.633-1.052.57-1.452.444.063.3-.273.275-.4.57-.674.866-.084.507-.379.7-.316.4.042.8-.168.422-.483.105-.632-.317-.611.043-.379.189-.316-.212-.442-.211-.526-.443a1.1,1.1,0,0,0-.8-.592c-.273.021-.273.317-.547.317s-.336.148-.295.443-.421-.021-.737.021,0,.4-.168.422-.168.317-.442.317-.232.612-.189.929-.421-.148-.695-.064.063.36.147.718-.147.338-.295.485-.379-.4-.379-.717-.358-.021-.737.38.127,1.013-.042,1.119a10.914,10.914,0,0,0-1.368,1.351c-.442.528-1.389.211-1.684.464s-.611.064-.905.3-.842.676-.9.4-.82-.063-1.136.275a2.078,2.078,0,0,1-1.179.654c-.358.021-.358.57-.5.7s-.105-.443-.105-.591-.337.253-.484.7.358.612.042,1.077-.61.929-.168,1.521.695.971.548,1.266-.464-.591-.569-.485.4.485.274.676-.58-.719-.674-.507c-.085.189.947,1.625.968,2.154s.842,1.034.8,1.794a4.96,4.96,0,0,0,.842,2.176c.127.189-.295.7-.211,1.266s-.189.782-.547.782-.147.591.253.633.252.317.694.612a4.091,4.091,0,0,0,1.853.19c.358,0,.463-.549.947-.57s.442-.169.674-.464,1.326-.212,2.441-.148,1.6-.275,1.768-.74c.144-.4.947-.422,1.263-.718s.59-.316,1.41-.275a4.96,4.96,0,0,0,2.1-.612,16.566,16.566,0,0,1,2-.253c.5-.127.589.633,1.157.57s.821.168,1.115.147.253.212.548.275.252.317.063.592.442.253.842.8.021.634.232,1.056.358.317.779-.275.883-.211.947-.717.5-1.1.8-.845-.211.38-.4,1.351-.526.465-.589.739.883.422.883-.084.169-.739.527-.275-.211.845-.126,1.056.484-.063.695-.042c.374.037.883.865.8,1.309s-.211.866.505,1.225.442.422.968.422a4.4,4.4,0,0,1,1.914.676c.295.253,1.052-.19,1.2-.7s.694-.021.4.148.147.57.168.3.147-.507.252-.19.484.317.631.57.316.444.316.232.084-.4.421-.528a3.334,3.334,0,0,0,.9-.654,5.315,5.315,0,0,1,1.978-.359c.148,0,.232-1.267.316-1.922s.631-.761.715-1.457a4.575,4.575,0,0,1,1.011-2.048.775.775,0,0,0,.568-.655c.021-.4.5-.844.5-1.33s.274-1.056.232-1.2a.946.946,0,0,1,.105-.95c.315-.337-.127-.74.042-.866S305.116-76.683,304.969-76.576ZM289.984-67.56c.127-.3-1.344-.042-1.136.148C289.079-67.2,289.857-67.264,289.984-67.56Zm6.756,5.555c-.232.063.736,1.52.442,1.9s.863,1.415,1.263,1.479.252-.4.526-.38.168-.275.211-.486.316.232.547.105-.063-1.034.274-1.034.064-1.1-.042-1.457-1.031.275-1.6.337S296.94-62.06,296.74-62.005Zm-12.628-30.41c-.043-.253-1.539.04-1.221.3C283.1-91.951,284.154-92.161,284.112-92.415Zm28.1-1.457c.253-.148-1.054-.965-.967-.529A.8.8,0,0,0,312.208-93.872Zm-2.125-2.155c-.021.253,1.094.866,1.326.718S310.106-96.3,310.083-96.026Zm2.9,1.964c.126.021-.6-1.646-.758-1.289C312.019-94.886,312.861-94.083,312.987-94.062Zm.842,1.013c.274-.19-.934-.6-.863-.422C313.008-93.365,313.555-92.858,313.829-93.049ZM307.635-96.8c.616-.394-1.124-1.633-1.179-1.38S307.3-96.587,307.635-96.8Zm1.416.458c.147-.106-.762-.846-.8-.654C308.23-96.892,308.9-96.237,309.052-96.342ZM225.269-51.471c.37.164.534-.207.781,0a.514.514,0,0,0,.821-.372c.082-.495-1.15-.412-1.273-.7S224.445-51.839,225.269-51.471ZM211.7-115.831c.032-.13-1.319-.183-.966.185C211.046-115.319,211.664-115.7,211.7-115.831Zm-5.42,23.986a1.018,1.018,0,0,0-.14.676c.029.226-.336.45-.561.422s-.589.113-.477.422-.168.253-.029.507-.309.563-.7.591-.9.733-1.319.676-.842.282-1.207.226-.112.76-.393,1.266a1.976,1.976,0,0,0,.112,1.717,1.572,1.572,0,0,1-.224,1.942,2.169,2.169,0,0,0-.365,2.281c.252.564.252,1.408.617,1.8s1.375.732,1.684.422.634.043.982-.366a27.959,27.959,0,0,0,1.375-4,20.285,20.285,0,0,0,1.039-3.716c-.055-.395.337-.648.169-1.07s.055-.93.252-.592.477.338.561-.112-.336-1.155-.364-1.8-.589-1.267-.674-1.576C206.488-92.588,206.388-91.957,206.276-91.844ZM236.106-112a2.652,2.652,0,0,0-.056,1.266c.056.535,0,1.1.477,1.408.548.356,1.431-.563,1.46-1.351a3.751,3.751,0,0,0-1.544-2.224C236.19-112.877,236.246-112.371,236.106-112ZM302.387-98.18c-.7.282-1.975-.323-2.021.085-.028.253.786.7,1.544.7a2.966,2.966,0,0,0,1.963-.985c0-.225.478-.619.281-.844s-.617.112-.617.365S303.089-98.461,302.387-98.18Zm-2.778.564c-.393-.366-1.824-.507-1.88-1.042s-2.609-1.8-3.731-2.056c-.2-.045-.441-.118-.7-.207a31.388,31.388,0,0,0-3.255-1.144c-.42.028-.477.76-.842.76s-.87.761-1.543.986-.7-1.943-1.011-2.365-1.992-.76-2.16-.282-.754.226-.814.62c-.056.365.14.253.5.253s.365.281.534.647,1.178.113,1.515.084.392.451-.085.282-.477.226-.813.141-.786-.055-.562.14.589.395.589.845.646.366.646,0,.336.113.982.282.2.422.842.451a6.713,6.713,0,0,1,2.666.929c.562.422.168.7.533,1.1s.477.844-.029.844-1.038.507-.9.761,1.8-.113,2.189-.113c.257,0,.516.458,1.01.79a1.919,1.919,0,0,0,1.01.336c1.234.055.927-.649,1.15-.649s.309-.394.562-.7,1.347-.056,1.992.45,1.4,2,2.076,1.859,1.376.394,1.993.366.056-.507-.141-.592-.7-.422-.674-.647-.561-.2-.953-.451-.252-1.07-.674-1.266-.73-.817-.225-.788S300-97.251,299.609-97.616Zm5.192-1.351c.533-.141.141-.676-.309-.958s-.842-.479-.281.056S304.47-98.881,304.8-98.968Zm-34.067-12.671c.168.31,1.207-1.24,1.712-1.606a.676.676,0,0,0,.252-1.013c-.168-.337-.365.534-.758,1.042S270.61-111.867,270.734-111.638Zm3.845-3.83c.617-.2-.959-1.3-.9-1.014C273.764-116.087,273.961-115.27,274.578-115.468Zm-1.179-2.59c.225,0,.394.281.252.732s.421.507.954.309.337.367.87.282,1.263.592,1.15.845.028,1.07.281.845.645.056.393.422.393.732.477,1.182.365.084.308-.253.056-.31.421-.563-.029-.676-.252-1.155-1.067-.31-1.067-.761-.617-.591-.645-.845-.842-.507-1.319-.225-.141-.507-.478-.874.252-.9.646-1.351-.113-1.21-.056-1.547.028-.451-.169-.338-1.01-.337-1.374-.113-.029,2.084-.2,2.225-.386-.3-.449-.113C273.063-119.1,273.175-118.058,273.4-118.058Zm1.852,4.308c.141-.028.478,0,.505-.282s.337.507.084.761-.252.958.141,1.042,1.122-1.267,1.01-1.521-.449.169-.365-.169-1.01-1.211-1.431-1.126S274.921-113.684,275.251-113.751Zm1.684,1.1c.113.281.926-.169.7-.45S276.851-112.863,276.935-112.652Zm1.094.535c-.055.421-.589.084-.561.421s-.561,0-.842-.2-.674.534-1.095.647-.644,1.009-.365.985c.337-.028.506-.479.842-.45s.226-.338.7-.253.141,1.521.786,1.632.674.507.981.507-.055-.9-.028-1.21.674-.029,1.01-.422-.224-1.436-.224-2.111-.926-.48-.674-.057S278.086-112.54,278.029-112.117Zm-13.357-10.84c-.055-.2-.813-.084-1.178-.084s-1.292.534-.927,1.294,1.572.253,1.6-.084S264.745-122.7,264.672-122.958ZM275.2-128.2c-.252-.337-1.375.2-1.684,1.324s.41,1.7.5,1.633C274.3-125.436,275.448-127.857,275.2-128.2Zm7.969-8.334c.113-.31.394.45.14.958s.032,1.22.365,1.154c.281-.056.646-1.07,1.066-1.6s-.2-.338-.2-.619-.617-.226-.645-.479-.449-.112-.871.2-.561.367-.392.677S283.053-136.22,283.165-136.529Zm3.732-2.647c-.645.253-1.038-.282-1.4.084a3.842,3.842,0,0,1-1.459,1.1c-.477.085-.2.665,0,.563.336-.168.869,0,1.039-.253a5.189,5.189,0,0,1,2.385-.592c.842-.028.336.395.393.845s.758.367,1.123-.055.646-.395.336-.649.056-.478.281-.141a.768.768,0,0,0,1.207-.084c.281-.451.365.084.7.056s.533-.873.562-.563.561.225.9-.14.028-1.014.252-1.352a1.688,1.688,0,0,0,.225-1.464c-.225-.422.5-.7.869-1.043s-.42-2.027-.449-2.534-.926.2-1.206.337-.478,1.014-.169,1.267-.5.732-.477,1.267-.506.535-.59.929-.393.31-.869.676-.73-.056-.618-.31-.729.141-.7.76-.785.677-.589.958-.616.45-.59.2S287.543-139.429,286.9-139.176Zm-.112,2.393c.281.14.646-.422.646-.845s-.842-.422-.955-.113-.449.169-.9.254-.464,1.158-.14,1.266c.252.085.449.085.533-.253A.586.586,0,0,1,286.785-136.783Zm6.258-10.982c-.337.057.028.395-.365.564s-.365.45-.169.563.057.478,0,.732.253.056.478-.2.458.121.506-.113c.055-.281-.59-.422-.562-.7s.449.084.786-.084a1.52,1.52,0,0,1,1.431.337c.421.366.533.226.617-.225s.729-.648,1.375-.648.7-.31.5-.45,1.067-.958,1.039-1.183-.673.507-.87.253-.532.141-.954.226-1.74-1.014-2.077-1.521-.9-.084-.616.282-.056.479-.056.985-.337.507-.281.845S293.379-147.82,293.043-147.764Zm45.909-26.495c.225.253,1.291.113,1.767.394s1.15.056,1.15-.169-1.543-.732-1.739-.592S338.692-174.552,338.952-174.259Zm-167.479-27.9c-.127.4.631.76.947,1.056a1.4,1.4,0,0,0,1.347.084c.273-.168.189-.76.547-.739s.168-.317.463-.422.336.275.084.57.442.274.82-.085.464-.021.379.317-.863.148-1.136.528-1.116.084-1.494.507.336.444.862.338a6.57,6.57,0,0,1,1.894-.085c.379.085-.232.212-.863.212s-.842.19-.821.359-.884-.189-.926.19.842.528.947.76.694.021.926.106-.379.253-.463.359.652.253.779.464.652.106.631-.19a2.3,2.3,0,0,1,1.094-1.711c.632-.232.274-.443.359-.8s.589-.063.442-.359-.063-.422.336-.8.652-.105,1.136-.338.716.169.189.212c-.461.037-.231.57.148.718s.042.275.336.337.211.507-.168.908.105.486.9.19.295.253.527.485.863-.168,1.2-.569.841-.335.821-.549c-.021-.233-.379-.3-.674-.169s-1.031.042-.779-.19.211-.422-.168-.38-1.052-.148-.737-.275-.231-.549-.526-.528-.211-.317-.189-.549-.842-.337-.674-.422-.358-.275-.484-.105a.2.2,0,0,1-.379-.127c0-.253-.631-.19-.883-.169s-.127-.549-.379-.739-.59.381-.779.338.147-.422.252-.676-.884-.592-.989-.338-.295-.38-.505-.443-.043.422-.232.464-.442.233-.126.444a2.592,2.592,0,0,1,.589,1.437c-.042.168-1.01-.761-1.051-1.2s-.527-.8-.653-.485-.483.444-.379.76-.252.422-.252.169-.526-.549-.715-.57.484-.148.8-.3-.273-.359-.547-.19-.631-.105-.8.127-.379,0-.674-.064-.548.422-.758.338-.337.422,0,.95.589-.169.989-.084S171.6-202.564,171.473-202.163Zm.358,1.246c.105-.009-.358-.529-.631-.824s-.252-.592-.631-.486.336.781.589.845S171.6-200.9,171.831-200.917Zm5.914-3.527c.631.634,3.115-.084,3.451.106s-2.084.422-1.978.676a4.068,4.068,0,0,0,2.231.3c.147-.169.483.337,1.136.38s.589-.253,1.073-.274,1.2-.253,1.221-.528,1.431-.613,1.305-1.077-1.495-.148-1.874-.338-1.262-.444-1.41-.148-.4.38-.526.253.063-.8-.547-.612-.042.845-.169.929-.715-.127-.758-.422-.694.317-.778-.043-.863-.612-1.032-.591.169.253.064.422-.527-.169-.695-.19.105.359.021.528-.421-.507-.716-.507-.189.337-.4.359.295.275.484.422S177.538-204.652,177.745-204.445Zm4.413,36.872c.154-.154-.1-.324-.6-.183s-.58.841-.38.831A2.735,2.735,0,0,0,182.158-167.572Zm-.786-.521a.413.413,0,0,0,.6-.07C182.088-168.375,181.164-168.283,181.372-168.094Zm-3.816,2.69c.112.14,1.178-1.253.646-1.24S177.419-165.577,177.556-165.4Zm-5.907,3.167c.351.056.729-.619.687-.789s.358-.944.225-1.027c-.112-.071-.2.2-.322.225s-.266-.535-.323-.225-.336-.127-.616.267.168.746.364.873-.014.31-.266.253S171.3-162.293,171.649-162.237Zm-12.262-8.433c-.366.1-.259,1.16-.155,1.056C159.471-169.853,159.751-170.768,159.387-170.67Zm-4.505,5.1c.365.043-.28.31-.35.7s.477.226.5.507-.785.324-.785.592.463-.127.674-.239-.112.662.394.577.364-.774.547-.745-.084.365.07.661-.365.746-.337.958,1.039.211,1.361-.127.477.028.252.282a.335.335,0,0,0,.155.591c.28.1.379.127.252.352s-.015.647-.084.858-.941.184-.968.042-.393-.042-.295.155-.309.409-.281.592.548.141.562.366-.379.492-.912.647.112.578.364.394.2.127.562.127.589.3,1,.141.394,0,.084.239-.772-.014-1.052.14-1.422,1.229-1.206,1.493c.126.154.294-.226.7-.395s.478.113.7.141.238-.464.42-.422.351-.155.687-.1a.885.885,0,0,0,.745-.211c.168-.14.616.281.757.182a2.787,2.787,0,0,1,1.066-.2,2.957,2.957,0,0,0,1.319-.549c.211-.2-.126-.238-.406-.2s-.225-.282.069-.563.758-.493.786-.915-.9-.718-1-.493-.309.2-.463-.056.14-.493-.014-.521a.582.582,0,0,1-.309-.52c.042-.14-.238-1.042-.715-1.155s-.547-.789-.631-1.155-.394-.169-.632-.479-.646-.154-.857-.141,0-.395.337-.619a3.548,3.548,0,0,0,.73-1.661c0-.239-1.474-.225-1.754-.084s-.562-.212-.323-.311.744-.592.715-.788.352-.38.141-.564-.239.239-.421.38a1.522,1.522,0,0,1-1.025.015c-.434-.084-.6.534-.589.8s-.5.422-.42.647-.1.395-.238.268-.295-.436-.576-.212S154.517-165.615,154.881-165.573Zm-1.08-.986c.379-.014.814-.661.632-.845S153.519-166.548,153.8-166.559Zm-.589,7.7c.477-.451.729-.015,1.164-.24s.168-1.872,0-2.21a.186.186,0,0,1-.017-.147c.058-.192.5-.227.732-.459.281-.281-.14-.69-.532-1.07-.355-.343-.813.2-1.187.189a.344.344,0,0,1-.118-.02c-.393-.154-.941-.155-.954.2s.435.226.45.45-.45.169-.772.395-.674-.155-1.01.014.365.366.112.718.014.337.435.676-.253.421-.253.8-.518.366-.631.619.449.76.941.76A2.89,2.89,0,0,0,153.213-158.857Zm-6.455-17.725c.224.028.59-.422.73-.7a.622.622,0,0,0-.491-.788c-.337,0-.59-.268-.519-.465s-.183-.451-.168-.592-.421-.014-.646.042-.7-.549-.912-.437-.056.409-.113.578-.561-.155-.561.043-.211.225-.379.014-.562-.085-.547.084-.168.029-.491-.169-.66.226-.631.437-.113.267-.379-.2-.576.042-.435.295.084.563-.126.436-.492.085-.618.282-.576-.578-.252-.76-1.024-.958-1.445-.958-.14.31.14.535-.2.169-.351-.029-.449-.042-.617.239-.449.436-.477.634.477.408.912.225a1.176,1.176,0,0,1,1.15,0c.225.211-.407.3-.183.465s.042.31-.491.267-1.178.113-1.08.3,1.361-.154,1.375.028,0,.493.337.353.112.253.28.323.126.409-.322.437-.668.118-.478.31c.239.239.731.07,1.207-.042s1.165.465,1.726.69a1.642,1.642,0,0,0,1.642-.38c.112-.3.87-.183,1.178-.394a2.465,2.465,0,0,1,1.277-.494C146.547-176.006,146.533-176.611,146.758-176.582Zm45.923,37.068c.322-.127.2-.366-.015-.183a2.411,2.411,0,0,1-1.347.409c-.631.029-.828.446-.434.676.505.3,1.318-.141,1.291-.3S192.358-139.387,192.681-139.514Zm-8.208.212c-.225-.127-1.235.084-1.5-.169s-.81.2-.575.24a7.2,7.2,0,0,0,1.389.366c.547.014,1.291-.253,1.277-.394S184.7-139.176,184.473-139.3Zm-21.608-4.463c.421.282.9.2.828-.282S162.658-143.9,162.865-143.766ZM9.793-124.353c.17-.28-.823-.457-.589-.094C9.406-124.135,9.622-124.073,9.793-124.353Zm-1.517-.777c.078-.263-.856-.269-.557.047C8-124.788,8.2-124.865,8.276-125.13ZM1.1-161.194c-.21-.254-.893.88-.5.717C1.1-160.688,1.315-160.941,1.1-161.194Zm-.5-8.343c.105.317.959.524,1.326.4a.383.383,0,0,0,.189-.654c-.232-.211-.632.3-.674-.043S.494-169.854.6-169.537Zm2.315,7.794c.295.042.421-.254.758-.254s.968-.211.505-.38S2.5-161.8,2.914-161.743Zm8.829,39.7c.2-.155.573-.187.681-.388.145-.27-.2-.838-.727-.777S11.461-121.821,11.743-122.039Zm-.65-1.507c.34-.249.216-.512-.093-.466S10.891-123.4,11.093-123.546Zm3.018-43.52c-.42.485-.779.739-.842.972s-.547-.043-.695.253.1.951.4.739.316,0,.505,0a3.239,3.239,0,0,0,1.242-.887c.189-.3-.337-.38-.358-.57s.442-.19.673-.316-.21-.233-.189-.465S14.532-167.552,14.111-167.066Zm92.576,8.968a4.83,4.83,0,0,0-1.544,2.14c0,.422-.028.929-.42.9s-.842.337-.533.563-.816.865-.281,1.155c.365.2.954-.085,1.459-.029a1.725,1.725,0,0,0,1.347-.225c.42-.311.42.281.87.225s-.253.366-.226.676.478-.169.814-.337.758,0,.589.282.926.563,1.179.112-.253-1.155-.421-.845-.42-.225-.056-.507-.056-.394-.393-.226-.253-.76.056-.929-.758-.507-.758-.2-.758.113-.842-.169-.617-.365-.421-.563-.646-.31-.73.029-.336-.226.084-.676.281-.845.674-1.07S107.107-158.267,106.687-158.1Zm-5.234,2.985c.084-.465-2.682-1.177-2.609-.887C98.927-155.662,101.368-154.648,101.453-155.113ZM82.007-173.95c-.084-.338-2.413.545-1.6,1.056C81.08-172.472,82.091-173.612,82.007-173.95ZM59.234-199.8c-.084.634,1.074,1.589,1.431,1.141C61-199.08,59.318-200.432,59.234-199.8Zm-4.757-1.225c.295.253,1.6.465,1.6-.211s-1.641-.761-2.062-.507-2.357.337-1.81.76c.335.26.716-.084,1.136.084S54.183-201.277,54.478-201.023Zm.337.549c-.884.127-2.4.126-2.4.761,0,.507.295.76,1.263.845s1.809-.845,1.346-.845-.168-.3.379-.381S55.7-200.6,54.815-200.474Zm9.85,3.633c.589.507-.295.253-1.095-.3s-.715.38-.336.676-.084.718-.589.042-.758-1.393-1.558-1.436-.435.78-.126,1.182a4.068,4.068,0,0,0,1.515,1.057c.674.38,1.768-.169,2.273-.043s-.548.76-.211,1.182,1.263.127,1.978.085.379-.465.8-.761-.421-.253-.084-.972-1.052-1.858-1.095-1.436-1.01-.085-1.768-.38S64.075-197.349,64.664-196.841Zm-3.031-4.773c-.169.38-1.625-.077-1.515.253.042.127.21.633,1.221.337a2.628,2.628,0,0,1,2.525.465c.674.549,1.3.76,1.768.211s-.589-.633-.379-1.056-.673-.676-1.136-.676-.631-.845-1.01-.676-.631.465-.631-.084-2.189-.592-2.736-.381.126,1.352.631,1.014S61.8-201.995,61.634-201.614Zm3.24-3.041c.295.253.968.971,1.263.465S64.362-205.1,64.874-204.655ZM34.883-159.15c.26-.166-.45-.973-.45-1.472s-.237-1.022-.994-.618S34.5-158.908,34.883-159.15ZM69.336-203.22c.674.3,2.61-.38,2.778.085s-1.978.507-1.683.8,1.515.76,1.347,1.014,2.02.971,2.23.633.8-.253,1.347-.043.59-1.309.967-1.056.337-.549.968-.8,1.541-.256,1.6-.549c.043-.212-.168-.507-.926-.422s-1.262-.212-.926-.633-.842-.549-.42-.887-.8-.676-.674-.169-.758.043-.884-.422-1.852-.633-2.989-1.646-2.315-.338-1.641-.212.631.465.084.422-1.515.043-.631.38-.085.465-.8.465-.758.929.168,1.056.253.676-.5.465-1.011.168-.337.507C69.031-203.92,68.662-203.515,69.336-203.22ZM42.945-187c.336,0,.084-.422.631-.422s.421-.3.926-.253.927-.127.927-.717.379-.8.883-.93.042-.76.758-.929a15.89,15.89,0,0,0,3.031-1.267c.337-.253-.42-.591-1.178-1.056s-1.347-.591-1.937-.211-.126-.422-.59-.212a2.736,2.736,0,0,1-1.894-.549c-.168-.211-2.441.465-2.988.465s.042.592.421.887-.927,1.225-.674,1.436-.253.76-.842,1.436.42.634,1.178.8S42.437-187,42.945-187Zm1.221-9.207c.456.153.547-.253.758-.465s.127.761.674.761c.463,0,.379-1.014.8-.718s.548-.127.632-.422.084-.8.547-.887.084.464.295.844c.307.554.842.043.883-.211s.8-.084.759-.38.21-.38,0-.718.336-.253.589-.507-.336-.043-.758-.422-.589.127-.589.38-.8.043-1.262-.127-1.052.549-1.726.887-.715.93-1.347.887-1.557.549-1.262.676,0,.718.336.549S43.913-196.292,44.165-196.208Zm3.956-.212c-.042-.38-1.85.93-1.473.972C47.406-195.363,48.164-196.039,48.122-196.42Zm1.726.212c.674,0,.884.211-.084.169s-1.389.8-.716.633,1.474-.169.968,0-1.881.285-1.684.549c.127.169.674.127,1.221.338s.884.337,1.3-.127.968-.93.758-.3.674.168,1.81.127-.21.676-1.389.76-.968.676-.043.887a5.434,5.434,0,0,0,3.368-1.057c.463-.464.884.254,1.347-.084s1.346.043,2.146-.127.926-1.69.336-1.943-.589.3-1.052.38-.715-.507-1.094-.886-.127-1.1-.674-1.014-1.726.972-1.01,1.057.463.464.084.633.884.465.715.718-2.1.042-2.189-.38a2.745,2.745,0,0,0-2.23-1.014c-.631.169-.379-.507-1.01-.549s-.421.549-1.011.592S49.174-196.208,49.848-196.208Zm.8-3.928c.295.38,1.052.76,1.263.253S50.516-200.306,50.647-200.136Zm18.942-.212c.547-.211-.295-.211.084-.717s-.926-.549-1.011-.381-1.725-1.013-1.978-.633.59,2.027,1.221,2.027A4.41,4.41,0,0,0,69.589-200.348Zm3.83,6.42c.463.338,1.179.549,1.558.212s.547-.592.674-.3c.205.481,1.136.549,3.156.591s1.515-.844,2.1-.507a4.707,4.707,0,0,0,2.525.212c.589-.128.884-1.057.843-1.521s-4.546-.845-5.346-.38-2.062-.212-2.694.127-.42-.422-1.557-.465.084-.633.295-.887-1.726-.93-2.526-.761-1.262-.253-2.02-.592-2.814-.257-2.4.338c.295.422,2.736,1.309,2.988.887s.884.507,1.263.971-.252.634.043,1.479S72.956-194.265,73.419-193.928Zm10.818,20.907c-.758.042-.585,1.121-.127,1.056C84.405-172.008,84.995-173.063,84.237-173.021Zm-2.1-3.252c.084-.465-1.389-.845-1.852-1.1s-1.179-.381-1.179-.887-1.01-.127-1.052.633-.463.592-.252,1.31-.926.887-.8,1.267.674-.043,1.179-.043-.137.706.505.76a2.435,2.435,0,0,0,1.6-.887c.211-.338.631-.465,1.221-.042s1.852.465,1.936.042S82.048-175.809,82.132-176.273Zm-8.081-32.014c-.505.253-.337.422.378.38s-.294.211-.294.633.842.169.883.592,1.853.591,2.4.084.336.127.295.465,2.568.633,2.693.211.505-.253,1.011-.127,2.988-.464,3.031-.971.8.253,0,.8-2.4.465-3.115.676.463.718,1.178,1.267-.926.253-1.6-.464-2.189-.718-2.988-.676-.547,1.52.042,1.52a1.985,1.985,0,0,1,1.768,1.141c.589.929,1.852.718,1.852,1.141s-1.642-.338-2.568-.508-2.4.422-2.441,1.1,1.347.592,2.273.043.252.169-.211.592,1.095.76,1.095,1.266-1.136.338-1.263-.127-.547-.929-1.642-.845-.8.845-.126.93.715.591-.043.591-2.467.477-1.937.971c.59.549,2.737,0,3.115.338s1.432.464,1.684.084,1.094-.211,1.936-.211a1.672,1.672,0,0,1,1.431.464,1.276,1.276,0,0,0,1.515-.127,1.2,1.2,0,0,1,1.052-.337c.59,0,.716-.381.421-.845s-1.052.337-1.136,0c-.1-.418-.8-.549-1.978-.38s-.674-.761.042-.549a4.983,4.983,0,0,0,2.484-.085c.8-.211.168-.591.168-.929s1.01-.127,1.768-.127,1.853-1.225,1.9-1.943-1.684-.549-2.526-.549.547-.633,2.147-.549.883-.633,1.178-.886,1.052.3,1.853.127.252-.845.8-.845a13.736,13.736,0,0,0,2.989-1.562c1.725-.972,3.072-.8,3.156-1.351s-2.4,0-2.82-.169,1.726-.634,2.23-.507,1.179,0,2.9-.845.968-1.057.252-.929-1.515-.128-1.473-.592-1.052-.043-1.095-.3-1.052-.127-2.146.3-.084-.422.379-.592-2.778,0-3.325-.38-1.179.633-1.684.127-1.81-.084-1.642.3-.211.38-.715-.043-1.474.043-2.358-.084-.5.718-1.473.3-2.021-.212-1.726-.085-.084.381-.5.253-.8.043-.59.465-1.558-.127-1.558.338-.631.717-1.136.295-2.1-.549-1.641-.168-1.431.168-.927.549-.631.676-.631.464-1.052-.591-1.473-.211-.548.845-.758.591-1.137-.168-2.021.169.126.592.715.211S74.556-208.541,74.051-208.287Zm14.4,26.059c-.211-.3-.758-.337-1.221-.3s-1.262.761-.842,1.479,1.431.168,1.937.084S88.732-181.827,88.447-182.229Zm3.662-5.533c-.127-.38-1.221-.422-1.431.042s-1.094-.507-1.094-.887-1.347-.043-1.179-.676-1.557-.8-2.021-.8-1.136.38-1.052.8-.5.253-.589-.211-1.221.507-1.558.507.211-1.225.043-1.6a10,10,0,0,1-.674-1.141c-.252-.633-1.515-.38-1.853,0s-1.43.211-2.02.8.042,1.182.295,1.394-.884.549-.505.886.968.169,1.01.718-1.389-.169-1.6-.633.084-.887-.211-1.225-.042-.761.505-1.351.968-.507.968-.845-2.357-.338-3.747.929a3.276,3.276,0,0,0-.883,3.294c.084.337,1.3.169,2.02.38s.337.507-.211.422-1.473-.253-1.43.127a1.972,1.972,0,0,0,1.852.929c.674-.169.674-.169.968.212s1.094.253,1.894.3a19.791,19.791,0,0,1,2.1.38,1.174,1.174,0,0,0,.968-.422c.126-.212,1.683.337,2.146.3s.168-.465-.127-.592-.168-.676.211-.465,1.01.338,1.137.718c.107.323.463.169.5.465s1.39.633,1.431.972-1.3.507-.926.8.968-.38,1.474-.422.5,1.1.883.929c.517-.229.927.211,1.431.929s-.042,1.394,0,1.647,1.011.169,1.558-.127,1.052.338,1.473.718-1.557,1.013-1.389.676-1.179-1.351-2.4-.887-.379,1.183-.252,1.606-1.094.844-2.231.464-.8.253-1.263.253-.968.718-.547,1.183,1.346.042,2.1.084.843.253.927-.169.883-.211,1.431-.084.42.887,1.094.972.127.76.547,1.225,1.769.211,2.273.717,2.647,1.517,2.947,1.141c.337-.423-1.852-2.366-2.484-2.534s.632-.381,1.431.253,1.978.929,2.568.169-.505-.549-.505-1.1-.378-1.31-.967-1.31-2.1-1.182-1.558-1.436-.168-.592.252-1.056.842.422,1.347.464.589.676,1.389,1.351.884.212,1.011-.253,1.01-.084.968-.549.715-1.013,1.221-1.225-.421-.718-1.095-.676a.668.668,0,0,1-.8-.718c0-.3-1.263-1.013-1.683-.886s-1.137-.549-1.684-.592-1.347-.464-1.262-1.056,1.094.169,1.3-.3-1.052-.211-1.095-.549.295-.211.548-.422-.211-.633-.505-.8-.379.338-.674.338-.042-.465.168-.761-.967-.633-1.473-.464-.674-.127-.674-.465-.884,0-1.221.253-.758-.253-.337-.3S92.235-187.381,92.108-187.761Zm-24.961-.465c1.052.043,1.095-1.689,1.263-2.323s-.842-.591-.589-.127-.042.929-.126.381-.884-.042-1.179-.465.926-.465,1.221-1.014-.968-.464-.674-.887-1.852.043-1.221.3.042.591-.547.169-2.222.284-1.642.76c.463.38,1.853-.253,1.052.845s-1.137-.3-1.894-.169-.42,1.056.716,1.394,1.01.972,1.936,1.6S66.1-188.268,67.147-188.226ZM63.991-185.1c.042-.633-1.179-.929-1.683-1.266s-.716-.169-1.516-.761.211-.886-.378-1.352a1.791,1.791,0,0,1-.379-2.154c.42-.422.883-1.056.126-1.351s-1.978.253-1.852.422,1.178.76,1.178,1.013-.968-.717-1.3-.507-.715-.422-1.01,0,.379,1.9.631,2.323-.252.422-.59.507-.379-1.182-.715-1.647-1.683-1.013-1.769-.676.843.338.716.8-.631-.295-1.094.085-.38.127-.295-.253-.674-.8-1.515-.718-.379.676-.632.887-1.515-.127-.715-.295.463-.634.168-1.1-1.094.084-2.4.549-1.894.972-1.725,1.013.21.253-.295.676,0,.8.463.8.055.372.379.465c.295.084,1.81-.592,2.23-.3s-2.484.465-2.484.972,1.6.8,2.778.592,3.241.168,3.241.464-1.389.212-2.441.169-2.862.3-2.778.633c.094.378.211.381,1.3.887s2.231-.253,2.189.465.59.887,2.062.929,2.147-.676,2.862-.634a1.279,1.279,0,0,0,1.389-.591c.337-.508.632-.212.716.042s1.01.212,1.221.422c.537.539,2.315.38,2.989.042s-.295-1.267-.632-.845-.631.169-.715-.043.674-.337.926-.633S63.948-184.467,63.991-185.1Zm4.546-14.233c.842.633,2.862-.253,2.777-.507S68.04-199.708,68.537-199.334Zm5.009.549c.674.253,1.683-.338.926-.718S72.763-199.079,73.546-198.785ZM60.5-195.068c-.253.591.584.808.883.464S60.75-195.659,60.5-195.068Zm7.492.717a6.959,6.959,0,0,0,2.862.676c.758-.042.379-.971-.463-1.6S67.655-194.611,67.99-194.35Zm15.658,3.59c.042.633.842.845,1.431.465s2.273.113,2.273-.381c0-.464-1.768-1.309-2.4-1.182s-1.641-.633-1.894-.084S83.606-191.393,83.648-190.76ZM124.958-45.329c.37.33.7.947,1.068.371s-1.935-1.112-1.889-.907C124.219-45.494,124.589-45.659,124.958-45.329Zm12.736-140.137c-.561-.141-1.46-.619-2.1-.253s-.252-.535.281-.62.309-.337.168-.9.9-.2,1.347.45a1.9,1.9,0,0,0,2.076.7c.758-.226.029-.845.337-1.267s-2.329-1.745-2.47-2.2.674-.141,1.4.169.9-.592.9-.985-1.571-.422-2.273-.029-1.375-.507-.42-.619.084-.508.365-.788,1.487.817,2.1.619,1.065.029,1.6-.394-.955-.816-1.263-1.182,1.543-.226,2.1-.2.7-.816.252-.647-2.048-.563-1.712-1.069.954.084,1.656-.282.056-1.746-.449-1.746-1.683-.168-1.683-.422-.982-.479-.7-.732.646.311,1.291-.169,1.992.113,2.582,0-.253-1.21-.59-1.013-1.487.253-1.572-.338,1.095,0,1.292-.281-1.628-1.013-1.909-.422-1.291.394-.758.056a2.042,2.042,0,0,0,.59-1.774c-.056-.479,1.909-.507,1.683-1.3s.926-.958,1.572-.958-.028-.844-.646-.76-1.262.788-1.571.507.729-.789,1.291-.789a6.7,6.7,0,0,0,2.385-.338c.477-.281-.842-.534-1.74-.422s-.9-.282.45-.31,1.122-.311,2.076-.423.645-.507,1.234-.535S149-207.795,149-208.1s-2.217-.929-3.255-.929-1.88.169-1.936.9-1.376-.141-1.937.113-.281-.591-.842-.31-1.178.958-1.853,1.24-1.178.985-1.6,1.041.9-1.294,1.572-1.971.309-1.464-.59-1.379-.7.647-1.207.76-2.918,1.324-3.031.958,1.993-.986,1.965-1.24-2.667-.281-3.845-.112-3.256.845-3.284.507,2.413-.817,3.648-.958c1.263-.143,3.508.085,4.462-.309s2.386-.422,2.638-.733-1.094-.732-1.768-.7-1.347-.056-1.291-.395-1.039-.422-1.15-.676-2.218-.056-2.667-.337a6.309,6.309,0,0,0-2.89-.338c-1.123.084-3.423.056-3.956.113a8.445,8.445,0,0,1-1.347.226c-.477-.028-1.207.141-.926.45.508.561-.758.788-.674.366s-1.094-.619-1.459-.31c-.416.353-2.3-.366-2.582,0s-2.5.253-3.143.366,1.011.592.954.874-2.1,0-1.683.507,1.768.873,2.413,1.521-.5.253-1.234-.226-1.656-.31-2.1-.788a3.226,3.226,0,0,0-2.553-.564c-.5.336,1.15.958,1.15,1.325s-1.123-.085-1.319.055-1.178-.958-1.739-.958-.084.507-.084,1.211-1.095,1.127-.786.648.084-1.717-.505-1.943-2.1.479-2.89.451-1.824.225-1.15.619-.028.618-.617.2-2.525,0-2.133.282a1.225,1.225,0,0,1,.28,1.436c-.252.337-1.066-.338-1.824-.282s-4.517,1.858-4.294,2.338,1.825.084,2.329.365-.168,1.324-.785,1.746-2.918.028-2.974.535-3.62.591-3.62,1.408a.685.685,0,0,0,.561.7c.5.109,1.123-.056,1.572.451a2.7,2.7,0,0,0,2.582.2c.87-.337,1.515.056,1.487.563s-1.963-.2-2.553.169-2.413.056-2.329.45.983.31,1.712.45.055.451.028.761.393.253,1.123.619,1.936.592,1.543.169.758-.366.954-.113.73-.366,1.263-.226.729-.507,1.15-.225,2.386.45,3.059.816,1.6.45,1.515.985.561.929,1.318,1.267a1.52,1.52,0,0,1,.869,1.548c-.028.479.814.816.674,1.042s-.028.535.477.985-.785.788-.477,1.182-.449,1.155.449,1.3.758-.62,1.431-.62-.028.592.337.958,1.122.282,1.824.873.252.874-.394.395a3.559,3.559,0,0,0-2.525-.2c0,.168,2.077,1.351,2.554,1.182s1.123.7.842.985-.141.985-.2,1.324-.758,0-1.207.056-.758.2-.758.676-.7.816-.785,1.407.561.564.926.817-.674.422-.729.845.953,1.182,1.318,1.379.028,1.155.168,1.633.617-.113.561.507.449.592.478.958.9.31.729.816.253.874.449,1.155.927.76,1.066,1.126.562.845,1.066.7.533.338.926.281,1.011.169,1.124.48,1.319.591,1.655.647.394-.563.7-.732.2-1.408.477-1.493.2-1.379-.084-1.492-.169-.563.477-.478.421-.564.73-.648.168-.676.393-.732.2-.451.028-.676.029-.394.365-.451.253-.534-.2-.7-.308-.676.14-.366.786.084.533-.253.309-.507.9-.563.9-.366.786-.817.674-.422.477-.028-.084.789.2.507.813-.084,1.768-.366a3.23,3.23,0,0,0,2.1-1.83c.224-.76,1.318-.676,1.178-1.182s.2-.7.9-.366.14-.225.926-.225.646-.282,1.4-.311a7.768,7.768,0,0,0,3.395-.929,22.713,22.713,0,0,1,2.694-1.408c.59-.366.73-.676.365-.478A2.78,2.78,0,0,1,137.694-185.466Zm-27.668.253c-.281-.535-1.714-.756-1.853-.337-.056.168-.5.421-.14.816s.617.225,1.039.619,1.683.056,1.712-.395S110.306-184.678,110.026-185.213ZM73.587-102.825c.211-.337-.168-1.6-.589-.972S73.414-102.545,73.587-102.825Zm29.718,53.175c-.463-.085-1.574.857-1.095,1.1C102.716-48.3,103.768-49.566,103.305-49.651Zm1.726.464c-.337-.633-1.894.549-1.558.718S105.194-48.88,105.031-49.186Zm-7.282-72.223c.168-.422-1.937-.591-1.558,0S97.654-121.171,97.749-121.409Zm-10.44.254c.169-.381-2.145-.705-1.936-.338C85.542-121.2,87.141-120.775,87.309-121.155Zm.211-3.253c-.631,0-2.693-1.436-4.588-1.858s-3.546.944-3.368,1.182c.253.338,1.179-.422,1.642-.76s.884.169.926.38.632.338,1.6.38,1.095.845,2.021,1.057,0,.591.463.76a8.157,8.157,0,0,0,3.073-.084C89.457-123.563,88.152-124.408,87.52-124.408Zm18.274,50.181c-.131.147-.256.279-.371.408C105.536-73.947,105.664-74.081,105.794-74.227Zm-1.1-10.268a.306.306,0,0,0,.164-.059l0,0A.3.3,0,0,1,104.694-84.5Zm-8.745-21.112.02-.009,0,0ZM93.782-86.7s.008.007.012.008c-.014,0-.027,0-.043.024A.069.069,0,0,1,93.782-86.7Zm-.469-12.983c-.1-.013-.19-.041-.293-.056C93.122-99.72,93.217-99.691,93.312-99.679Zm-5.3-3.8.054.063-.1-.112Zm-12.88-17.538H75.1l.043,0Zm-.171,3.371a.159.159,0,0,0,.035-.02A.183.183,0,0,1,74.966-117.642Zm-8.028-43.384c.336.422.842,2.155,1.136,2.7s.294,1.436-.084,1.479c-.461.051.042-1.225-.8-1.69a2.736,2.736,0,0,1-1.431-2.111A.69.69,0,0,1,66.937-161.026Zm-14.766-10.65c-.569.1-.117.672-.8.722s-2.342.118-2.577-.268c-.079-.128.9-.034.971-.319s.334-.739.753-.739.384-.554-.3-.889.987-.555,1.372-.017,1.071.923,1.455.537,2.577-1.461,2.577-.958-1.623.84-2.275,1.412S52.74-171.776,52.171-171.676Zm-5.456-6.615c-.568-.1-.919.185-.636.386s.3.37-.284.5-.971.588-1.2.537,1-.94.686-1.175-1.1.4-1.122.689-.535.3-.853.285-.736-.319-.419-.352.1-.386.536-.554-.084-.42.05-.6,1.021.185,1.038-.152-.887-.621-1.188-.42a1.86,1.86,0,0,1-1.841.3c-.264-.116,2.109-.37,2.51-.739s2.208-.789,2.342-.454-.97.555-.435.857A1.436,1.436,0,0,0,47.5-179.4c.2-.319,1.071-.269.518.42S47.284-178.19,46.715-178.291ZM74.79-153.739c.461-.372.826-1.163,1.239-1.163.547,0,1.936.127,2.02.845s.927.043,1.011.718c.071.574.627,1.026.534,1.33a.28.28,0,0,1-.114.148c-.347.243-.252-.38-.883-.38s-1.263.591-1.768.337-.252-.591-.715-.591.336-.887-.337-.508-1.683,1.31-2.146.887-.884.127-1.221-.212,1.178-1.266,1.894-1.225A.709.709,0,0,0,74.79-153.739Zm5.345,2.108a3.1,3.1,0,0,1,1.45.193c.59.211,1.473-.253,1.768.465s.979,1.259.337,1.309c-.547.043-1.263-.718-1.221-.3s-.295.212-.295.845-.421,1.521-.674,1.478a.1.1,0,0,1-.024-.011c-.242-.105.134-1.051-.355-1.214-.505-.169-1.094.718-1.01.169s.842-1.014.379-1.732-1.306-.717-1.474-.168-.758.3-.968.717a3.474,3.474,0,0,0-.252,2.027c.168.677-.042,1.014-.674,1.394s-.962-.581-.715-1.816c.168-.845.631-1.647.211-1.647s.547-1.014,1.43-1.225,1.979-.127,1.979-.38C80.028-151.573,80.068-151.608,80.135-151.631ZM84.6-147.5a8.609,8.609,0,0,1-2.174,1.34c-.8.422-1.894.212-1.894-.422s.59-.507.716-.211c.047.111.189.03.382-.109.321-.234.781-.635,1.175-.609.631.043.8.422,1.221.127s.505-.422.59-.211A.118.118,0,0,1,84.6-147.5Zm2.8-1.668a.387.387,0,0,1,.035.052c.3.549-.8.887-1.852.929a6.732,6.732,0,0,0-.755.073c-.422.061-.56.092-.676-.2-.168-.423,1.263-.845,1.937-.761C86.727-148.993,87.176-149.443,87.4-149.167ZM123.762-100a2.571,2.571,0,0,0-2.778-.865c-.695.19-1.41-.338-1.873-.444s-.905.485-1.242.612.168-.507.189-.908-1.263-.972-2.23-1.351-1.39-.19-1.39.422-.379-.19-.674.464-.842.233-.483.021a2.15,2.15,0,0,0,.821-1.1c.126-.4-1.39-.717-1.915-.507s-.189.972-.611.74-.084-.8.253-.782.715-.676.947-1.182-.4-.592-.779-1.013-.3-1.637-.681-1.829c-.413-.177-1.024-1.149-1.634-1.276a5.131,5.131,0,0,1-.8-.269,2.082,2.082,0,0,0-.949-.216c-.505.063-1.031.3-1.221.021s-.463-.233-.716-.021c-.356,0-.744-.761-.967-.761a.481.481,0,0,1-.484-.569c.063-.36-.59-.4-.947-.8a.876.876,0,0,0-.349-.22,3.777,3.777,0,0,0-1.377-.14c-.357.021.231-.4.252-.781s-1.01-.444-1.41-.528-.295-.507.127-.528-.232-.317-.8-.233a6.5,6.5,0,0,0-1.83.655c-.463.253-1.263-.74-1.79-.529s-1.262.212-1.242-.211a.641.641,0,0,0-.736-.74c-.526.043-.4-.528-.8-.528s0,.486-.274.613-1.221.359-1.284.739.505,1.014.316,1.394-.821.064-1.011-.337.548-1.014.421-1.246a.941.941,0,0,1-.126-.659c.652-.27.862-.544.463-.777s-.632.444-1.074.507-.527.337-.82.485-.843.021-.863.275c-.023.276-.189,0-.443-.064s-.9.507-.883.824.126.613-.337.909a4.28,4.28,0,0,0-.947,1.1c-.373-.03-.566-.346-.8-.7-.337-.507-.947-.465-1.326-.634s-.863.064-1.347.507A1.259,1.259,0,0,1,81.8-112.5a2.453,2.453,0,0,1-.488-.437,12.114,12.114,0,0,1-.939-1.175,1.748,1.748,0,0,1,.1-1.429c.126-.4-.105-1.373.126-1.626s.105-.4.211-.992c.009-.56-.619-.41-1.052-.845-.463-.465-1.473-.253-2.02-.043s-1.179-.232-1.769.105c-.35.189-.451.018-.4-.215a.869.869,0,0,1,.3-.482c.379-.295-.189-1.478.253-1.583a1.94,1.94,0,0,0,.631-1.415c.063-.569-.126-.76.168-1.077s.611-.337.527-.781-.484,0-.82-.211-.632-.064-1.495.063-1.262.486-1.221,1.1-.295.338-.273.866-.674.549-.631.865-.548,0-.716-.105a13.722,13.722,0,0,0-2.23.486c-.253.042-.716-.529-1.074-.508s-.505-.528-.547-.972-.716-.844-1.01-1.245a4.026,4.026,0,0,1-.358-1.859,6.663,6.663,0,0,1,.316-2.66c-.06-.488-.2-.553-.31-.546a.775.775,0,0,1,.395.148c.043-.754-.73-.881-.274-1.227.526-.4-.021-.74.232-.909s.694-.337.694-.591.232-.253.568-.212.968-.549.926-.781.064-.274.464-.19.336-.464.589-.38.463.233.484.043.273-.148.463.105.736.317.779.021.358,0,.631.3.4.211.8.232.4-.084.421-.338.442.549.842.592.084-.253-.211-.485.063-.338-.189-.528.316-.444.82-.422.484.148.674-.148.379,0,.379.253.821-.148,1.263-.148a.968.968,0,0,1,.883.633c.043.253.337.381.653.106s.589-.592.883-.3.589.7.947,1.056-.168.8.021,1.077-.021.654.4.95.042.909.379.993.61.612.652.824.674.485.715.127.379-.781.421-1.119a4.566,4.566,0,0,0-.526-1.922c-.274-.38.063-.464-.274-.908a3.213,3.213,0,0,1-.526-1.859,3.934,3.934,0,0,1,1.115-1.985c.358-.317.758-.148.842-.485s.527-.761.779-.761.526.064.568-.211.463-.613,1.01-.7.232-.38.085-.633c.336-.169.673-.148.883-.3s.695-.549.232-.57-.568-.212-.295-.317.042-.612-.337-.655-.252-.232-.021-.465-.336-.612-.61-.8.168-.3.379-.337.042-1.014.147-1.246c.169.232-.042.613.232.929a1.193,1.193,0,0,1,.252,1.141c-.1.485.105.359.421-.275s.357-1.182.147-1.246a1.243,1.243,0,0,0,.716-.444c.358-.38.736-1.034.505-1.182s.1-.3.526-.275a2.889,2.889,0,0,0,1.389-.38c.206-.412-1.452.189-1.452-.043s1.052-.465,1.536-.485.253-.676.463-.4a.564.564,0,0,0,.8.063c.274-.169.063-.654-.252-.739s.231-.295.126-.485a1.066,1.066,0,0,1,.611-1.034c.4-.085.211-.338.547-.338s.4-.4.695-.7.715.465,1.178.043a5.367,5.367,0,0,1,.71-.533,2.2,2.2,0,0,1,1-.417c.38.021.947-.485,1.116-.8-.273.507.336.76.926.739s-.273.212-.716.19-.631.043-1.221.633-.442.761-.105,1.057.779.168,1.242-.233.443-.8.905-.781a10.268,10.268,0,0,0,2.189-.592c.526-.168.189-.253.189-.485s.926-.232,1.262-.465-.063-.422-.358-.38-.063-.422-.021-.654-.631.105-.652.38-.484.38-.484.549c0,.493-.063.232-.4.4s-1.642,0-1.684-.3-.989-.443-1.031-.844-.505-.529-.126-.972-.064-.655-.421-.317c.4-.57,1.3-.76.842-1.6s-3.367.253-4.1.676-1.662,1.774-2.062,1.774.695-.718.863-.993-.042-.549.189-.444.884-.908,1.326-1.246.926-.02.99-.295.273-.465.694-.845,5.451-.317,5.936-.3a2.836,2.836,0,0,0,1.7-1.056c.273-.422.631-.422,1.3-.38s.989-.57,1.326-.8c-.379-.465-.652-.655-.358-.677s.442-.19.568-.569-.105-.212-.505-.74-.611.169-1.01.127.274-.549-.064-.76a1.411,1.411,0,0,0-1.473.359c-.505.423-.463-.021-.905.4s-.442-.211-.231-.38.358.021.547-.232.379,0,.863-.317.9-.169,1.052-.4-.232-.549-.695-.444-.779-.633-1.073-.422-.232-.316-.568-.105-.527-.064-.674-.465a3.236,3.236,0,0,0-1.6-1.225,1.372,1.372,0,0,0,.862-.676c.127-.211-.21-.4-.379-.422s-.168-.3-.126-.508-.589-.486-.611-.7-.379-.36-.358-.549-.358-.465-.358-.718-.632-.76-.652-1.056-.359-.508-.484-.866-.295-.19-.421.317-.568.485-.442.654c.259.347.063.359-.127.57s.127.528-.189.528-.168.655-.336.359-.568-.211-.568.085-.674.569-.947.549-.273-.592-.505-.422-.189-.486-.547-.465-.611-.021-.505-.337-.61-.465-.379-.655-.063-.528-.105-1.077.316-.591.316-.8-.252-.211-.505-.043-.252-.232-.526-.211-1.095-.021-1.137-.4-.316-.19-.443-.549-.463-.084-.463-.337-.147-.36-.4-.381-.337-.3-.674-.337a2.012,2.012,0,0,0-.947.316c-.189.085-.674-.295-.863-.147s-.232-.106-.758-.254-1.221-.189-1.263,0-.463.254-.4.7.505.36.611.654-.211.19-.232.465-.295.253-.295.444.189.148.295.528.316.359.379.866-.168.4-.379.464.021.317-.273.655-.547.7-.315.909,1.094.57,1.431,1.14a3.388,3.388,0,0,1,.21,2.092c-.105.633-.82.781-1.347,1.33a1.644,1.644,0,0,1-1.326.485c-.252.021-.1.528.253.929s.063.529.252.951,0,.76.274,1.14.105.528-.211.8.127.127.148.486-.148.148-.421-.043-.526.359-.526.592-.652-.317-.8-.3.042-.36-.336-.655-.674-.36-.674-.655-.652-.507-.652-.844a4.741,4.741,0,0,0-.063-1.458.767.767,0,0,1,.1-.76c.127-.232-.147-.592-.526-.592a13.346,13.346,0,0,0-1.431-.084,1.307,1.307,0,0,1-.989-.19,3.5,3.5,0,0,0-1.306-.633,1.383,1.383,0,0,1-1.01-.7c-.063-.19-.716-.337-.863-.528a1.54,1.54,0,0,0-1.031-.253c-.252.042-.884-.529-1.263-.507a10.644,10.644,0,0,0-1.41.422c-.147.021.021-.316.127-.465s-.316-.781-.421-1.2-.252-.887-.694-.824a1.773,1.773,0,0,1-1.052-.253,4.358,4.358,0,0,1-.043-1.8c.105-.507.652-1.267.652-1.583s.359-.465.674-.549.064-.7.379-.74.337-.169.4-.422c.021-.507.189-.57.674-.57s1.2-.168,1.094-.655-1.367-.127-1.367-.528-1.6-.423-1.494-.655,1.6.169,2.146.38a2.072,2.072,0,0,0,1.137.169c.442-.021.147-.592.231-.824s.927.359,1.41.232.948-1.119,1.347-1.393.043-.529-.736-.465a2.181,2.181,0,0,1-1.642-.549c-.42-.317-.379-.57.064-.528s1.494.908,1.894.929,1.094-.781,1.431-1.034-.316-.36-.547-.55.4-.316.736-.316.484.3.61.444.716-.106,1.011-.106-.043-.485-.527-.676c.316.043.652-.02.821.317.245.493.4.169.82.021a2.007,2.007,0,0,0,.863-.655c.231-.253.273.042.547-.36s-.127-.781-.463-1.034.021-.507-.316-.676c.443-.317.779-.444.968-.74s-.631-.359-.252-.569.063-.422-.316-.422-.695-.19-.715-.508-.674-.105-1.074-.295a3.863,3.863,0,0,0-1.494-.128c-.211.021-.232.887.084.909s.568.359.294.464.042.444-.168.422-.547-.127-.61.422-.105.761-.463.95-.085-.612-.421-.591-.379.676-.126.739.294.275.358.592-.463.084-.674.464-.232-.168-.527-.422-.652-.676-.631-.992a.416.416,0,0,1,.4-.423c.231-.042,0-.253-.021-.634s-.295-.253-.631-.655-.695-.4-.884-.211-.063.549-.358.676-.168.718-.421.76-.105-1.034-.316-1.14c.443-.444.632-.782.358-.782a3.165,3.165,0,0,1-.947-.38c-.189-.084-.505.36-.716.19s.021-.592.043-.824.336.105.547-.19-.59-.3-.59-.612-.631-.4-.842-.507.148-.634.043-.845-.884-.909-1.221-.845-.421-.444-.232-.422.337-.105.695-.507.4-.528.147-.613c.505-.3,1.284,0,1.537-.19a18.376,18.376,0,0,0,1.368-1.88c.315-.443-.232-.485-.99-.422s-.926-.3-1.558-.338a4.366,4.366,0,0,0-1.978.317c-.168.189.316.359.253.57s-.443-.148-.611-.064.063.359,0,1.1a1.045,1.045,0,0,0,.358,1.056c.211.275.169.633.169,1.1s-.443.444-.589.549.379.275.295.57-.527-.169-.779-.085-.463.8-.189,1.035.379.19.168.464-.442.677.063,1.077,1.431.36,1.915.677-.211.127-.021.485-.315.485-.294.76.21.127.463-.337.442.127.42.528-.379.169-.652.57a.763.763,0,0,1-.926.38c-.4-.084-.168.57,0,.929s-.043.486-.505.36-.736-.422-.505-.782.4-.781.127-.739-.9-.021-1.094-.317.126-.169.694-.105.084-.38.505-.38.736.232,1.095-.085-.232-.929-.527-.824-.758.233-.758-.063.505-.085.779-.148-.148-.444-.568-.338a.908.908,0,0,1-1.052-.232c-.336-.359-.947-.57-1.094.253s-.737.38-.968.654.273.465.842.486.989.549.715.549-.147.4-.442.253-.59,0-.379.253-.084.359-.063.613-.443.02-.884-.021a7.767,7.767,0,0,0-1.853.232,1.748,1.748,0,0,1-1.494-.359c-.252-.275-.589-.233-1.01-.233s-.295-.4-.842-.422-.421-.485-.484-.76-1.158-.19-1.558.064-1.178.147-1.389.612.189.4.421.4c.322,0,.294-.38.883-.3s1.011-.612,1.263-.359-1.01.74-1.558.824-.42.528.105,1.309-.231.338-.231.718-.99-.127-.589-.253.211-.528-.105-.781-.526,0-.484-.275-.336.02-.631-.212-.442-.422-.842-.211a7.069,7.069,0,0,1-1.747.3,5.418,5.418,0,0,1-2.8-.19c-.295-.3.758-.824,1.073-.74s.127-.337-.358-.717-1.557-.613-1.537-.381-.61.021-1.389-.127-.884-.422-1.389-.443a3.35,3.35,0,0,1-1.853-.634c-.589-.464-1.978-.337-2.146.085s-.631.4-1.095.4.21-.522.043-.613c-.222-.119.021-.7-.316-.739s-.652,1.393-1.283,1.352-.906-1.521-1.431-1.9-1.01-.4-.568.168-.379.169-.336.549-.716.824-.695.613-.421-.444-.926.148-.863.507-.906.3-1.537.549-1.473.8-.232.443-.632.422-.084-.36.232-.528a9.012,9.012,0,0,1,1.831-1.057c.5-.084,1.473-.485,1.494-.717s-.484-.042-.821-.106-.926.317-1.494.57-1.221.169-1.052.507-.526-.042-.673.19c0-.275-.716-.507-.716-.359s-.127.337-.631.337-1.011.36-.674.613.547.38.379.549-.695-.444-1.431-.381a3.544,3.544,0,0,1-2.21-1.034c0-.171-1.036-.065-1.754-.141a1.829,1.829,0,0,1-.435-.091,4.919,4.919,0,0,0-2-.549,4,4,0,0,1-1.789.063,2.368,2.368,0,0,0-1.494-.211c-.694.105-1.136-.38-2.021-.592a5.406,5.406,0,0,0-2.42.169c-.295.105-.232-.317-.611-.275s-.084-.169-.294-.485-1.263-.021-1.642.02-.484-.19-.463-.38-.337-.127-.484.127a.521.521,0,0,1-.736.127c-.169-.168.358-.232.379-.422s-.548-.3-.758-.359-.548.212-.99.613a1.9,1.9,0,0,1-1.494.316c-.4-.042-.905.043-.884.275s.505.212.211.508-.4-.4-.695-.085-1.178.3-1.389.253-.905.718-1.115.929.168.4-.4,1.014-2.084.485-2.4.485-.084.36-.252.592.189.444,1.052.676,1.452,1.373,1.557,1.647,1.179-.021,1.6.043-.042.655.316.824.905-.085,1.01.211-.715,0-1.136.317-.632.464-.8.232-.863-.084-1.221-.043-.021-.443,0-.654-.484-.359-1.179.043-.442.253-.526.57-.379-.19-.82.084-1.158.465-1.284.74.947.464,1.368.549-.505.359-.169.464.189.422.716.7,1.7,0,2.02,0,.611.38.863.105,1.2-1.034,1.684-.591-.527.38-.274.654.568.929.105,1.267a1.346,1.346,0,0,1-1.157.084c-.253-.021-.105.465-.505.781s-.695-.337-1.2-.337-.4.654-.379.972-.758-.064-.947.7-.99.106-.463.845.442.275.862.57-.463.824-.042.908.883.845,1.178,1.119.674-.148,1.116-.169.231-.633.484-.4.61.909.378,1.077-.042.7-.084.95.968.169,1.032-.127.862-.38,1.3.106.589.569.589.189.379-.8.4-.485.379.4,1.031.105c-.444,1.027.021,1.879-.315,1.964s-.611.95-1.158,1.014-1.474,1.1-1.6,1.266-1.3-.337-1.474.148-.881.848-.694,1.035c.126.127,1.094-.36,1.136-.613a1.144,1.144,0,0,0,1.115-.275c.189-.168.505-.105.695-.084s.273-.232.842-.337.442-.276.568-.57a5.042,5.042,0,0,1,1.726-.993c.252-.064.1-.485.379-.508A2.7,2.7,0,0,0,12.2-166.5c.359-.3.443-.169.716-.274s.063-.655.336-.7a.538.538,0,0,0,.484-.486c0-.232-.694-.232-.758-.38s.547-.7.779-.676a.664.664,0,0,0,.631-.57c.021-.337.359-.4.632-.7s.21-.55.484-.57.526-.4.82-.57,0,.211.568.232a2.383,2.383,0,0,0-.968.549c-.379.36-.084.465-.379.866s-.316.654.063.7.021.316-.336.422-.105.316.379.316,1.2-.7,1.873-1.034,1.179,0,1.368-.064-.211-.38.02-.485-.273-.169-.42-.57.232-.148.316-.465.315-.19.526-.042.505-.148.695.253.4-.105.736.169-.063.232-.421.316c.379.106.611-.042.863.19s.358.127.568-.084c.211.359.652.422,1.284.528a10.226,10.226,0,0,0,2.062-.064c.295-.021.189.444.842.57s.82-.654,1.158-.38,0,.38-.189.591.211.233.463.338a3.633,3.633,0,0,1,1.115.549,3.316,3.316,0,0,0,1.116.908c.673.338.02-.845.547-.464s.336.02.758.4.274-.169.084-.8.189-.212.379.084a1.68,1.68,0,0,1,.063,1.246c-.126.38-.758.063-.695-.148s-.631-.127-.652.169a1.239,1.239,0,0,0,.779.93c.337.063.084.591.295.654.288.087.273.633.442.549s.105-.739-.084-1.035-.105-.718.148-.634,0,.529.126.677.274-.148.568-.317-.126-.655-.02-.909.442.212.568.655-.316.422-.316.655-.4.128-.526.253-.064.972.1.993.273-.7.379-.337.505-.465.611-.127.61.717.8.633-.085-.444-.379-.465-.253-.507.02-.528.758.7.737.95-.253.233-.484.486-.548-.422-.821-.4,0,.443.127.739-.336.7.021.929.252-.147.315-.316.337.043.527.19.211-.337.211-.528.315-.084.484.169.189-.275.442-.232.084.444.084.676.442-.19.4.063c.018.293.186.412.4.592.252.211-.464.211-.253.4s-.042.485.168.718a.614.614,0,0,0,.821-.043c.231-.19.4.232.211.549a.255.255,0,0,0,.4.317c.189-.233.589.38.779.485-.252.422-.211.971.021.993s.211.317.211.507.736.465,1.01.38.526.169.652.4.631.4.82.253.316.276.359.57.463.127.715.105.4.338.568.274c.371-.14.483.51.728.891.408.461.156.715.261,1.116s.02.972-.295.972a.255.255,0,0,1-.127-.486c.232-.127.105-.591-.127-.591-.179-.479-.145-.626-.084-.74.148-.275-.315-.084-.589-.38s-.99-.233-1.095-.508-.758-1.266-1.115-1.245a1.761,1.761,0,0,1-1.242-.274c-.421-.317-.695-.338-.99-.148s.316.232.295.443.189.338.443.3.4.486.652.508.336.422.631.422.358.338.505.529.484.02.484.211c0,.17.336.324.421.537a2.9,2.9,0,0,0,.5,1.342c.336.444.105.718.42.887-.294.274-.084.549-.189,1.182s-.084,1.943-.147,2.344-.527,1.056-.252,1.478a1.984,1.984,0,0,1,.315,1.542,1.415,1.415,0,0,0,.105,1.246c.232.4.043,1.1.295,1.245a2.372,2.372,0,0,1,.716.824c.231.381.442.148.483.529s.043.443.379.591.127.528.127.74.442.591.99,1.077.084.886.484.886a2.352,2.352,0,0,1,1.178.486c.4.253.527.105.8.169a1.878,1.878,0,0,1,.883,1.056,3.609,3.609,0,0,0,.213.6,3.825,3.825,0,0,0,.5.794,4.772,4.772,0,0,1,.8,1.858c.043.337.653.612,1.179.95a1.265,1.265,0,0,1,.463,1.267c-.063.189-.715-.127-.758.063s.842.929,1.179.887.5.168,1.031.633.483,1.014.273,1.182.42.528,1.094.972a2.407,2.407,0,0,1,1.011,1.225c.063.232.358.021.463-.3s-.211-.4-.211-.76-.547-.3-.8-.338.021-.591-.231-.844a3.668,3.668,0,0,1-.611-1.351c-.126-.465-.778-.93-1.052-1.436a3.377,3.377,0,0,0-.758-1.034c-.189-.127.274-.317.105-.508s-.42-.168-.736-.316a.815.815,0,0,1-.526-.74,6.029,6.029,0,0,0-.316-1.414c.442.02.526.147.674.063a.378.378,0,0,1,.5.212c.105.232.464.02.632.127s-.379.232.168,1.2.168.423.168,1.077.337.359.443.253.4.211.673.549.8.359.8.549a.628.628,0,0,0,.463.633c.358.064.421.465.652.507s.274.295.148.569,0,.507.589.739.315.275.778.718a27.529,27.529,0,0,1,2.042,2.281,3.85,3.85,0,0,1,.463,1.034c.105.3-.211.444-.043.7s-.315.148-.295.338.295,1.14.758,1.182.99.613,1.368.929.947.253,1.515.465a15.353,15.353,0,0,0,1.873.95,8.5,8.5,0,0,1,2.147.929,2.075,2.075,0,0,0,1.914-.105,2.079,2.079,0,0,1,1.726.253,5.474,5.474,0,0,1,1.022.8,13.2,13.2,0,0,0,1.04.892c.4.254,1.052-.02,1.326.233a5.21,5.21,0,0,0,1.874.654c.388-.194.452-.241.589-.127.069.49.06.62.232.718.336.189.8.929,1.158,1.118a.668.668,0,0,1,.324.386c-.262.5-.283,1.008.18,1.2s.316-.105.547-.105.211.359.421.359.695.253.674.592.168.485.547.485a2.222,2.222,0,0,1,1.453.57c.316.38.505.127.695.464s.631.021.736-.189-.232-.3-.273-.528.42-.148.5-.465.758-.464,1.052-.337.548.337.274.654c-.2.236.212.66.559.991.119.114.229.215.3.3.295.317.105.57.189.74s.168.422,0,.528-.02,1.267.168,1.478,0,.4-.21.824-.4.613-.779.634-.358.612-.484.612c-.1,0-.174.214-.188.4.02.321-.3.447-.653.469s-.316.422-.316.7-.295.275-.42.569.042.36-.253.507a.421.421,0,0,0-.21.654c.168.253-.021.485-.064.633s.253.212.547.486.337-.106.463.105a.442.442,0,0,1-.42.591,1.473,1.473,0,0,0-.863.845c-.168.36.295,1.057.358,1.31-.336.485.4.824.737,1.077s.631.972.947,1.309.336.634.673,1.457A15.333,15.333,0,0,0,86.8-91.633c.463.592.674,1.056.568,1.225a.812.812,0,0,0,.358.865,7.4,7.4,0,0,0,1.494,1.057A11.054,11.054,0,0,1,91.961-86.8a3.36,3.36,0,0,0,1.137.866,7.492,7.492,0,0,0,.063,1.034,7.72,7.72,0,0,1,.063,2.45,12.092,12.092,0,0,1-.379,1.437c-.126.359.295.38.127.549s-.105.591-.105,1.266a19.944,19.944,0,0,1-.421,2.175c-.02.36-.294.592-.252.993a.9.9,0,0,1-.42.824c-.232.19.379.8.358,1.141s-.463.485-.358,1.034a10.837,10.837,0,0,1,0,2.091c0,.232-.274.211-.211.654s-.274.549-.337,1.182a9.179,9.179,0,0,1-.736,2.028c-.189.485-.189.76-.442.76s-.316.275-.127.7-.127.781.127,1.2.168.57.042.972-.295.422-.295.8-.294.7-.126,1.119.126.569-.084.569-.316.338-.4,1.035-.063.676.442.633.105-1.71.421-1.71.042-.275.358-.36.042.3.252.36c-.231.612.127.993-.021,1.225s-.358.485-.231.76-.147.253-.168.613.189.38.042.464a.924.924,0,0,0,.021.972c.127.253-.273.105-.484.275s.211.4.084.634-.463-.128-.61-.254.231-.38.42-.633-.189-.824-.5-.7.315.486.315.761-.526-.064-.5.232-.358.189-.548.4.253.4.043.465-.568.359-.59.569c.232-.168.568-.232.674.043s.252,0,.547.064.253.507.084.485-.336.275-.295.592.632,0,.884.084c-.127.232-.463-.021-.61.232s-.379.127-.568.043-.863.359-.632.528.211.444.358.422a.664.664,0,0,0,.463-.3c.084-.169.379-.337.4.043s-.4.19-.483.4a1.411,1.411,0,0,1-.505.57.228.228,0,0,0,.211.4c.5.335.589.127.526-.085s.148-.676.4-.443-.127.464-.127.676-.147.485-.147.717-.273.106-.253.36-.589.084-.315.253-.168.4-.021.57.273-.233.505-.148.189.148.484.021c-.085.4-.379.717-.253.76s.484-.211.568.064a.549.549,0,0,1,.926.105c.085.253-.526.4-.842.337s-.484.3-.273.57.463,0,.695-.232,1.368-.169,1.453.084-.527.043-.59.19-.527.275-.59.105-.505.064-.526.338c.4.485.294-.021.883.02s.905-.548,1.074-.211-.484.613-.716.4-.5.148-.483.465-.674-.085-1.011-.127-.189.316.105.633.463-.043.82.189.359.486.611.254c-.336-.422-.189-.782.211-.592a.545.545,0,0,0,.736-.676c-.127-.507.358-.74.842-.908s.232.316-.127.464-.42.253-.147.549.631-.189.863.043-.421.19-.527.422.4.507.043.676-.189-.7-.4-.781-.4.105-.189.591-.252.064-.463-.169-.505.106-.252.36-.484-.021-.484.38.316.064.695.148.21.633.483.845.042-.676.337-.74.021.676.674.887.042-.127.336-.338.674.633.99.718.105-.38-.127-.633.232-.106.547,0,.568.147.632-.085c.284-.021.456.082.589-.063.211-.233.843-.106,1.179-.317s-.105-.275-.631-.3-1.558-.993-1.874-1.246-.084-.507-.463-.443c.278-.5.009-.86-.248-.918-.341-.012-.952.052-.846-.371.354-.25.889.1,1.01-.021.148-.148-.526-.7-.5-.886s-.105-.507-.105-.718-.105-.676.189-.887.315-.422.5-.38.568-.169.589-.676.252-.7.674-1.056c.458-.391,1.221-.76,1.115-.929s.168-.718.168-.929-.715-.169-.947-.254-1.073-.676-.652-1.457a1.884,1.884,0,0,1,1.558-.886c.252-.021.021-.381.231-.507s.253-.337.253-.654c0-.359,0-.929.379-.972.021-.38-.084-.654.295-.7s.252.317.526.317.736-.465.379-.74-.463.128-.652.169-.336-.253-.526-.253-.064-.528-.148-.718-.211-.654-.042-.886.884.359,1.516.4,1.094-.317,1.094-.549-.295-.654.084-.908.063-.338-.042-.676.169-.549.337-.381a5.712,5.712,0,0,0,2.441-.147c1.031-.212,1.747-.592,1.81-.887a8.224,8.224,0,0,1,.863-1.246c.147-.253.021-.57-.4-.633s-.4-.549-.168-.824-.127-.528-.526-.57-1.032-.317-.674-.654c.43.023.519.149.715.127a2.382,2.382,0,0,1,1.221.317c.463.211.295-.064.737,0a2.045,2.045,0,0,0,1.43-.19,3.237,3.237,0,0,0,.758-.89,2.061,2.061,0,0,1,.442-.44c.589-.422.442-.676.715-1.183s.042-.717.505-1.161-.084-.74.5-1.014.505.254.021.866c.695-.148.927-.8,1.284-1.542s.631-.971.947-1.013.315-.824.273-1.373-.211-1.056.021-1.415,0-.7.294-.7.737-.443,1.2-.908a1.623,1.623,0,0,1,1.242-.549c.484-.043.21-.211.526-.3s.527-.38.736-.57,1.074.021,1.579.021.842.043.842-.275a.546.546,0,0,1,.526-.57c.295,0,.421-.084.421-.507a.971.971,0,0,1,.379-.865c.252-.19.295-.613.379-.887s.358-.105.358-.507.147-.845.147-1.162.337-.275.484-.507-.126-.528.105-1.182a5.008,5.008,0,0,0,0-1.859c0-.591,0-1.2.211-1.393-.232-.465-.042-.7.105-.654s.316.359.59.19a3.945,3.945,0,0,0,.758-1.478c.231-.592.61-.57.9-.7a3.85,3.85,0,0,0,1.326-1.879,4.443,4.443,0,0,0-.189-2.767c-.168-.718-.4-.57-.821-.549A2.919,2.919,0,0,1,123.762-100Zm-32.1-21.112.072.037c.336.169.421-.169,1.179-.422s1.978.212,1.978-.38-2.021-1.225-2.526-1.056a.966.966,0,0,1-.517-.03c-.533-.137-1.2-.482-1.5-.265-.421.3.631.929.631,1.309s-1.689-.072-1.852.338c-.085.211.589.507,1.221.3A1.548,1.548,0,0,1,91.657-121.108ZM169.5-147.82c-.154-.014-.2.267-.59.507s0,1.321.393,1.267C169.712-146.1,169.656-147.807,169.5-147.82Z" transform="translate(0 213)" fill="#f0f0f7" fill-rule="evenodd"/>
</svg>
