<svg id="bathroom" xmlns="http://www.w3.org/2000/svg" width="49.988" height="50.988" viewBox="0 0 49.988 50.988">
  <rect id="_16" width="49.988" height="50.988" fill="none"/>
  <path id="Tracé_273" data-name="Tracé 273" d="M5.972,22.918V8.308a6.492,6.492,0,0,1,.2-1.575,6.105,6.105,0,0,1,2.289-3.4,5.927,5.927,0,0,1,.75-.463A3.394,3.394,0,0,1,9.869,2.6a2.208,2.208,0,0,1,.429-.064h.172a2.686,2.686,0,0,1,.338.049,2.012,2.012,0,0,1,.9.48,2.3,2.3,0,0,1,.294.339c.155.23.3.466.449.7l.017.025.02,0a3.642,3.642,0,0,1,.75-.184c.128-.018.257-.028.385-.035h.192a3.66,3.66,0,0,1,.483.039,3.544,3.544,0,0,1,.385.078c.142.035.284.078.425.117a3.8,3.8,0,0,1,2.158,1.607c.037.053.071.106.1.162a1.244,1.244,0,0,1,.122.265.888.888,0,0,1-.142.774.97.97,0,0,1-.192.184c-1.911,1.226-3.883,2.345-5.825,3.518a.878.878,0,0,1-.277.1.8.8,0,0,1-.706-.244,1.563,1.563,0,0,1-.257-.431,4.188,4.188,0,0,1-.375-1.893,4.339,4.339,0,0,1,.1-.777c.034-.145.074-.293.111-.438a4.395,4.395,0,0,1,.412-1.024A3.912,3.912,0,0,1,11.081,5c-.132-.2-.25-.42-.4-.615A.405.405,0,0,0,10.6,4.3a.381.381,0,0,0-.331-.06,1.077,1.077,0,0,0-.2.081c-.095.046-.189.092-.284.145-.068.039-.138.081-.2.124-.088.057-.176.117-.26.18A4.4,4.4,0,0,0,7.759,7.1a4.732,4.732,0,0,0-.165,1.13c-.044,4.9,0,9.795,0,14.691h23.59l6.261-3.274.165-.078a2.573,2.573,0,0,1,.277-.1c.084-.021.176-.042.263-.057s.159-.014.236-.021h.2c.1.011.192.018.29.035a2.27,2.27,0,0,1,.8.3,2.416,2.416,0,0,1,.986,1.208,2.584,2.584,0,0,1,.162.766,2.537,2.537,0,0,1-.588,1.763,2.268,2.268,0,0,1-.456.417,2.654,2.654,0,0,1-.236.141c-.331.173-.658.35-.989.526-.01.085-.024.17-.037.254-.02.1-.047.2-.074.307-.723,2.37-1.506,4.723-2.256,7.082-.051.152-.1.3-.162.445a6.042,6.042,0,0,1-.476.936,5.811,5.811,0,0,1-2.891,2.37c-.088.558-.182,1.116-.274,1.674a1.6,1.6,0,0,1-.111.381,1.512,1.512,0,0,1-.817.791,1.482,1.482,0,0,1-.446.1c-.419.011-.834,0-1.253,0a1.554,1.554,0,0,1-.382-.053,1.482,1.482,0,0,1-.878-.714,1.568,1.568,0,0,1-.162-.442c-.081-.456-.159-.911-.23-1.371-5.187.049-10.377.071-15.567.011-.068.434-.142.865-.213,1.3a1.6,1.6,0,0,1-.111.381,1.512,1.512,0,0,1-.817.791,1.482,1.482,0,0,1-.446.1c-.419.011-.834,0-1.253,0a1.554,1.554,0,0,1-.382-.053,1.482,1.482,0,0,1-.878-.714,1.568,1.568,0,0,1-.162-.442c-.108-.586-.2-1.176-.287-1.766a5.654,5.654,0,0,1-1.594-.94,5.931,5.931,0,0,1-1.422-1.748A6.284,6.284,0,0,1,4.358,31.5C4.118,30.258,3.9,29,3.7,27.746a2.106,2.106,0,0,1-.493-.191,2.315,2.315,0,0,1-.7-.569,2.533,2.533,0,0,1-.446-.781,2.619,2.619,0,0,1-.138-.837,2.491,2.491,0,0,1,.165-.9,2.409,2.409,0,0,1,1.256-1.353,2.343,2.343,0,0,1,.631-.177,2.371,2.371,0,0,1,.274-.018H5.972Zm3.944,13.37H9.69l.145.908h.912l.142-.894C10.565,36.3,10.24,36.291,9.916,36.287Zm21.034,0h-.192l-1.006.011.142.9h.912Zm5.622-10.681c-1.256.671-2.516,1.335-3.8,1.96h0l-.01.007c-.02.007-.037.018-.054.025-.047.021-.091.042-.135.06a1.318,1.318,0,0,1-.125.046,2.268,2.268,0,0,1-.554.11h-.014a.029.029,0,0,0-.017,0h-.041l-.074,0H5.361c.2,1.13.368,2.268.594,3.391.017.078.034.155.054.233a4.384,4.384,0,0,0,.466,1.113,4.14,4.14,0,0,0,2.239,1.83,3.888,3.888,0,0,0,.942.191c.74-.007,1.482,0,2.222.014a.439.439,0,0,1,.1.011c5.551.028,11.1.049,16.651.007a.832.832,0,0,1,.135-.018c.76-.018,1.523-.021,2.283-.014a3.954,3.954,0,0,0,.831-.152,4.119,4.119,0,0,0,2.219-1.639,4.421,4.421,0,0,0,.55-1.134l1.928-6.047Zm1.054-2.427c.405-.223.807-.449,1.209-.678a.777.777,0,0,0,.361-.721.794.794,0,0,0-.074-.276.763.763,0,0,0-.149-.212A.716.716,0,0,0,38.6,21.1a.615.615,0,0,0-.084-.011.971.971,0,0,0-.1,0,.617.617,0,0,0-.2.049.487.487,0,0,0-.074.035l-6.4,3.345a.627.627,0,0,1-.176.067.813.813,0,0,1-.186.025c-9.05,0-18.106-.357-27.153,0a.724.724,0,0,0-.631.473.8.8,0,0,0-.051.283.772.772,0,0,0,.044.261.818.818,0,0,0,.135.237.755.755,0,0,0,.216.177.7.7,0,0,0,.287.078l.138.007c.03,0,.064,0,.064,0l27.362,0h0a1.74,1.74,0,0,0,.284-.081v0l5.315-2.776a.747.747,0,0,1,.186-.071.51.51,0,0,0,.054-.011Zm-24.5-12.264a.845.845,0,0,1,.189.028.831.831,0,0,1,.483.378c.287.505.577,1.007.841,1.526a.9.9,0,0,1,.088.364.855.855,0,0,1-.034.261.8.8,0,0,1-.946.59.871.871,0,0,1-.29-.131.835.835,0,0,1-.233-.258c-.287-.505-.577-1.007-.841-1.526a.851.851,0,0,1-.084-.318.86.86,0,0,1,.439-.823.839.839,0,0,1,.3-.088.675.675,0,0,1,.084,0Zm2.107-1.272a.875.875,0,0,1,.189.028.835.835,0,0,1,.48.378c.287.505.581,1.007.841,1.526a.9.9,0,0,1,.088.364.852.852,0,0,1-.03.261.832.832,0,0,1-.652.6.82.82,0,0,1-.294-.007.812.812,0,0,1-.523-.389c-.287-.505-.581-1.007-.841-1.526a.924.924,0,0,1-.088-.318.869.869,0,0,1,.442-.823.82.82,0,0,1,.3-.088.648.648,0,0,1,.084,0Zm2.1-1.272a.845.845,0,0,1,.189.028.831.831,0,0,1,.483.378c.287.505.577,1.007.841,1.526a.914.914,0,0,1,.088.339.9.9,0,0,1-.047.328.89.89,0,0,1-.145.268.831.831,0,0,1-.2.17.785.785,0,0,1-.864-.011.81.81,0,0,1-.25-.268c-.287-.505-.577-1.007-.841-1.526a.851.851,0,0,1-.084-.318.86.86,0,0,1,.439-.823.839.839,0,0,1,.3-.088.7.7,0,0,1,.084,0ZM13.681,5.6a2.435,2.435,0,0,0-.672.127,2.389,2.389,0,0,0-1.29,1.127,2.592,2.592,0,0,0-.182.438c-.047.148-.081.3-.118.452a2.508,2.508,0,0,0-.057.9l0,.032,4.113-2.483a.824.824,0,0,0-.108-.085,2.316,2.316,0,0,0-.527-.283c-.155-.057-.317-.1-.476-.138a2.327,2.327,0,0,0-.513-.085Z" transform="translate(3.623 4.78)" fill="#575757" fill-rule="evenodd"/>
</svg>
