<svg xmlns="http://www.w3.org/2000/svg" width="41.427" height="37.364" viewBox="0 0 41.427 37.364">
  <g id="Furnished" transform="translate(0)">
    <path id="Tracé_277" data-name="Tracé 277" d="M75.269,0H57.474a.79.79,0,0,0-.828.746V8.255a.832.832,0,0,0,1.655,0V1.493H74.441V35.818H68a.75.75,0,1,0,0,1.493h7.273a.79.79,0,0,0,.828-.746V.746A.79.79,0,0,0,75.269,0Z" transform="translate(-34.67)" fill="#575757"/>
    <path id="Tracé_278" data-name="Tracé 278" d="M76.854,8.207a.827.827,0,0,0-.828-.828H64.853a.827.827,0,0,0-.828.828v5.136a.827.827,0,0,0,.828.828H76.027a.827.827,0,0,0,.828-.828ZM75.2,12.515H65.68V9.034H75.2Z" transform="translate(-38.738 -4.068)" fill="#575757"/>
    <path id="Tracé_279" data-name="Tracé 279" d="M85.284,29.019a.827.827,0,0,0-.828-.828H80.142a.828.828,0,0,0,0,1.655h3.487v3.48H80.377a.828.828,0,1,0,0,1.655h4.079a.827.827,0,0,0,.828-.828Z" transform="translate(-47.168 -17.031)" fill="#575757"/>
    <path id="Tracé_280" data-name="Tracé 280" d="M90.586,49.83a.828.828,0,0,0-1.655,0v5.136a.828.828,0,1,0,1.655,0Z" transform="translate(-52.47 -29.603)" fill="#575757"/>
    <path id="Tracé_281" data-name="Tracé 281" d="M83.8,74.949a.828.828,0,0,0,0,1.655h2.672a.827.827,0,0,0,.828-.828V70.642a.827.827,0,0,0-.828-.828H83.8a.828.828,0,0,0,0,1.655h1.844v3.48Z" transform="translate(-49.186 -42.567)" fill="#575757"/>
    <path id="Tracé_282" data-name="Tracé 282" d="M12.637,21.593a.964.964,0,0,0,.157-.013.9.9,0,0,0,.157.014.931.931,0,0,0,.307-.053.709.709,0,0,0,.461-.954l-3.587-7.95a.834.834,0,0,0-.769-.461H4.414a.834.834,0,0,0-.769.461L.059,20.587a.664.664,0,0,0,.083.684.862.862,0,0,0,.686.323H5.944v21.7a.785.785,0,0,0,.828.734A.785.785,0,0,0,7.6,43.29v-21.7Zm-7.662-7.95H8.8l2.925,6.482H2.05Z" transform="translate(0 -6.713)" fill="#575757"/>
    <path id="Tracé_283" data-name="Tracé 283" d="M51.556,40.04a3.387,3.387,0,0,0-1.147-3.189,3.137,3.137,0,0,0-3.361-.863c.474-3.621.449-7.748-1.6-9.646-2.84-2.632-12.747-2.631-15.588,0-2.081,1.928-2.075,6.157-1.577,9.817a3.1,3.1,0,0,0-3.759.691,3.389,3.389,0,0,0-1.147,3.19,6.511,6.511,0,0,0,2.869,3.814l.174,6.089a.828.828,0,0,0,.827.8H27.3l.434,3.4a.828.828,0,0,0,.821.723h1.313a.828.828,0,0,0,.821-.723l.435-3.406a.82.82,0,0,0,.581-.278H43.225a.823.823,0,0,0,.581.278l.436,3.406a.829.829,0,0,0,.821.723h1.313a.828.828,0,0,0,.821-.723l.434-3.4h.056a.829.829,0,0,0,.828-.8l.174-6.089A6.51,6.51,0,0,0,51.556,40.04ZM30.986,27.556c2.243-2.078,11.093-2.078,13.338,0,1.743,1.615,1.474,6.1.821,9.854-.124.122-.251.248-.381.38a6,6,0,0,0-1.713,3.616H31.884a6,6,0,0,0-1.635-3.529C29.539,34.04,29.17,29.239,30.986,27.556ZM43.015,43.062v1.533H31.92V43.062Zm-11.1,3.188h11.1v2.563H31.92Zm-6.914-6.507a1.762,1.762,0,0,1,.654-1.686,1.522,1.522,0,0,1,2.41-.017l.331.327c.184.18.388.38.594.589a4.364,4.364,0,0,1,1.27,3.092v7.047H28.053l-.165-5.758a.827.827,0,0,0-.511-.741A5.109,5.109,0,0,1,25.006,39.743Zm3.968,11.006h.485l-.243,1.9Zm16.745,1.9-.244-1.9h.486Zm1.838-10.058a.83.83,0,0,0-.511.741l-.164,5.758H44.67V42.046a4.365,4.365,0,0,1,1.269-3.092c.2-.2.392-.39.57-.565l.356-.351a1.52,1.52,0,0,1,2.409.018,1.762,1.762,0,0,1,.654,1.686A5.114,5.114,0,0,1,47.557,42.594Z" transform="translate(-16.296 -17.51)" fill="#575757"/>
  </g>
</svg>
