<svg id="Groupe_435" data-name="Groupe 435" xmlns="http://www.w3.org/2000/svg" width="42" height="42" viewBox="0 0 42 42">
  <g id="Groupe_426" data-name="Groupe 426" transform="translate(0 10.866)">
    <path id="Tracé_299" data-name="Tracé 299" d="M22.559,111.077V79.943h2.78V108.3h7.32v2.78Z" transform="translate(-22.559 -79.943)" fill="#575757"/>
  </g>
  <g id="Groupe_427" data-name="Groupe 427" transform="translate(0)">
    <path id="Tracé_300" data-name="Tracé 300" d="M36.786,63.9V61.546h25.42V24.252H24.912v6.5H22.559V21.9h42v42Z" transform="translate(-22.559 -21.899)" fill="#575757"/>
  </g>
  <g id="Groupe_428" data-name="Groupe 428" transform="translate(1.581 28.31)">
    <rect id="Rectangle_138" data-name="Rectangle 138" width="5.357" height="2.78" fill="#575757"/>
  </g>
  <g id="Groupe_429" data-name="Groupe 429" transform="translate(10.923 26.19)">
    <path id="Tracé_301" data-name="Tracé 301" d="M71.782,142.287V130.838H64.93v-2.78h9.631v14.229Z" transform="translate(-64.93 -128.058)" fill="#575757"/>
  </g>
  <g id="Groupe_430" data-name="Groupe 430" transform="translate(26.997 1.581)">
    <rect id="Rectangle_139" data-name="Rectangle 139" width="2.78" height="9.787" fill="#575757"/>
  </g>
  <g id="Groupe_431" data-name="Groupe 431" transform="translate(25.641 14.556)">
    <path id="Tracé_302" data-name="Tracé 302" d="M119.3,85.228v-2.78h1.43V77.705h2.78v7.523Z" transform="translate(-119.303 -77.705)" fill="#575757"/>
  </g>
  <g id="Groupe_432" data-name="Groupe 432" transform="translate(16.927 17.895)">
    <path id="Tracé_303" data-name="Tracé 303" d="M86.443,105.091V92.6h4.273v2.78H89.223v9.712Z" transform="translate(-86.443 -92.598)" fill="#575757"/>
  </g>
  <g id="Groupe_433" data-name="Groupe 433" transform="translate(26.203 18.854)">
    <rect id="Rectangle_140" data-name="Rectangle 140" width="14.216" height="2.78" fill="#575757"/>
  </g>
  <g id="Groupe_434" data-name="Groupe 434" transform="translate(11.015 1.581)">
    <rect id="Rectangle_141" data-name="Rectangle 141" width="2.78" height="13.438" fill="#575757"/>
  </g>
</svg>
