<svg xmlns="http://www.w3.org/2000/svg" width="51.26" height="57.48" viewBox="0 0 51.26 57.48">
  <g id="Keys" transform="translate(0.5 0.5)">
    <path id="Tracé_286" data-name="Tracé 286" d="M17.648,24.4,4.3,30.014Z" transform="translate(-4.3 -0.822)" fill="none" stroke="#575757" stroke-linecap="round" stroke-linejoin="round" stroke-miterlimit="10" stroke-width="1"/>
    <path id="Tracé_287" data-name="Tracé 287" d="M17.748,32.133l1-2.37,2.37,1,5.738-2.37a5.539,5.539,0,0,0,1.372,1,9.072,9.072,0,0,1,2.495-8.109,8.918,8.918,0,0,1,11.352-1.123,7.151,7.151,0,0,0-.5-1.746,8.984,8.984,0,0,0-11.851-4.865,9.269,9.269,0,0,0-5.614,8.233L6.645,29.014,4.4,32.881l5.115,2.744,1-2.37,2.37,1,1-2.37,1.622-.748Z" transform="translate(-4.275 -2.539)" fill="none" stroke="#575757" stroke-linecap="round" stroke-linejoin="round" stroke-miterlimit="10" stroke-width="1"/>
    <path id="Tracé_288" data-name="Tracé 288" d="M22.829,33.6,12.6,43.829Z" transform="translate(-4.273 -0.394)" fill="none" stroke="#575757" stroke-linecap="round" stroke-linejoin="round" stroke-miterlimit="10" stroke-width="1"/>
    <path id="Tracé_289" data-name="Tracé 289" d="M31.687,35.09a8.069,8.069,0,0,0,1.622.5A9.149,9.149,0,0,1,42.54,21.617l-1.123-1.5a9.035,9.035,0,0,0-12.724,0,9.136,9.136,0,0,0-2,9.73L13.224,43.323,12.6,47.814l5.738.624v-2.62l1.247-1.247h2.495v-2.62h2.495v-2.62h2.495Z" transform="translate(-5.602 -3.224)" fill="none" stroke="#575757" stroke-linecap="round" stroke-linejoin="round" stroke-miterlimit="10" stroke-width="1"/>
    <path id="Tracé_290" data-name="Tracé 290" d="M30.689,39.8,25.2,53.273Z" transform="translate(-3.788 -0.91)" fill="none" stroke="#575757" stroke-linecap="round" stroke-linejoin="round" stroke-miterlimit="10" stroke-width="1"/>
    <path id="Tracé_291" data-name="Tracé 291" d="M35.8,31.165a8.987,8.987,0,0,1,7.235-8.857,6.721,6.721,0,0,0-1.622-.873A9.132,9.132,0,0,0,29.564,26.3a9.242,9.242,0,0,0,1.871,9.73L24.2,53.5l1.123,4.366,5.614-1.622-1-2.37,2.37-1L32.184,51l.748-1.622-.25-2.121.748-1.622,2.37-1,2.37-5.738a6.32,6.32,0,0,0,1.622-.249A9.1,9.1,0,0,1,35.8,31.165Z" transform="translate(-5.251 -5.623)" fill="none" stroke="#575757" stroke-linecap="round" stroke-linejoin="round" stroke-miterlimit="10" stroke-width="1"/>
    <circle id="Ellipse_30" data-name="Ellipse 30" cx="2.245" cy="2.245" r="2.245" transform="translate(35.69 23.641)" stroke-width="1" stroke="#575757" stroke-linecap="round" stroke-linejoin="round" stroke-miterlimit="10" fill="none"/>
    <path id="Tracé_292" data-name="Tracé 292" d="M41.4,31.742a13.746,13.746,0,0,0,2.245.25A14.6,14.6,0,1,0,29.3,15.524,14.477,14.477,0,1,1,43.646,31.991,13.746,13.746,0,0,1,41.4,31.742Z" transform="translate(-7.857 -2.8)" fill="none" stroke="#575757" stroke-linecap="round" stroke-linejoin="round" stroke-miterlimit="10" stroke-width="1"/>
    <path id="Tracé_293" data-name="Tracé 293" d="M51.564,30.907a8.983,8.983,0,1,0-17.964,0,9.148,9.148,0,0,0,5.364,8.358V58.227l2.744,3.618L46.2,58.227l-1.746-1.871L46.2,54.484l-1.746-1.871L46.2,50.742,44.453,48.87V47L46.2,45.128V38.891A8.367,8.367,0,0,0,51.564,30.907Z" transform="translate(-6.793 -5.364)" fill="none" stroke="#575757" stroke-linecap="round" stroke-linejoin="round" stroke-miterlimit="10" stroke-width="1"/>
    <path id="Tracé_294" data-name="Tracé 294" d="M40,42.2v0Z" transform="translate(-2.697 -0.316)" fill="none" stroke="#575757" stroke-linecap="round" stroke-linejoin="round" stroke-miterlimit="10" stroke-width="1"/>
  </g>
</svg>
