<svg xmlns="http://www.w3.org/2000/svg" width="55.93" height="42.634" viewBox="0 0 55.93 42.634">
  <path id="Tracé_1451" data-name="Tracé 1451" d="M55.56,96.38,47.54,81.464A2.788,2.788,0,0,0,46,80.125a2.346,2.346,0,0,0-1.977.2l-2.866,1.736a2.814,2.814,0,0,0-1.043,3.376,7.959,7.959,0,0,1-3.432-.635,15.957,15.957,0,0,0-5.856-1.081,5.9,5.9,0,0,0-2.316.478c-6.377-1.177-8.775-.167-10.7.648a7.147,7.147,0,0,1-2,.612,2.816,2.816,0,0,0-1.033-3.4l-2.867-1.736a2.362,2.362,0,0,0-1.975-.2,2.783,2.783,0,0,0-1.541,1.341L.368,96.377a2.858,2.858,0,0,0,.867,3.789L4.1,101.9a2.34,2.34,0,0,0,1.2.333,2.365,2.365,0,0,0,.775-.13,2.764,2.764,0,0,0,1.543-1.34l.005-.009c1.3,1.057,3.24,3.023,3.415,4.971l-.785,1.137a3.853,3.853,0,0,0,.753,5.183,3.307,3.307,0,0,0,2.826.612,3.745,3.745,0,0,0,1.4,2.676,3.309,3.309,0,0,0,2.826.614,3.739,3.739,0,0,0,1.4,2.674,3.306,3.306,0,0,0,2.825.614,3.748,3.748,0,0,0,1.4,2.677,3.372,3.372,0,0,0,4.888-.8l.046-.069,1.14.878a3.337,3.337,0,0,0,2.048.706,3.454,3.454,0,0,0,2.835-1.531,3.826,3.826,0,0,0,.654-1.959,3.281,3.281,0,0,0,1.115.2,3.449,3.449,0,0,0,2.832-1.53,3.829,3.829,0,0,0,.649-2.279,3.256,3.256,0,0,0,.688.114,3.449,3.449,0,0,0,2.832-1.529,3.827,3.827,0,0,0,.645-2.362,2.942,2.942,0,0,0,3.3-1.452,3.861,3.861,0,0,0-.777-5.179L46.3,104.9a9.707,9.707,0,0,1,2.144-3.968,2.746,2.746,0,0,0,1.408,1.169,2.353,2.353,0,0,0,.778.132,2.305,2.305,0,0,0,1.2-.335l2.867-1.734A2.858,2.858,0,0,0,55.56,96.38ZM6.1,99.845a1.03,1.03,0,0,1-.56.5.687.687,0,0,1-.572-.051L2.1,98.556a.948.948,0,0,1-.217-1.26L9.908,82.38a1.051,1.051,0,0,1,.56-.5.8.8,0,0,1,.239-.04.648.648,0,0,1,.335.09l2.866,1.736a.951.951,0,0,1,.217,1.262Zm8.381,10.307a1.685,1.685,0,0,1-2.442.4,1.932,1.932,0,0,1-.376-2.592l2.065-2.987a1.686,1.686,0,0,1,2.444-.4,1.93,1.93,0,0,1,.376,2.59Zm4.23,3.287a1.684,1.684,0,0,1-2.442.4,1.924,1.924,0,0,1-.376-2.589l2.065-2.99a1.684,1.684,0,0,1,2.442-.4,1.93,1.93,0,0,1,.377,2.589Zm4.228,3.287a1.686,1.686,0,0,1-2.444.4,1.933,1.933,0,0,1-.376-2.59l2.067-2.99a1.687,1.687,0,0,1,2.444-.4A1.932,1.932,0,0,1,25,113.74Zm6.295.3-2.067,2.99a1.687,1.687,0,0,1-2.442.4,1.934,1.934,0,0,1-.376-2.592l2.067-2.989a1.687,1.687,0,0,1,2.442-.4A1.932,1.932,0,0,1,29.232,117.027Zm4,2.98a1.722,1.722,0,0,1-2.441.415l-1.133-.871.987-1.426a3.811,3.811,0,0,0,.652-1.865l1.55,1.159h0a1.857,1.857,0,0,1,.7,1.209A1.914,1.914,0,0,1,33.23,120.007Zm12.716-10.794a1.726,1.726,0,0,1-2.444.407l-5.546-4.241a.846.846,0,0,0-1.22.21.964.964,0,0,0,.2,1.294l4.677,3.577a1.891,1.891,0,0,1,.7,1.184A1.936,1.936,0,0,1,42,113.027a1.716,1.716,0,0,1-2.453.4l-5.474-4.142a.843.843,0,0,0-1.219.214.958.958,0,0,0,.2,1.292l4.386,3.338a1.927,1.927,0,0,1,.389,2.589,1.739,1.739,0,0,1-2.431.422l-5.523-4.212-.014,0a3.3,3.3,0,0,0-2.8-.6,3.748,3.748,0,0,0-1.4-2.675,3.314,3.314,0,0,0-2.826-.612,3.743,3.743,0,0,0-1.4-2.675,3.314,3.314,0,0,0-2.826-.614,3.736,3.736,0,0,0-1.4-2.674,3.365,3.365,0,0,0-4.861.764,12.8,12.8,0,0,0-3.851-4.71l6.353-11.806c.154.011.324.036.468.036a7.512,7.512,0,0,0,3.142-.789c1.487-.632,3.3-1.387,7.559-.88a9.36,9.36,0,0,1-5.83,2.257,2.775,2.775,0,0,0-2.468,1.884,4.472,4.472,0,0,0,.833,4.507c1.022,1.186,3.584,2.889,9.217.981,2.989-.952,3.287-.693,6.926,2.482l10.864,8.817A1.93,1.93,0,0,1,45.946,109.213Zm-1.169-5.483-7.271-5.952a6.687,6.687,0,0,0,2.381-1.363.967.967,0,0,0,.147-1.3.844.844,0,0,0-1.229-.154c-1.99,1.665-3.084,1.345-4.52.1,0-.005-.01-.005-.017-.009-2.555-2.14-3.711-2.556-7.015-1.5-3.451,1.169-6.151,1-7.413-.463a2.556,2.556,0,0,1-.51-2.538,1.067,1.067,0,0,1,.917-.749A11.086,11.086,0,0,0,27.041,87.2a6,6,0,0,1,3.782-1.618,14.392,14.392,0,0,1,5.308.987A9.2,9.2,0,0,0,41,87.177l6.5,12.09A13.512,13.512,0,0,0,44.776,103.73Zm9.051-5.172L50.96,100.29a.677.677,0,0,1-.577.051,1.041,1.041,0,0,1-.557-.492L41.8,84.933a.948.948,0,0,1,.217-1.26l2.866-1.734a.632.632,0,0,1,.335-.092.7.7,0,0,1,.239.042,1.033,1.033,0,0,1,.56.494L54.043,97.3A.95.95,0,0,1,53.828,98.558Zm-1.7-1.692a1.094,1.094,0,1,1-1.092-1.159A1.126,1.126,0,0,1,52.128,96.865ZM4.9,95.705a1.161,1.161,0,0,1,0,2.317,1.161,1.161,0,0,1,0-2.317Z" transform="translate(0.001 -79.994)" fill="#575757"/>
</svg>
