<svg xmlns="http://www.w3.org/2000/svg" width="32.675" height="28.112" viewBox="0 0 32.675 28.112">
  <g id="Buy" transform="translate(-5.978 -8.89)">
    <path id="Tracé_270" data-name="Tracé 270" d="M37.991,8.89H34.926a.662.662,0,0,0-.626.435l-1.9,5.305H6.651a.662.662,0,0,0-.626.907l4.534,12.9a2.721,2.721,0,0,0,1.17,5.2h1.814a2.113,2.113,0,1,0,3.392,0h5.731a2.119,2.119,0,1,0,3.392,0h2.512a.662.662,0,0,0,0-1.324H11.7a1.41,1.41,0,0,1,0-2.82H28.134a.671.671,0,0,0,.626-.444l.082-.218,4.652-13.285h0l1.9-5.3h2.6a.662.662,0,0,0,0-1.324ZM24.343,34.082a.789.789,0,1,1-.789.789A.789.789,0,0,1,24.343,34.082Zm-9.123,0a.789.789,0,1,1-.789.789.789.789,0,0,1,.789-.789Zm12.451-5.94H11.847L7.585,15.963H31.934Z" transform="translate(0)" fill="#575757"/>
    <path id="Tracé_271" data-name="Tracé 271" d="M9.255,18.679H30.194a.54.54,0,1,0,0-1.079H9.255a.54.54,0,1,0,0,1.079Z" transform="translate(-0.255 -0.811)" fill="#575757"/>
  </g>
</svg>
