<svg id="Bulding2" xmlns="http://www.w3.org/2000/svg" width="33.467" height="33.326" viewBox="0 0 33.467 33.326">
  <path id="Tracé_143" data-name="Tracé 143" d="M42.989,54.435V21.791H31.553v8.187l-9.7-4.315v4.315l-9.7-4.315V54.435H10.842v.681H44.31v-.681ZM22.512,26.695l9.041,4.025v3.306H22.512Zm-9.7,0,9.042,4.024v3.306H12.816Zm18.737,27.74H15.958V49.717H31.553v4.718Zm10.782,0H32.207v-5.4H15.3v5.4H12.816V34.707H42.336V54.435Zm0-20.41H32.207V22.472H42.336V34.025Z" transform="translate(-10.842 -21.791)" fill="#575757"/>
  <path id="Tracé_144" data-name="Tracé 144" d="M99.435,246.314v-3.267H76.22v3.267H99.435Zm-22.317-2.369H98.536v1.471H77.118Z" transform="translate(-71.661 -228.272)" fill="#575757"/>
  <path id="Tracé_145" data-name="Tracé 145" d="M99.435,294.671V291.4H76.22v3.266H99.435ZM77.118,292.3H98.536v1.471H77.118Z" transform="translate(-71.661 -273.149)" fill="#575757"/>
  <path id="Tracé_146" data-name="Tracé 146" d="M99.435,345.412v-3.266H76.22v3.266H99.435Zm-22.317-2.368H98.536v1.47H77.118Z" transform="translate(-71.661 -320.237)" fill="#575757"/>
</svg>
