<svg id="Currency" xmlns="http://www.w3.org/2000/svg" width="28.74" height="28.74" viewBox="0 0 28.74 28.74">
  <g id="Layer_x0020_1" transform="translate(2.382 4.693)">
    <path id="Tracé_22" data-name="Tracé 22" d="M21.543,2.823A18.449,18.449,0,0,0,13.018.933,18.449,18.449,0,0,0,4.493,2.823C2.353,3.969,1.029,5.541,1.029,7.265a3.454,3.454,0,0,0,.2,1.143.2.2,0,0,1,.01.027c.524,1.466,2.011,2.758,4.1,3.684a19.275,19.275,0,0,0,7.68,1.478,18.449,18.449,0,0,0,8.525-1.889A6.531,6.531,0,0,0,24.8,8.427h0l.006-.018a3.454,3.454,0,0,0,.2-1.143c0-1.724-1.324-3.3-3.463-4.443Zm-1.57.818A15.051,15.051,0,0,0,13.018,2.1,15.051,15.051,0,0,0,6.063,3.641c-1.746.936-2.826,2.218-2.826,3.625A2.818,2.818,0,0,0,3.4,8.2a.162.162,0,0,1,.008.022,5.867,5.867,0,0,0,3.346,3.006,15.725,15.725,0,0,0,6.265,1.206,15.052,15.052,0,0,0,6.955-1.541,5.328,5.328,0,0,0,2.66-2.677h0l.005-.015a2.818,2.818,0,0,0,.161-.932c0-1.407-1.08-2.689-2.826-3.625Z" transform="translate(-1.029 -0.933)" fill="rgba(87,87,87,0.8)" fill-rule="evenodd"/>
    <path id="Tracé_23" data-name="Tracé 23" d="M20.859,5.946a19.678,19.678,0,0,1-7.842,1.513A19.679,19.679,0,0,1,5.176,5.946q-.454-.2-.872-.425l-.113-.061a7.383,7.383,0,0,1-3.1-2.9L1.08,2.6a3.357,3.357,0,0,0-.051.582,3.454,3.454,0,0,0,.2,1.143.2.2,0,0,1,.01.027c.524,1.466,2.011,2.758,4.1,3.684a19.275,19.275,0,0,0,7.68,1.478,18.449,18.449,0,0,0,8.525-1.889A6.531,6.531,0,0,0,24.8,4.34h0l.006-.018a3.454,3.454,0,0,0,.2-1.143,3.358,3.358,0,0,0-.051-.582l-.007-.04a7.383,7.383,0,0,1-3.1,2.9l-.113.061q-.417.224-.872.425Z" transform="translate(-1.029 3.072)" fill="rgba(87,87,87,0.8)" fill-rule="evenodd"/>
    <path id="Tracé_24" data-name="Tracé 24" d="M20.859,6.434a19.678,19.678,0,0,1-7.842,1.513A19.678,19.678,0,0,1,5.176,6.434q-.454-.2-.872-.425l-.142-.077A7.359,7.359,0,0,1,1.087,3.046l-.007.04a3.359,3.359,0,0,0-.051.582,3.454,3.454,0,0,0,.2,1.143.2.2,0,0,1,.01.027C1.761,6.3,3.248,7.6,5.338,8.522A19.275,19.275,0,0,0,13.018,10,18.449,18.449,0,0,0,21.543,8.11,6.531,6.531,0,0,0,24.8,4.829h0l.006-.018a3.455,3.455,0,0,0,.2-1.143,3.359,3.359,0,0,0-.051-.582l-.007-.04a7.359,7.359,0,0,1-3.074,2.885l-.142.078q-.417.224-.872.425Z" transform="translate(-1.029 4.276)" fill="rgba(87,87,87,0.8)" fill-rule="evenodd"/>
    <path id="Tracé_25" data-name="Tracé 25" d="M20.859,6.922a19.678,19.678,0,0,1-7.842,1.513A19.679,19.679,0,0,1,5.176,6.922q-.454-.2-.872-.425L4.14,6.407l-.007,0a7.336,7.336,0,0,1-3.046-2.87l-.007.04a3.357,3.357,0,0,0-.051.582,3.454,3.454,0,0,0,.2,1.143.2.2,0,0,1,.01.027c.524,1.466,2.011,2.758,4.1,3.684a19.275,19.275,0,0,0,7.68,1.478A18.449,18.449,0,0,0,21.543,8.6,6.531,6.531,0,0,0,24.8,5.317h0l.006-.018a3.454,3.454,0,0,0,.2-1.143,3.357,3.357,0,0,0-.051-.582l-.007-.04a7.342,7.342,0,0,1-3.053,2.874l-.164.089q-.417.224-.872.425Z" transform="translate(-1.029 5.48)" fill="rgba(87,87,87,0.8)" fill-rule="evenodd"/>
    <path id="Tracé_26" data-name="Tracé 26" d="M20.859,7.41a19.678,19.678,0,0,1-7.842,1.513A19.679,19.679,0,0,1,5.176,7.41q-.454-.2-.872-.425l-.128-.07,0,0A7.366,7.366,0,0,1,1.087,4.022l-.007.04a3.357,3.357,0,0,0-.051.582,3.454,3.454,0,0,0,.2,1.143.2.2,0,0,1,.01.027C1.761,7.28,3.248,8.572,5.338,9.5a19.275,19.275,0,0,0,7.68,1.478,18.449,18.449,0,0,0,8.525-1.889A6.531,6.531,0,0,0,24.8,5.805h0l.006-.018a3.455,3.455,0,0,0,.2-1.143,3.357,3.357,0,0,0-.051-.582l-.007-.04a7.37,7.37,0,0,1-3.089,2.893l-.128.07q-.417.224-.872.425Z" transform="translate(-1.029 5.922)" fill="rgba(87,87,87,0.8)" fill-rule="evenodd"/>
    <path id="Tracé_27" data-name="Tracé 27" d="M20.859,7.9a19.678,19.678,0,0,1-7.842,1.513A19.679,19.679,0,0,1,5.176,7.9q-.454-.2-.872-.425l-.189-.1A7.32,7.32,0,0,1,1.087,4.51l-.007.04a3.357,3.357,0,0,0-.051.582c0,1.724,1.324,3.3,3.463,4.443a18.449,18.449,0,0,0,8.525,1.889,18.449,18.449,0,0,0,8.525-1.889c2.14-1.147,3.463-2.718,3.463-4.443a3.357,3.357,0,0,0-.051-.582l-.007-.04A7.32,7.32,0,0,1,21.921,7.37l-.189.1q-.417.224-.872.425Z" transform="translate(-1.029 7.889)" fill="rgba(87,87,87,0.8)" fill-rule="evenodd"/>
    <path id="Tracé_28" data-name="Tracé 28" d="M3.683,6.684a1.271,1.271,0,0,0,.28.492,1,1,0,0,0,.452.252,2.872,2.872,0,0,0,.751.08V5.575s-.123-.047-.354-.138c-.175-.066-.352-.14-.533-.221a4.446,4.446,0,0,1-.492-.252A2.588,2.588,0,0,1,3.4,4.693a1.617,1.617,0,0,1-.261-.29,1.2,1.2,0,0,1-.152-.3,1.007,1.007,0,0,1-.049-.321,1.161,1.161,0,0,1,.171-.635,1.513,1.513,0,0,1,.473-.464,2.6,2.6,0,0,1,.706-.3,5.043,5.043,0,0,1,.874-.156V1.469h.671V2.2c.239,0,.469.01.687.025s.428.037.629.065.44.072.72.13V3.473h-.78a1.057,1.057,0,0,0-.44-.585A1.6,1.6,0,0,0,5.838,2.7V4.491l.263.1c.21.077.4.152.557.224s.313.149.455.228a2.846,2.846,0,0,1,.393.268,1.657,1.657,0,0,1,.3.311,1.207,1.207,0,0,1,.177.345,1.35,1.35,0,0,1-.232,1.22,1.908,1.908,0,0,1-.786.552A3.928,3.928,0,0,1,5.838,8v.747H5.166V8.013q-.52,0-1.115-.068T2.9,7.771V6.684h.78Zm1.483-2.4V2.73a1.173,1.173,0,0,0-.631.236.591.591,0,0,0-.226.471.613.613,0,0,0,.206.471,2.167,2.167,0,0,0,.65.371Zm.671,1.514v1.67a1.051,1.051,0,0,0,.613-.256.736.736,0,0,0,.016-1.034,1.8,1.8,0,0,0-.629-.38Z" transform="translate(6.518 1.226)" fill="rgba(87,87,87,0.8)"/>
  </g>
  <rect id="Rectangle_25" data-name="Rectangle 25" width="28.74" height="28.74" fill="none"/>
</svg>
