<svg xmlns="http://www.w3.org/2000/svg" width="21.194" height="14.32" viewBox="0 0 21.194 14.32">
  <g id="e-commerce_1_" transform="translate(0)">
    <g id="Groupe_323" data-name="Groupe 323" transform="translate(0 1.146)">
      <g id="Groupe_322" data-name="Groupe 322">
        <g id="Groupe_321" data-name="Groupe 321">
          <path id="Tracé_241" data-name="Tracé 241" d="M21.3,34.573v4.582H15.573V34.573ZM21.874,34H15v5.728h6.874V34Z" transform="translate(-15 -34)" fill="#48ac8f"/>
        </g>
      </g>
    </g>
    <g id="Groupe_326" data-name="Groupe 326" transform="translate(0 8.019)">
      <g id="Groupe_325" data-name="Groupe 325">
        <g id="Groupe_324" data-name="Groupe 324">
          <path id="Tracé_242" data-name="Tracé 242" d="M21.3,46.573v5.155H15.573V46.573ZM21.874,46H15v6.3h6.874V46Z" transform="translate(-15 -46)" fill="#48ac8f"/>
        </g>
      </g>
    </g>
    <g id="Groupe_329" data-name="Groupe 329" transform="translate(10.883 1.146)">
      <g id="Groupe_328" data-name="Groupe 328">
        <g id="Groupe_327" data-name="Groupe 327">
          <path id="Tracé_243" data-name="Tracé 243" d="M42.019,34.573v6.3H34.573v-6.3ZM42.592,34H34v7.446h8.592V34Z" transform="translate(-34 -34)" fill="#48ac8f"/>
        </g>
      </g>
    </g>
    <g id="Groupe_332" data-name="Groupe 332" transform="translate(9.165)">
      <g id="Groupe_330" data-name="Groupe 330" transform="translate(0.573)">
        <path id="Tracé_244" data-name="Tracé 244" d="M32,41.738H42.883V32H32Zm.573-9.165h9.738v8.592H32.573Z" transform="translate(-32 -32)" fill="#48ac8f"/>
      </g>
      <g id="Groupe_331" data-name="Groupe 331" transform="translate(0 10.311)">
        <rect id="Rectangle_102" data-name="Rectangle 102" width="12.029" height="0.573" fill="#48ac8f"/>
      </g>
    </g>
  </g>
</svg>
