<svg id="iconfinder_language-13_4159354" xmlns="http://www.w3.org/2000/svg" width="22.397" height="22.397" viewBox="0 0 22.397 22.397">
  <path id="Tracé_29" data-name="Tracé 29" d="M14.04,17.7a.551.551,0,0,0-.551-.551H12.97l-1.4-3.671a.573.573,0,0,0-1.03,0l-1.4,3.671H8.627a.551.551,0,1,0,0,1.1h.1l-.614,1.612a.552.552,0,0,0,.319.712.585.585,0,0,0,.2.035.552.552,0,0,0,.514-.355l.762-2H12.21l.763,2A.551.551,0,0,0,14,19.859l-.614-1.612h.1A.55.55,0,0,0,14.04,17.7Zm-3.716-.551.734-1.927.734,1.927Z" transform="translate(-4.433 -5.653)" fill="rgba(87,87,87,0.8)"/>
  <path id="Tracé_30" data-name="Tracé 30" d="M18.9,16.25a1.5,1.5,0,0,0,.544-1.18c0-.608-.26-2.02-2.668-2.02a6.415,6.415,0,0,0-1.074.091.55.55,0,0,0-.447.541v6.384a.551.551,0,0,0,.49.548,7.847,7.847,0,0,0,.791.036,6.171,6.171,0,0,0,2.144-.338,2.066,2.066,0,0,0,1.467-1.963A2.181,2.181,0,0,0,18.9,16.25Zm-2.545-2.082c.124-.011.268-.018.42-.018,1.566,0,1.566.692,1.566.919,0,.567-1.029.687-1.655.709-.113,0-.225-.007-.332-.008Zm1.922,5.118a5.1,5.1,0,0,1-1.743.262l-.18,0V16.884h.069l.245,0c2.089.069,2.376.747,2.376,1.468C19.04,18.646,18.953,19.021,18.273,19.286Z" transform="translate(-5.707 -5.651)" fill="rgba(87,87,87,0.8)"/>
  <path id="Tracé_31" data-name="Tracé 31" d="M23.635,14.151h1.094a.551.551,0,1,0,0-1.1H23.635A2.188,2.188,0,0,0,21.42,15.2V18.5a2.189,2.189,0,0,0,2.215,2.156h1.094a.551.551,0,1,0,0-1.1H23.635A1.087,1.087,0,0,1,22.522,18.5V15.2A1.085,1.085,0,0,1,23.635,14.151Z" transform="translate(-6.642 -5.652)" fill="rgba(87,87,87,0.8)"/>
  <path id="Tracé_32" data-name="Tracé 32" d="M25.92,14.719a11.2,11.2,0,1,0-11.2,11.2,11.094,11.094,0,0,0,6.08-1.806l2.465,1.658a.862.862,0,0,0,1.337-.832L24.05,20.9A11.108,11.108,0,0,0,25.92,14.719Zm-3.473,5.468a.863.863,0,0,0-.151.617l.337,2.46-1.354-.911a.86.86,0,0,0-.99.018,9.485,9.485,0,1,1,2.158-2.184Z" transform="translate(-3.522 -3.521)" fill="rgba(87,87,87,0.8)"/>
</svg>
