<svg xmlns="http://www.w3.org/2000/svg" width="32.122" height="37.708" viewBox="0 0 32.122 37.708">
  <g id="Friendship" transform="translate(0 0)">
    <g id="man-man-7">
      <path id="Tracé_226" data-name="Tracé 226" d="M93,513.173v9.776a2.794,2.794,0,0,0,2.793,2.793v12.569a1.4,1.4,0,0,0,1.4,1.4h6.983a1.4,1.4,0,0,0,1.4-1.4V525.743a2.794,2.794,0,0,0,2.793-2.793v-9.776a2.794,2.794,0,0,0-2.793-2.793H104.1a4.888,4.888,0,1,0-6.829,0H95.793A2.794,2.794,0,0,0,93,513.173Zm4.19-6.285a3.492,3.492,0,1,1,3.492,3.492A3.495,3.495,0,0,1,97.19,506.888Zm8.38,4.888a1.4,1.4,0,0,1,1.4,1.4v9.776a1.4,1.4,0,0,1-1.4,1.4v-8.38h-1.4v22.346H101.38V524.346h-1.4v13.966H97.19V515.966h-1.4v8.38a1.4,1.4,0,0,1-1.4-1.4v-9.776a1.4,1.4,0,0,1,1.4-1.4Z" transform="translate(-93 -502)" fill="#575757"/>
      <path id="Tracé_227" data-name="Tracé 227" d="M105,513.173v9.776a2.794,2.794,0,0,0,2.793,2.793v12.569a1.4,1.4,0,0,0,1.4,1.4h6.983a1.4,1.4,0,0,0,1.4-1.4V525.743a2.794,2.794,0,0,0,2.793-2.793v-9.776a2.794,2.794,0,0,0-2.793-2.793H116.1a4.888,4.888,0,1,0-6.829,0h-1.473A2.794,2.794,0,0,0,105,513.173Zm4.19-6.285a3.492,3.492,0,1,1,3.492,3.492A3.495,3.495,0,0,1,109.19,506.888Zm8.38,4.888a1.4,1.4,0,0,1,1.4,1.4v9.776a1.4,1.4,0,0,1-1.4,1.4v-8.38h-1.4v22.346H113.38V524.346h-1.4v13.966H109.19V515.966h-1.4v8.38a1.4,1.4,0,0,1-1.4-1.4v-9.776a1.4,1.4,0,0,1,1.4-1.4Z" transform="translate(-88.241 -502)" fill="#575757"/>
    </g>
  </g>
</svg>
