<svg xmlns="http://www.w3.org/2000/svg" width="28.195" height="29.057" viewBox="0 0 28.195 29.057">
  <path id="Tracé_240" data-name="Tracé 240" d="M17.917,40.857l-4.186-.1a.574.574,0,0,1-.542-.492L12.5,34.5a.794.794,0,0,1,.148-.443.99.99,0,0,1,.394-.2h2.364V31.549a.508.508,0,0,1,.542-.542h2.265V28.742a.508.508,0,0,1,.542-.542H21.02l-.049-3.152a.559.559,0,0,1,.148-.394l2.118-2.118A8.783,8.783,0,0,1,31.855,11.8a8.956,8.956,0,0,1,6.255,2.561A8.791,8.791,0,0,1,31.9,29.382a12.712,12.712,0,0,1-1.97-.2L18.311,40.71a.559.559,0,0,1-.394.148Zm-2.906-1.182,2.709.1L29.343,28.151A.556.556,0,0,1,29.885,28a6.882,6.882,0,0,0,2.019.246,7.593,7.593,0,0,0,5.417-2.216,7.758,7.758,0,0,0,0-10.933,7.688,7.688,0,0,0-12.854,7.535.556.556,0,0,1-.148.542L22.1,25.344l.049,3.447a.508.508,0,0,1-.542.542H19.346V31.6a.508.508,0,0,1-.542.542H16.538v2.315A.508.508,0,0,1,16,35H13.682l.492,4.038L24.812,28.4a.557.557,0,0,1,.788.788L15.012,39.675Zm19.06-18.518a2.874,2.874,0,0,1-2.019-.837,2.824,2.824,0,0,1,0-4.038,2.856,2.856,0,1,1,2.019,4.876Zm0-4.629a1.749,1.749,0,0,0-1.231.492,1.784,1.784,0,0,0,0,2.512,1.71,1.71,0,0,0,1.231.492,1.842,1.842,0,0,0,1.231-.492A1.71,1.71,0,0,0,35.8,18.3,1.749,1.749,0,0,0,35.3,17.07a1.6,1.6,0,0,0-1.231-.542Z" transform="translate(-12.5 -11.8)" fill="#575757"/>
</svg>
