<svg xmlns="http://www.w3.org/2000/svg" width="31" height="31" viewBox="0 0 31 31">
  <path id="path" d="M13.97,14.091l5.345-5.345a1.409,1.409,0,0,0-1.993-1.993L9.572,14.5a1.409,1.409,0,0,0,0,1.993l7.75,7.75a1.409,1.409,0,1,0,1.993-1.993L13.97,16.909H29.6a1.409,1.409,0,0,0,0-2.818ZM16.909,2.818a1.409,1.409,0,1,0,0-2.818H3.529A3.526,3.526,0,0,0,0,3.527V27.473A3.527,3.527,0,0,0,3.529,31h13.38a1.409,1.409,0,1,0,0-2.818H3.529a.709.709,0,0,1-.711-.709V3.527a.708.708,0,0,1,.711-.709Z" fill="#48ab8f"/>
</svg>
