<svg xmlns="http://www.w3.org/2000/svg" width="79.5" height="88.286" viewBox="0 0 79.5 88.286">
  <g id="iconfinder_customer_service_support_centre_3200458" transform="translate(-30.949 -5.492)">
    <path id="Tracé_4" data-name="Tracé 4" d="M110.443,144.5c-.149-4.932-6.321-12.995-11.673-13.7-5.287-.683-9.183-3.532-12.3-6.227a3.3,3.3,0,0,0-2.1-.977,2.578,2.578,0,0,0-2.084,1.354,35.376,35.376,0,0,1-6.066,6.26c-1.122.981-2.283,1.993-3.352,3.063a1.6,1.6,0,0,1-1.048.579,1.308,1.308,0,0,1-.922-.528,27.157,27.157,0,0,0-3.726-3.222c-.769-.588-1.539-1.175-2.27-1.812-3.639-3.159-5.15-6.719-4.618-10.886a3.669,3.669,0,0,0,.016-.43c0-.291,0-.593.14-.732a.487.487,0,0,1,.36-.11,1.652,1.652,0,0,1,.239.019,5.176,5.176,0,0,0,.815.076,1.632,1.632,0,0,0,1.729-1.2c.444-1.393-.539-2.136-1.407-2.791l-.17-.128a27.031,27.031,0,0,1-8.35-10.757,11.452,11.452,0,0,1-.416-9.012C55,88.554,57.149,85.36,60.332,82.9c.522-.408.837-.653,1.122-.653.256,0,.553.2,1.063.708,6.968,6.915,13.453,11.3,20.409,13.806,1.639.593,2.149,1.475,1.816,3.147l-.214,1.144c-.789,4.241-1.536,8.247-4.975,11.251a2.1,2.1,0,0,0-.781,1.467,1.779,1.779,0,0,0,.545,1.33,1.688,1.688,0,0,0,1.24.563,2.673,2.673,0,0,0,1.579-.637,12.444,12.444,0,0,0,4.2-5.649,35.43,35.43,0,0,0,2.234-9.423c.1-1.214.235-1.983,1.27-2.446a1.683,1.683,0,0,0,.993-2.138,1.731,1.731,0,0,0-1.73-1.262c-4.425-.2-8.159-2.061-12.405-4.8-7.492-4.824-13.072-9.539-15.956-16.874-.464-1.205-1.086-1.791-1.9-1.791a2.195,2.195,0,0,0-.859.2,1.871,1.871,0,0,0-1.072,1.035,2.753,2.753,0,0,0,.235,2.1c.548,1.2,1.177,2.369,1.843,3.613.313.583.635,1.183.963,1.814a7.773,7.773,0,0,0-2.968,1.331c-4.677,3.646-7.337,8.667-8.134,15.352-.717,5.962,2.3,10.79,5.669,15.12,2.071,2.666,1.915,5.688,1.764,8.61a23.144,23.144,0,0,0,.068,4.6c.014.075-.18.273-.3.391a3.2,3.2,0,0,0-.275.307c-2.058,2.8-4.533,5.432-8.667,5.7a13.794,13.794,0,0,0-3.1.675,18.771,18.771,0,0,1-2.239.575c-4.775.782-7.964,3.605-9.749,8.63-.1.287-.238.6-.378.916-.442,1.008-.943,2.149-.57,3.042a1.988,1.988,0,0,0,1.212,1.046,2.346,2.346,0,0,0,.839.173c1.305,0,1.717-1.417,2.08-2.667.1-.351.2-.692.315-.98,1.414-3.591,3.735-5.677,7.094-6.377,1.762-.367,3.513-.8,5.263-1.221,1.041-.253,2.083-.507,3.126-.75a4.548,4.548,0,0,1,1.017-.127,3.014,3.014,0,0,1,2.338,1.114c1.725,1.912,3.531,3.8,5.276,5.62q1.4,1.461,2.8,2.935c1.177,1.252,2.065,1.786,2.97,1.786.868,0,1.782-.511,2.963-1.662l.335-.326c1.32-1.294,2.047-2.006,2.624-2.006.618,0,1.238.836,2.472,2.5l.224.3a5.759,5.759,0,0,0,1.071,1.209,2.519,2.519,0,0,0,1.471.545,1.333,1.333,0,0,0,1.143-.57,20.524,20.524,0,0,1,3.727-3.821,16.363,16.363,0,0,0,4.386-4.961c1.132-2.316,2.64-3.4,4.742-3.4a8.83,8.83,0,0,1,2.469.4,11.066,11.066,0,0,0,1.558.32c6.508.859,10.409,4.586,11.928,11.4.231,1.058.659,2.269,1.947,2.269a2.32,2.32,0,0,0,.411-.037C110.508,147.091,110.466,145.469,110.443,144.5ZM85.736,129.462l-.146.308a5.082,5.082,0,0,1-.3.583,35.48,35.48,0,0,1-7.807,9.216,1.723,1.723,0,0,1-1.02.494,1.308,1.308,0,0,1-.932-.552c-.7-.8-1.1-1.38-.263-2.2,1.146-1.112,2.383-2.17,3.581-3.195a51.128,51.128,0,0,0,5.386-5.081.831.831,0,0,1,.6-.341C85.173,128.689,85.507,129.03,85.736,129.462ZM64.458,139.9c-.1-.123-.195-.244-.291-.346-.993-1.031-1.971-2.084-2.948-3.138-1.332-1.435-2.665-2.872-4.043-4.26a2.012,2.012,0,0,1-.733-1.393c.01-.67.594-1.224,1.16-1.756l.294-.282a1.246,1.246,0,0,1,.784-.453c.393,0,.673.514.92.969a4.992,4.992,0,0,0,.3.5,19.972,19.972,0,0,0,4.409,4.084,29.487,29.487,0,0,1,3.019,2.49l.277.255a2.425,2.425,0,0,1,.9,1.211,7.7,7.7,0,0,1-2.668,2.695.779.779,0,0,1-.427.149C65.045,140.624,64.747,140.254,64.458,139.9Z" transform="translate(0 -53.647)" fill="#575757" fill-rule="evenodd"/>
    <path id="Tracé_5" data-name="Tracé 5" d="M66.277,53.69a7.424,7.424,0,0,0,.925.063c1.862,0,2.679-.953,2.733-3.186.077-3.582.072-7.1-.016-10.453a45.96,45.96,0,0,1,2.92-17.538,19.169,19.169,0,0,1,8.794-10.147A21.979,21.979,0,0,1,92.66,9.481c9.53,0,18.091,5.964,20.822,14.5a36.974,36.974,0,0,1,1.99,13.918,38.623,38.623,0,0,1-.763,10.234,75.145,75.145,0,0,1-2.445,8.518A13.407,13.407,0,0,1,103,65.6l-.243.07a3.726,3.726,0,0,1-.982.2.8.8,0,0,1-.753-.417c-1.391-2.323-3.471-2.636-5.323-2.636-.552,0-1.114.029-1.676.058l-.336.018a4.814,4.814,0,0,0-4.86,4.767,5.048,5.048,0,0,0,4.35,5.573,13.194,13.194,0,0,0,1.833.138,6.681,6.681,0,0,0,5.286-2.2,6.449,6.449,0,0,1,3.346-1.74c6.419-1.653,10.6-5.823,12.785-12.75a2.594,2.594,0,0,1,2.751-2.2c3.745-.185,6.06-2.068,6.886-5.6a19.516,19.516,0,0,0-.773-11.4c-.71-1.912-1.815-2.957-3.2-3.023-2.464-.15-2.7-1.713-2.977-3.522l-.039-.261c-.854-5.649-2.312-9.962-4.594-13.574-3.5-5.589-11.829-11.605-21.836-11.605a23.077,23.077,0,0,0-7.273,1.166c-7.56,2.514-12.319,6.3-14.976,11.93a45.178,45.178,0,0,0-4.088,12.957c-.211,1.465-.743,2.006-2.1,2.143-2.425.23-3.989,1.8-4.4,4.409a56.714,56.714,0,0,0-.709,7.281C58.991,51.069,60.669,53.01,66.277,53.69Zm-1.47-15.947.094.152c.719.059.894.566.944,1.36l.079,1.624c.112,2.317.224,4.641.3,6.953l.012.289c.041.812.01,1.313-.769,1.407a2.363,2.363,0,0,1-.3.019A1.838,1.838,0,0,1,63.4,48.239a7.34,7.34,0,0,1-.281-2.82c.012-.421.024-.843.006-1.261a17.982,17.982,0,0,1,.536-5.123c.209-.791.559-1.143,1.134-1.143v-.148Zm55.8.654c.547,0,.958.352,1.221,1.046a12.284,12.284,0,0,1,.906,4.747c-.031,3-.247,5.2-2.769,6.28a2.76,2.76,0,0,1-1,.267.508.508,0,0,1-.406-.152,1.676,1.676,0,0,1-.143-1.231c.13-.98.3-1.956.469-2.933a34.341,34.341,0,0,0,.706-6.621c-.016-.776.123-1.31.857-1.395A1.429,1.429,0,0,1,120.6,38.4Z" transform="translate(-23.171)" fill="#575757" fill-rule="evenodd"/>
  </g>
</svg>
