<svg xmlns="http://www.w3.org/2000/svg" width="37.203" height="37.203" viewBox="0 0 37.203 37.203">
  <path id="room" d="M31.778,11.393V.775a.775.775,0,0,0-1.55,0V2.713H6.2V.775A.732.732,0,0,0,5.425,0,.732.732,0,0,0,4.65.775V11.393L0,26.895v9.533a.732.732,0,0,0,.775.775H5.038a.732.732,0,0,0,.775-.775,1.472,1.472,0,0,1,1.473-1.473H29.84a1.472,1.472,0,0,1,1.473,1.473.732.732,0,0,0,.775.775h4.34a.732.732,0,0,0,.775-.775v-9.3C37.2,26.817,31.778,11.393,31.778,11.393ZM6.2,4.263H30.228V10.7H29.3a2.23,2.23,0,0,0-.233-1.24,2.884,2.884,0,0,0-1.55-1.473L23.639,6.511a2.127,2.127,0,0,0-1.008-.155A2.858,2.858,0,0,0,20,8.138l-.465,1.24a2.677,2.677,0,0,0-.155,1.318H17.9a2.23,2.23,0,0,0-.233-1.24,2.884,2.884,0,0,0-1.55-1.473L12.246,6.511a2.127,2.127,0,0,0-1.008-.155A2.858,2.858,0,0,0,8.6,8.138l-.465,1.24A2.677,2.677,0,0,0,7.983,10.7H6.2ZM27.67,11.006l-.465,1.24a1.193,1.193,0,0,1-1.163.775,39.113,39.113,0,0,1-4.96-2.015A1.159,1.159,0,0,1,21,10l.465-1.24a1.292,1.292,0,0,1,1.628-.7l3.875,1.473A1.079,1.079,0,0,1,27.67,11.006Zm-11.393,0-.465,1.24a1.216,1.216,0,0,1-1.628.7c-1.55-.62-3.255-1.318-4.108-1.705-.233-.078-.853-.233-.543-1.24L10,8.758a1.292,1.292,0,0,1,1.628-.7L15.5,9.533A1.11,1.11,0,0,1,16.276,11.006ZM5.968,12.246h2.79a38.663,38.663,0,0,0,4.805,2.093,2.127,2.127,0,0,0,1.008.155,2.858,2.858,0,0,0,2.635-1.783l.233-.543h2.79a38.663,38.663,0,0,0,4.805,2.093,2.841,2.841,0,0,0,3.643-1.55l.233-.543h1.628l4.805,14.184H1.783ZM35.653,35.653h-2.79a3,3,0,0,0-2.945-2.248H7.286A3,3,0,0,0,4.34,35.653H1.55V27.9h34.1Z" fill="#575757"/>
</svg>
