<svg xmlns="http://www.w3.org/2000/svg" width="28.31" height="38.209" viewBox="0 0 28.31 38.209">
  <g id="Student2" transform="translate(0.25 0.25)">
    <path id="Tracé_197" data-name="Tracé 197" d="M29.348,28.783l.236.118.236-.118-.059-.059,4.007-2.062V24.6c-1.061,1.709-2.534,2.946-4.183,2.946S26.4,26.309,25.4,24.6v2.062l3.948,2.121Z" transform="translate(-15.678 -10.4)" fill="none" stroke="#575757" stroke-linejoin="round" stroke-miterlimit="10" stroke-width="0.5"/>
    <path id="Tracé_198" data-name="Tracé 198" d="M27.135,34.3a9.348,9.348,0,0,1,1.591,1.532h0a7.657,7.657,0,0,1,2-1.827l3.358-5.3-2.651,4.124L29.08,30.409l-.236.118-.236-.118-2.357,2.416L23.6,28.7Z" transform="translate(-14.939 -12.085)" fill="none" stroke="#575757" stroke-linejoin="round" stroke-miterlimit="10" stroke-width="0.5"/>
    <path id="Tracé_199" data-name="Tracé 199" d="M24.753,34.3l-3.535-5.6L17.8,30.055l2.062,2A15.952,15.952,0,0,1,24.753,34.3Z" transform="translate(-12.556 -12.085)" fill="none" stroke="#575757" stroke-linejoin="round" stroke-miterlimit="10" stroke-width="0.5"/>
    <path id="Tracé_200" data-name="Tracé 200" d="M11.236,36.9,11,37.725h.236Z" transform="translate(-9.763 -15.453)" fill="none" stroke="#575757" stroke-linejoin="round" stroke-miterlimit="10" stroke-width="0.5"/>
    <path id="Tracé_201" data-name="Tracé 201" d="M14.044,32.355c1.3.177,2.475.412,3.476.648l-2.062-2-1.061.412a4.491,4.491,0,0,0-2.3,2.121c.707.059,1.355.118,2,.177V32.355Z" transform="translate(-10.215 -13.03)" fill="none" stroke="#575757" stroke-linejoin="round" stroke-miterlimit="10" stroke-width="0.5"/>
    <path id="Tracé_202" data-name="Tracé 202" d="M26.192,32.637l2.416-2.416v-.059l-3.948-2-.118-.059-.943.354Z" transform="translate(-14.939 -11.838)" fill="none" stroke="#575757" stroke-linejoin="round" stroke-miterlimit="10" stroke-width="0.5"/>
    <path id="Tracé_203" data-name="Tracé 203" d="M35.7,34a14.8,14.8,0,0,1,4.772-2l2-1.944L39.058,28.7Z" transform="translate(-19.91 -12.085)" fill="none" stroke="#575757" stroke-linejoin="round" stroke-miterlimit="10" stroke-width="0.5"/>
    <path id="Tracé_204" data-name="Tracé 204" d="M46.982,32.355V33.71c.707-.059,1.414-.118,2.18-.177a4.491,4.491,0,0,0-2.3-2.121L45.8,31l-2,1.944C44.743,32.709,45.8,32.532,46.982,32.355Z" transform="translate(-23.237 -13.03)" fill="none" stroke="#575757" stroke-linejoin="round" stroke-miterlimit="10" stroke-width="0.5"/>
    <path id="Tracé_205" data-name="Tracé 205" d="M53.671,37.255l-.412-1.237A.206.206,0,0,0,53.2,35.9v1.473Z" transform="translate(-27.099 -15.042)" fill="none" stroke="#575757" stroke-linejoin="round" stroke-miterlimit="10" stroke-width="0.5"/>
    <path id="Tracé_206" data-name="Tracé 206" d="M32.9,30.221l2.416,2.416,2.592-4.183-.943-.354-.118.059-3.948,2Z" transform="translate(-18.759 -11.838)" fill="none" stroke="#575757" stroke-linejoin="round" stroke-miterlimit="10" stroke-width="0.5"/>
    <path id="Tracé_207" data-name="Tracé 207" d="M41.8,16.578A2.08,2.08,0,0,0,43.214,15.1c.354-1,.118-2-.471-2.239a1.064,1.064,0,0,0-.825.118,9.777,9.777,0,0,1,.118,1.414A9.153,9.153,0,0,1,41.8,16.578Z" transform="translate(-22.415 -5.56)" fill="none" stroke="#575757" stroke-linejoin="round" stroke-miterlimit="10" stroke-width="0.5"/>
    <path id="Tracé_208" data-name="Tracé 208" d="M21.971,12.975a.864.864,0,0,0-.825-.118c-.648.236-.825,1.237-.471,2.239a2.08,2.08,0,0,0,1.414,1.473,9.152,9.152,0,0,1-.236-2.18A11.442,11.442,0,0,1,21.971,12.975Z" transform="translate(-13.664 -5.551)" fill="none" stroke="#575757" stroke-linejoin="round" stroke-miterlimit="10" stroke-width="0.5"/>
    <path id="Tracé_209" data-name="Tracé 209" d="M28.762,22.74c1.65,0,3.182-1.237,4.183-2.946a11.65,11.65,0,0,0,1.3-3.182,9.152,9.152,0,0,0,.236-2.18,9.776,9.776,0,0,0-.118-1.414c0-.059,0-.059-.059-.118a1.288,1.288,0,0,1-.295.177,26.116,26.116,0,0,1-5.126,1.709h-.354a16.484,16.484,0,0,1-3.358-1l.648,3.417H23.4a10.549,10.549,0,0,0,1.119,2.651A5.338,5.338,0,0,0,28.762,22.74Z" transform="translate(-14.857 -5.594)" fill="none" stroke="#575757" stroke-linejoin="round" stroke-miterlimit="10" stroke-width="0.5"/>
    <path id="Tracé_210" data-name="Tracé 210" d="M23.743,13.725a.877.877,0,0,1-.236-.53c-.059-.059-.177-.059-.236-.118-.118-.059-.177-.118-.295-.177,0,.059,0,.118-.059.118a9.776,9.776,0,0,0-.118,1.414,9.153,9.153,0,0,0,.236,2.18.837.837,0,0,0,.118.354Z" transform="translate(-14.61 -5.594)" fill="none" stroke="#575757" stroke-linejoin="round" stroke-miterlimit="10" stroke-width="0.5"/>
    <path id="Tracé_211" data-name="Tracé 211" d="M29.889,9.073h-.118l-3.535-1L26,8.13v1.944a.924.924,0,0,1,.53.825.946.946,0,0,1-.295.648v.059a30.157,30.157,0,0,0,3.358,1h.354A21.8,21.8,0,0,0,35.074,10.9c.118-.059.177-.118.295-.177a.973.973,0,0,0,.295-.884A5.616,5.616,0,0,0,34.9,7.6Z" transform="translate(-15.925 -3.417)" fill="none" stroke="#575757" stroke-linejoin="round" stroke-miterlimit="10" stroke-width="0.5"/>
    <path id="Tracé_212" data-name="Tracé 212" d="M23.038,10.9c.059.059.177.059.236.118V10.9a.924.924,0,0,1,.53-.825v-2.3L23.155,7.6a5.616,5.616,0,0,0-.766,2.239.973.973,0,0,0,.295.884A.959.959,0,0,1,23.038,10.9Z" transform="translate(-14.435 -3.417)" fill="none" stroke="#575757" stroke-linejoin="round" stroke-miterlimit="10" stroke-width="0.5"/>
    <path id="Tracé_213" data-name="Tracé 213" d="M21.657,4.624l3.417-1.3c0-.295.412-.589.884-.589s.884.236.884.589c0,.295-.412.589-.884.589a.747.747,0,0,1-.354-.059l-3.3,1.3,3.535,1h.118l5.067-1.473L35.149,3.5a.184.184,0,0,0,0-.354L26.017.5H25.9L16.708,3.151a.184.184,0,0,0,0,.354l4.124,1.178.648.177C21.539,4.8,21.6,4.683,21.657,4.624Z" transform="translate(-12.053 -0.5)" fill="none" stroke="#575757" stroke-linejoin="round" stroke-miterlimit="10" stroke-width="0.5"/>
    <path id="Tracé_214" data-name="Tracé 214" d="M25.548,9.13V7.185l.177-.059,3.3-1.3c-.295-.118-.53-.295-.53-.53h0L25.077,6.6c-.118.059-.177.118-.177.236v2.3a.747.747,0,0,1,.354-.059A.641.641,0,0,1,25.548,9.13Z" transform="translate(-15.473 -2.472)" fill="none" stroke="#575757" stroke-linejoin="round" stroke-miterlimit="10" stroke-width="0.5"/>
    <path id="Tracé_215" data-name="Tracé 215" d="M31.53,5.419c.118,0,.236.059.354.059.471,0,.884-.236.884-.589,0-.295-.412-.589-.884-.589S31,4.536,31,4.889h0C31,5.125,31.236,5.3,31.53,5.419Z" transform="translate(-17.979 -2.061)" fill="none" stroke="#575757" stroke-linejoin="round" stroke-miterlimit="10" stroke-width="0.5"/>
    <path id="Tracé_216" data-name="Tracé 216" d="M25.227,14.359V14.3a.756.756,0,0,1-.589.236.9.9,0,0,1-.589-.236l-.589,3.3-.059.177h2.475Z" transform="translate(-14.857 -6.169)" fill="none" stroke="#575757" stroke-linejoin="round" stroke-miterlimit="10" stroke-width="0.5"/>
    <path id="Tracé_217" data-name="Tracé 217" d="M25.768,12.584a.924.924,0,0,0-.53-.825,1.09,1.09,0,0,0-.707,0,.924.924,0,0,0-.53.825V12.7a.747.747,0,0,0,.236.53.756.756,0,0,0,.589.236.9.9,0,0,0,.589-.236A.814.814,0,0,0,25.768,12.584Z" transform="translate(-15.103 -5.101)" fill="none" stroke="#575757" stroke-linejoin="round" stroke-miterlimit="10" stroke-width="0.5"/>
    <path id="Tracé_218" data-name="Tracé 218" d="M42.257,34.655V33.3a21.957,21.957,0,0,0-3.182.589,14.8,14.8,0,0,0-4.772,2,7.728,7.728,0,0,0-2,1.827h0C32.595,37.542,35.894,35.362,42.257,34.655Z" transform="translate(-18.513 -13.974)" fill="none" stroke="#575757" stroke-linejoin="round" stroke-miterlimit="10" stroke-width="0.5"/>
    <path id="Tracé_219" data-name="Tracé 219" d="M32.4,38.5l12.314-1.473V35.2h-.177c-.766.059-1.473.118-2.18.177C35.935,36.143,32.636,38.323,32.4,38.5Z" transform="translate(-18.554 -14.755)" fill="none" stroke="#575757" stroke-linejoin="round" stroke-miterlimit="10" stroke-width="0.5"/>
    <path id="Tracé_220" data-name="Tracé 220" d="M23.767,36.187a14.667,14.667,0,0,0-4.89-2.239A18.289,18.289,0,0,0,15.4,33.3v1.355c6.363.707,9.663,2.887,9.9,3.064h0A5,5,0,0,0,23.767,36.187Z" transform="translate(-11.57 -13.974)" fill="none" stroke="#575757" stroke-linejoin="round" stroke-miterlimit="10" stroke-width="0.5"/>
    <path id="Tracé_221" data-name="Tracé 221" d="M23.714,38.541c-.236-.177-3.535-2.3-9.9-3.064-.648-.059-1.3-.118-2-.177H11.4v1.827Z" transform="translate(-9.927 -14.796)" fill="none" stroke="#575757" stroke-linejoin="round" stroke-miterlimit="10" stroke-width="0.5"/>
    <path id="Tracé_222" data-name="Tracé 222" d="M45.027,47.6c-.707,0-1.3-1.119-1.3-2.475s.589-2.475,1.3-2.475a1.025,1.025,0,0,1,.825.53L46.146,38l-1.061.118-.471.059L32.3,39.65h0V53.614l13.08-1.532.236-4.772A.818.818,0,0,1,45.027,47.6Z" transform="translate(-18.513 -15.905)" fill="none" stroke="#575757" stroke-linejoin="round" stroke-miterlimit="10" stroke-width="0.5"/>
    <path id="Tracé_223" data-name="Tracé 223" d="M22.687,39.65h0L10.373,38.177h-.236L8.9,38l.295,5.538c.236-.53.589-.884,1-.884.707,0,1.3,1.119,1.3,2.475S10.9,47.6,10.2,47.6a1.111,1.111,0,0,1-.825-.589l.295,5.067,13.08,1.532V39.65Z" transform="translate(-8.9 -15.905)" fill="none" stroke="#575757" stroke-linejoin="round" stroke-miterlimit="10" stroke-width="0.5"/>
    <path id="Tracé_224" data-name="Tracé 224" d="M53,45.9c-.707,0-1.3,1.119-1.3,2.475s.589,2.475,1.3,2.475a1.047,1.047,0,0,0,.589-.236,3.209,3.209,0,0,0,.707-2.18,3.3,3.3,0,0,0-.53-1.944A.846.846,0,0,0,53,45.9Z" transform="translate(-26.482 -19.15)" fill="none" stroke="#575757" stroke-linejoin="round" stroke-miterlimit="10" stroke-width="0.5"/>
    <path id="Tracé_225" data-name="Tracé 225" d="M10.2,50.849c.707,0,1.3-1.119,1.3-2.475S10.9,45.9,10.2,45.9c-.412,0-.766.354-1,.884A3.941,3.941,0,0,0,8.9,48.316,3.423,3.423,0,0,0,9.371,50.2C9.607,50.614,9.9,50.849,10.2,50.849Z" transform="translate(-8.9 -19.15)" fill="none" stroke="#575757" stroke-linejoin="round" stroke-miterlimit="10" stroke-width="0.5"/>
  </g>
</svg>
