<svg xmlns="http://www.w3.org/2000/svg" width="32.225" height="30.498" viewBox="0 0 32.225 30.498">
  <g id="Layer_1" transform="translate(0 -6)" opacity="0.8">
    <g id="Home" transform="translate(0 6)">
      <g id="e-commerce_1_" transform="translate(6.448 15.032)">
        <g id="Groupe_323" data-name="Groupe 323" transform="translate(0 1.146)">
          <g id="Groupe_322" data-name="Groupe 322">
            <g id="Groupe_321" data-name="Groupe 321">
              <path id="Tracé_241" data-name="Tracé 241" d="M21.3,34.573v4.582H15.573V34.573ZM21.874,34H15v5.728h6.874V34Z" transform="translate(-15 -34)" fill="#48ac8f"/>
            </g>
          </g>
        </g>
        <g id="Groupe_326" data-name="Groupe 326" transform="translate(0 8.019)">
          <g id="Groupe_325" data-name="Groupe 325">
            <g id="Groupe_324" data-name="Groupe 324">
              <path id="Tracé_242" data-name="Tracé 242" d="M21.3,46.573v5.155H15.573V46.573ZM21.874,46H15v6.3h6.874V46Z" transform="translate(-15 -46)" fill="#48ac8f"/>
            </g>
          </g>
        </g>
        <g id="Groupe_329" data-name="Groupe 329" transform="translate(10.883 1.146)">
          <g id="Groupe_328" data-name="Groupe 328">
            <g id="Groupe_327" data-name="Groupe 327">
              <path id="Tracé_243" data-name="Tracé 243" d="M42.019,34.573v6.3H34.573v-6.3ZM42.592,34H34v7.446h8.592V34Z" transform="translate(-34 -34)" fill="#48ac8f"/>
            </g>
          </g>
        </g>
        <g id="Groupe_332" data-name="Groupe 332" transform="translate(9.165)">
          <g id="Groupe_330" data-name="Groupe 330" transform="translate(0.573)">
            <path id="Tracé_244" data-name="Tracé 244" d="M32,41.738H42.883V32H32Zm.573-9.165h9.738v8.592H32.573Z" transform="translate(-32 -32)" fill="#48ac8f"/>
          </g>
          <g id="Groupe_331" data-name="Groupe 331" transform="translate(0 10.311)">
            <rect id="Rectangle_102" data-name="Rectangle 102" width="12.029" height="0.573" fill="#48ac8f"/>
          </g>
        </g>
      </g>
      <g id="Groupe_333" data-name="Groupe 333" transform="translate(1.146 29.925)">
        <rect id="Rectangle_103" data-name="Rectangle 103" width="29.933" height="0.573" fill="#48ac8f"/>
      </g>
      <g id="Groupe_334" data-name="Groupe 334" transform="translate(5.188 15.032)">
        <path id="Tracé_245" data-name="Tracé 245" d="M21.592,32H13V46.893h.573V32.573h8.019v14.32h.573V32Z" transform="translate(-13 -32)" fill="#48ac8f"/>
      </g>
      <g id="Groupe_337" data-name="Groupe 337">
        <g id="Groupe_335" data-name="Groupe 335" transform="translate(22.459 1.146)">
          <path id="Tracé_246" data-name="Tracé 246" d="M43.573,12.619V8.573H47.01V15.32l.573.45V8H43v4.169Z" transform="translate(-43 -8)" fill="#48ac8f"/>
        </g>
        <path id="Tracé_247" data-name="Tracé 247" d="M9,29.417V46.167h.573V28.959Z" transform="translate(-6.136 -15.668)" fill="#48ac8f"/>
        <path id="Tracé_248" data-name="Tracé 248" d="M54,28.959V46.167h.573V29.417Z" transform="translate(-25.212 -15.668)" fill="#48ac8f"/>
        <g id="Groupe_336" data-name="Groupe 336">
          <path id="Tracé_249" data-name="Tracé 249" d="M20.112,6.729,35.426,18.706l-1.032,1.371L20.472,8.989l-.36-.286-.36.286L5.83,20.077,4.8,18.706,20.112,6.729Zm0-.729L4,18.6l1.726,2.291L20.112,9.437,34.5,20.893,36.225,18.6,20.112,6Z" transform="translate(-4 -6)" fill="#48ac8f"/>
        </g>
      </g>
    </g>
  </g>
</svg>
