<svg xmlns="http://www.w3.org/2000/svg" width="32" height="31.864" viewBox="0 0 32 31.864">
  <g id="Bulding2" opacity="0.8">
    <path id="Tracé_143" data-name="Tracé 143" d="M41.58,53V21.791H30.645v7.828l-9.27-4.126v4.126L12.1,25.494V53H10.842v.652h32V53ZM22,26.48l8.645,3.848v3.161H22Zm-9.27,0,8.645,3.847v3.161H12.73ZM30.645,53H15.734V48.492H30.645V53Zm10.31,0H31.27V47.841H15.109V53H12.73V34.14H40.955V53Zm0-19.515H31.27V22.443h9.684V33.489Z" transform="translate(-10.842 -21.791)" fill="#48ac8f"/>
    <path id="Tracé_144" data-name="Tracé 144" d="M99.435,246.314v-3.267H76.22v3.267H99.435Zm-22.317-2.369H98.536v1.471H77.118Z" transform="translate(-68.396 -228.99)" fill="#48ac8f"/>
    <path id="Tracé_145" data-name="Tracé 145" d="M99.435,294.671V291.4H76.22v3.266H99.435ZM77.118,292.3H98.536v1.471H77.118Z" transform="translate(-68.396 -274.036)" fill="#48ac8f"/>
    <path id="Tracé_146" data-name="Tracé 146" d="M99.435,345.412v-3.266H76.22v3.266H99.435Zm-22.317-2.368H98.536v1.47H77.118Z" transform="translate(-68.396 -321.302)" fill="#48ac8f"/>
  </g>
</svg>
