<svg xmlns="http://www.w3.org/2000/svg" width="27" height="27" viewBox="0 0 27 27">
  <g id="icon_chat-room" transform="translate(0 0.484)">
    <path id="Union_11" data-name="Union 11" d="M16.875,21.938H8.438l3.085-3.376H21.938a1.687,1.687,0,0,0,1.687-1.687V6.751h1.687A1.687,1.687,0,0,1,27,8.438V20.249a1.689,1.689,0,0,1-1.687,1.689H21.938V27ZM5.062,15.187H1.687A1.688,1.688,0,0,1,0,13.5V1.687A1.688,1.688,0,0,1,1.687,0H18.562a1.687,1.687,0,0,1,1.687,1.687V13.5a1.687,1.687,0,0,1-1.687,1.687H10.125L5.062,20.249Z" transform="translate(0 -0.484)" fill="silver"/>
  </g>
</svg>
