<svg xmlns="http://www.w3.org/2000/svg" width="31.536" height="31.536" viewBox="0 0 31.536 31.536">
  <path id="path" d="M15.97,16.091l5.345-5.345a1.409,1.409,0,0,0-1.993-1.993l-7.75,7.75a1.409,1.409,0,0,0,0,1.993l7.75,7.75a1.409,1.409,0,1,0,1.993-1.993L15.97,18.909H31.6a1.409,1.409,0,0,0,0-2.818ZM18.909,4.818a1.409,1.409,0,1,0,0-2.818H5.529A3.526,3.526,0,0,0,2,5.527V29.473A3.527,3.527,0,0,0,5.529,33h13.38a1.409,1.409,0,1,0,0-2.818H5.529a.709.709,0,0,1-.711-.709V5.527a.708.708,0,0,1,.711-.709Z" transform="matrix(-1, 0.017, -0.017, -1, 33.571, 32.96)" fill="#48ab8f"/>
</svg>
