<svg id="Groupe_337" data-name="Groupe 337" xmlns="http://www.w3.org/2000/svg" width="32.225" height="30.498" viewBox="0 0 32.225 30.498">
  <g id="Groupe_335" data-name="Groupe 335" transform="translate(22.459 1.146)">
    <path id="Tracé_246" data-name="Tracé 246" d="M43.573,12.619V8.573H47.01V15.32l.573.45V8H43v4.169Z" transform="translate(-43 -8)" fill="#48ac8f"/>
  </g>
  <g id="Groupe_3118" data-name="Groupe 3118">
    <path id="Tracé_248" data-name="Tracé 248" d="M54,28.959V46.167h.573V29.417Z" transform="translate(-25.212 -15.668)" fill="#48ac8f"/>
    <g id="Groupe_3117" data-name="Groupe 3117">
      <path id="Tracé_247" data-name="Tracé 247" d="M9,29.417V46.167h.573V28.959Z" transform="translate(-6.136 -15.668)" fill="#48ac8f"/>
      <g id="Groupe_336" data-name="Groupe 336">
        <path id="Tracé_249" data-name="Tracé 249" d="M20.112,6.729,35.426,18.706l-1.032,1.371L20.472,8.989l-.36-.286-.36.286L5.83,20.077,4.8,18.706,20.112,6.729Zm0-.729L4,18.6l1.726,2.291L20.112,9.437,34.5,20.893,36.225,18.6,20.112,6Z" transform="translate(-4 -6)" fill="#48ac8f"/>
      </g>
    </g>
  </g>
</svg>
