<svg xmlns="http://www.w3.org/2000/svg" width="128.596" height="124.111" viewBox="0 0 128.596 124.111">
  <path id="Tracé_1088" data-name="Tracé 1088" d="M64.3,124.111a84.313,84.313,0,0,1-14.558-1.261,80.71,80.71,0,0,1-13.558-3.616,76.626,76.626,0,0,1-12.27-5.721,71.558,71.558,0,0,1-10.691-7.577,66.082,66.082,0,0,1-8-8.169H46.889l-.136.117.056.048,17.7-15.21,17.8,15.29.15-.129-.136-.117h41.055a66.083,66.083,0,0,1-8,8.169,71.545,71.545,0,0,1-10.691,7.577,76.62,76.62,0,0,1-12.27,5.721,80.706,80.706,0,0,1-13.558,3.616A84.311,84.311,0,0,1,64.3,124.111Zm64.3-90.361H0A61.087,61.087,0,0,1,4.4,27.36a65.672,65.672,0,0,1,8.82-9.184A71.576,71.576,0,0,1,23.912,10.6a76.623,76.623,0,0,1,12.27-5.721A80.8,80.8,0,0,1,49.74,1.26a84.7,84.7,0,0,1,29.115,0A80.8,80.8,0,0,1,92.414,4.876a76.618,76.618,0,0,1,12.27,5.721,71.582,71.582,0,0,1,10.691,7.578,65.67,65.67,0,0,1,8.82,9.184,61.069,61.069,0,0,1,4.4,6.39Z" transform="translate(128.596 124.111) rotate(180)" fill="#48ac8f" opacity="0.196"/>
</svg>
