<svg xmlns="http://www.w3.org/2000/svg" width="118" height="87" viewBox="0 0 118 87">
  <g id="Groupe_1797" data-name="Groupe 1797" transform="translate(-420 -773)">
    <g id="Rectangle_1859" data-name="Rectangle 1859" transform="translate(420 773)" fill="#f8f8f8" stroke="#ddd" stroke-width="1">
      <rect width="118" height="87" rx="5" stroke="none"/>
      <rect x="0.5" y="0.5" width="117" height="86" rx="4.5" fill="none"/>
    </g>
    <text id="payé" transform="translate(478 845)" fill="#575757" font-size="12" font-family="SegoeUI, Segoe UI" letter-spacing="0.1em" opacity="0.8"><tspan x="-14.562" y="0">PAYÉ</tspan></text>
    <circle id="Ellipse_96" data-name="Ellipse 96" cx="20" cy="20" r="20" transform="translate(458 785)" fill="#fff"/>
    <path id="Tracé_1127" data-name="Tracé 1127" d="M6.63,14.287.266,8.074a.86.86,0,0,1,0-1.244L1.551,5.587a.934.934,0,0,1,1.286,0L7.273,9.94,17.163.257a.934.934,0,0,1,1.286,0L19.734,1.5a.858.858,0,0,1,0,1.242L7.915,14.291A.934.934,0,0,1,6.63,14.287Z" transform="translate(468.059 798.646)" fill="#575757"/>
  </g>
</svg>
