<svg xmlns="http://www.w3.org/2000/svg" width="18" height="18" viewBox="0 0 18 18">
  <g id="icon_chat-room" transform="translate(0 0.227)">
    <path id="Union_11" data-name="Union 11" d="M11.25,14.625H5.625l2.056-2.25h6.944A1.125,1.125,0,0,0,15.75,11.25V4.5h1.125A1.125,1.125,0,0,1,18,5.625V13.5a1.125,1.125,0,0,1-1.125,1.125h-2.25V18Zm-7.875-4.5H1.125A1.125,1.125,0,0,1,0,9V1.125A1.125,1.125,0,0,1,1.125,0h11.25A1.125,1.125,0,0,1,13.5,1.125V9c0,.621-1.125,1.125-1.125,1.125H6.75L3.375,13.5Z" transform="translate(0 -0.227)" fill="silver"/>
  </g>
</svg>
