<svg xmlns="http://www.w3.org/2000/svg" xmlns:xlink="http://www.w3.org/1999/xlink" width="150.362" height="146.281" viewBox="0 0 150.362 146.281">
  <defs>
    <filter id="Tracé_1506" x="0" y="6.547" width="150.362" height="139.734" filterUnits="userSpaceOnUse">
      <feOffset dy="3" input="SourceAlpha"/>
      <feGaussianBlur stdDeviation="3" result="blur"/>
      <feFlood flood-opacity="0.161"/>
      <feComposite operator="in" in2="blur"/>
      <feComposite in="SourceGraphic"/>
    </filter>
  </defs>
  <g id="Groupe_3391" data-name="Groupe 3391" transform="translate(-1394.271 -342)">
    <g id="Groupe_3394" data-name="Groupe 3394" transform="translate(65 73)">
      <g id="Groupe_3393" data-name="Groupe 3393" transform="translate(0 14)">
        <g id="Groupe_3392" data-name="Groupe 3392" transform="translate(116 -189)">
          <g transform="matrix(1, 0, 0, 1, 1213.27, 444)" filter="url(#Tracé_1506)">
            <path id="Tracé_1506-2" data-name="Tracé 1506" d="M0,0,118.536.216l.2,106.027L.2,106.027Z" transform="translate(9 29.07) rotate(-8)" fill="#fff"/>
          </g>
          <text id="Journées" transform="translate(1239.209 479.233) rotate(-9)" font-size="18" font-family="Rubik-Medium, Rubik" font-weight="500" letter-spacing="0.021em" opacity="0.83"><tspan x="0" y="17">Journées</tspan></text>
          <text id="PORTES_OUVERTES" data-name="PORTES OUVERTES" transform="translate(1224.406 503.334) rotate(-9)" fill="#7db526" font-size="18" font-family="CenturyGothic-BoldItalic, Century Gothic" font-weight="700" font-style="italic" letter-spacing="0.021em" opacity="0.81"><tspan x="26.405" y="18">PORTES </tspan><tspan x="14.325" y="35">OUVERTES</tspan></text>
          <g id="Ellipse_149" data-name="Ellipse 149" transform="translate(1275 444)" fill="#fff" stroke="#fff" stroke-width="1">
            <circle cx="3" cy="3" r="3" stroke="none"/>
            <circle cx="3" cy="3" r="2.5" fill="none"/>
          </g>
          <g id="Ellipse_150" data-name="Ellipse 150" transform="translate(1263 473)" stroke="#000" stroke-width="1">
            <circle cx="1.5" cy="1.5" r="1.5" stroke="none"/>
            <circle cx="1.5" cy="1.5" r="1" fill="none"/>
          </g>
          <g id="Ellipse_151" data-name="Ellipse 151" transform="translate(1299 466)" stroke="#000" stroke-width="1">
            <circle cx="1.5" cy="1.5" r="1.5" stroke="none"/>
            <circle cx="1.5" cy="1.5" r="1" fill="none"/>
          </g>
          <path id="Tracé_1492" data-name="Tracé 1492" d="M-16545-18075.416c-2.41,5.012-5.4,7.814-7.107,11.248-5.668,11.4-5.3,13.057-5.3,13.057" transform="translate(17821.678 18525.416)" fill="none" stroke="#707070" stroke-width="1"/>
          <path id="Tracé_1493" data-name="Tracé 1493" d="M13.849-3.81C10.873.6,11.7,6.441,9.72,9.726,3.251,20.428,0,21,0,21" transform="translate(1278.562 464.441) rotate(-83)" fill="none" stroke="#707070" stroke-width="1"/>
        </g>
      </g>
    </g>
  </g>
</svg>
