<svg xmlns="http://www.w3.org/2000/svg" width="111.149" height="48.725" viewBox="0 0 111.149 48.725">
  <g id="Groupe_3485" data-name="Groupe 3485" transform="translate(-3652.254 -574.27)">
    <g id="Groupe_3245" data-name="Groupe 3245" transform="translate(3652.877 574.27)">
      <path id="Tracé_1495" data-name="Tracé 1495" d="M-5371.207-17400.209l-84.76-9.521-11.756,11.762-1.4,6.439,8.4,20.443,85.65,10.08Z" transform="translate(5481.731 17409.73)" fill="#900"/>
      <text id="Promotions_Cadeaux" data-name="Promotions
&amp;
Cadeaux" transform="matrix(0.995, 0.105, -0.105, 0.995, 29.385, 5.907)" fill="#7db526" font-size="9" font-family="CenturyGothic-BoldItalic, Century Gothic" font-weight="700" font-style="italic" letter-spacing="0.021em"><tspan x="12.71" y="9">Promotions</tspan><tspan x="34.439" y="16">&amp;</tspan><tspan x="16.411" y="23">Cadeaux</tspan></text>
      <path id="Tracé_1496" data-name="Tracé 1496" d="M-5388.141-17409.1c-8.04-8.727-6.4-6.545-8.53-8.727s-6.177-.783-6.177-.783" transform="translate(5406.391 17422.73)" fill="none" stroke="#707070" stroke-width="1.5"/>
      <path id="Tracé_1497" data-name="Tracé 1497" d="M0,5.234C10.72.645,8.53,1.791,11.374.645S19.609.23,19.609.23" transform="translate(14.341 19.615) rotate(-137)" fill="none" stroke="#707070" stroke-width="1.5"/>
      <circle id="Ellipse_153" data-name="Ellipse 153" cx="2.5" cy="2.5" r="2.5" transform="translate(17.402 12.73)" fill="#fff"/>
    </g>
  </g>
</svg>
