<svg xmlns="http://www.w3.org/2000/svg" width="107.156" height="108.732" viewBox="0 0 107.156 108.732">
  <g id="Groupe_3241" data-name="Groupe 3241" transform="matrix(0.788, -0.616, 0.616, 0.788, -4399.875, 2546.908)" opacity="0.81">
    <path id="Tracé_1495" data-name="Tracé 1495" d="M-5469.123-17400.209l84.76-9.521,11.756,11.762,1.4,6.439-8.4,20.443-85.65,10.08Z" transform="translate(10461 18167)" fill="#900"/>
    <text id="Promotions_Cadeaux" data-name="Promotions
&amp;
Cadeaux" transform="translate(4998.269 771.693) rotate(-7)" fill="#7db526" font-size="9" font-family="CenturyGothic-BoldItalic, Century Gothic" font-weight="700" font-style="italic" letter-spacing="0.021em"><tspan x="12.71" y="9">Promotions</tspan><tspan x="34.439" y="16">&amp;</tspan><tspan x="16.411" y="23">Cadeaux</tspan></text>
    <path id="Tracé_1496" data-name="Tracé 1496" d="M-5402.847-17409.1c7.732-4.83,6.4-6.545,8.53-8.727.571-.584,2.132,0,4.365,1.324,5.148,3.045,13.668,10.607,13.668,10.607" transform="translate(10487 18180)" fill="none" stroke="#707070" stroke-width="1.5"/>
    <path id="Tracé_1497" data-name="Tracé 1497" d="M-5402.847-17419.051c10.72,4.59,8.576,4.662,10.908,7.277s7.414,11.021,7.414,11.021" transform="translate(20915.648 9827.811) rotate(-43)" fill="none" stroke="#707070" stroke-width="1.5"/>
    <circle id="Ellipse_153" data-name="Ellipse 153" cx="2.5" cy="2.5" r="2.5" transform="translate(5080 770)" fill="#fff"/>
  </g>
</svg>
